<svg width="140.78" height="61.105" version="1.1" viewBox="0 0 140.78 61.105" xmlns="http://www.w3.org/2000/svg">
	<g>
		<g>
			<path d="m64.4 6.7192c-0.62958 0.22456-1.618-0.01203-3.1439 0.30075-1.5358 0.31078-3.8998 1.3935-3.8998 1.3935s-0.40101-5.3233-0.36492-6.0552c0.0321-0.72181-0.24662-1.3333-1.1709-2.1895-0.92431-0.85815-1.8105 1.8366-1.8105 1.8366l-1.7043 6.0752-5.2953 1.3073s-1.3434 0.5995-1.7123 0.49724c-0.37294-0.10827-0.95038 0.33684-1.1469 0.88622-0.19248 0.54336 0.3168 2.0231 1.1368 2.9233 0.82607 0.89223 3.8276 2.1955 3.8276 2.1955s-0.63559 6.1755-1.3193 7.4847c-0.68371 1.3233-1.7464 3.3684-1.4236 4.5614 0.32481 1.191 2.0431-0.13835 2.0572-0.49524 0.016-0.36491 1.6802-2.7509 2.8732-3.8897 1.191-1.1489 3.198-3.5328 3.198-3.5328s3.3263 0.35689 4.2687 0.84612c0.94036 0.50326 2.787 2.2155 3.5308 1.9489 0.73384-0.26466 0.55539-0.91228 0.55539-0.91228s0.59149 0.02807 0.6777-0.4792c0.0902-0.51328-0.56942-2.5323-1.189-3.9739-0.61754-1.4396-1.4516-2.807-1.4516-2.807s1.5298-2.4521 1.983-3.3303c0.45314-0.8782 4.3288-4.0501 4.1965-4.9524-0.12832-0.90627-2.0371 0.14035-2.6727 0.3609" fill="#595954"/>
			<path d="m36.325 19.178c-0.16642-0.16842-0.44511-0.29474-0.50526-0.2787-0.09223 0.02206-0.2807-0.03208-0.36892-0.01604-0.11429-8e-3 -0.21654-2e-3 -0.24662 6e-3 -0.65163 0.11228-1.2451 0.09424-1.7945 0.42707-0.20852 0.12632-0.8782 0.17444-1.1469 0.34085-0.26667 0.16642-0.74787 0.40501-1.0165 0.56542-0.38496 0.2386-0.98446 0.47519-2.0973 1.1569-0.55138 0.33484-2.7749 1.8045-3.3063 2.1293-2.0391 1.2371-5.6822 4.2948-6.0171 4.6496-0.34286 0.34887-1.2191 1.0907-1.9228 1.7263-3.3765 2.9754-5.8587 6.4361-8.6316 10.059-0.26667 0.34887-0.53534 0.70777-0.80802 1.0627-0.79198 1.0887-1.3995 2.5925-1.9749 3.5449-0.401 0.64762-0.74186 1.0947-0.9203 1.3414-6e-3 0.01403-0.22456 0.57544-0.29674 0.76191-0.07619 0.18446-0.02005 0.15439-0.09624 0.35689-0.14236 0.23659-0.27268 0.46717-0.399 0.69374-0.08622 0.13233-0.21654 0.80201-0.2406 0.86015-0.10226 0.17043-0.27669 0.21654-0.35489 0.39298-2e-3 4e-3 -0.01002 0.01203-0.01203 0.02005-0.13233 0.21454-1.0065 2.0973-1.0065 2.0973l-0.2406 0.33684-8e-3 0.01002c-0.02607 0-0.65564 1.1368-0.65564 1.1368-0.12632 0.32481-0.28872 0.81203-0.28872 0.81203l-0.21456 0.36694c8e-3 -0.07218-0.42105 0.8381-0.79599 1.6501 0.07619-0.24461-0.51328 1.1589-0.60351 1.3614l-0.29073 0.77594c-0.11629 0.28672-0.05814 0.33283 0.0381 0.33484 0.24862 0.01203 0.97444-1.1248 1.0386-1.201 0 0 0.12431-0.25464 0.1584-0.31479 0.65364-1.1549 1.2191-1.9268 1.8466-2.9855 0.01805-0.09223 0.18446-0.26466 0.18446-0.26466l1.201-1.9208c0.15238-0.27068 0.57945-0.83409 0.57945-0.83409l0.54336-0.98647s2.2155-3.202 2.8211-4.004c1.2271-1.612 2.4682-3.178 3.7975-4.7479 0.80201-0.9584 2.2536-2.6085 2.5223-2.8912 0.26867-0.28471 3.3564-3.5148 5.1509-5.0166 8.78-7.3424 13.638-10.049 13.726-10.121 0.09223-0.07018 0.67369-0.3589 0.81003-0.48522 0.13835-0.12832 0.99449-0.92431 1.602-1.181 1.4917-0.63359 0.42105-1.7905 0.2406-1.7283" fill="#595954"/>
			<path d="m61.8 10.747c-0.30276 0.58346-2.4822 3.6231-2.8431 3.994-0.36291 0.36491-1.0566 1.211-0.67368 1.7845 0.38696 0.57344 1.1729 0.05815 1.1729 0.05815s1.3875 1.2812 1.6501 2.2597c0.26266 0.97244 0.69173 2.1273 0.69173 2.1273s-1.3133-1.4296-2.4602-1.8546c-1.1549-0.41905-3.6973-1.2832-4.2988-0.94436-0.60351 0.32882-1.582 0.5574-1.8847 1.1389-0.30075 0.58547-2.9574 3.5629-3.4506 3.8577-0.50125 0.30075-0.90426 0.08421-0.90426 0.08421s1.2531-3.8937 1.983-5.4657c0.73183-1.5679 0.43709-2.6546-0.56943-3.3644-0.99649-0.71379-1.7865-0.66166-2.6847-1.4095-0.89625-0.74988-1.3694-1.6501-1.3694-1.6501s2.3198 0.4792 4.0762-0.2787c1.7624-0.74587 3.5188-1.4917 3.5188-1.4917s1.4777-3.5048 1.4957-3.8657c0.014-0.36692 0.71379 0.93033 0.87419 1.9449 0.15038 1.0125 0.65364 2.8531 1.602 2.5143 0.94436-0.34085 2.5544-0.79599 3.2602-1.1709 0.70777-0.37494 2.3719-0.60953 2.3719-0.60953s-1.2572 1.7584-1.5579 2.3419" fill="#fd0"/>
		</g>
		<g>
			<path d="m101.3 24.933c-0.0662 1.2632 6.777 4.2105 7.5629 5.0446 0.77393 0.84411 5.3955 3.986 5.3955 3.986s0.97645 2.4602 0.24662 4.806c-0.73384 2.3539-1.4937 7.6191-2.1173 9.3895-0.22256 0.60552 1.0526 1.0145 1.0526 1.0145s-0.17645 0.12231 0.93834-0.04812c1.1208-0.17444 4.9684-4.9303 6.2837-6.2537 1.3293-1.3273 3.0035-5.1108 4.1464-6.2296 1.1529-1.1208 3.3564 1.0326 5.2672 1.7063 1.9028 0.66166 3.6351 1.2351 4.0361 1.3694 0.91028 0.31679 2.779 1.5579 3.2341 0.75188 0.44912-0.8-0.88422-3.9018-1.6441-5.2311-0.87018-1.5278-2.3058-8.6076-2.3058-8.6076s2.4541-3.6351 4.7178-6.0271c1.4035-1.4757 2.9694-3.9679 2.6105-4.5474-0.36091-0.58747-1.2411-2.1153-1.7825-1.7203-0.53534 0.40702-4.9905 2.805-4.9905 2.805l-5.5359 1.7223-4.401-9.2431s-1.6461-2.9434-2.9053-1.1509c-1.2431 1.7925-1.584 2.801-1.4376 3.7434 0.14235 0.94035-1.2872 9.2953-1.2872 9.2953s-5.187 0.38095-7.4908 1.0587c-2.2897 0.66968-3.5689 0.34887-4.5474 0.4812-0.97043 0.12832-4.9845 0.61755-5.0466 1.8847" fill="#595954"/>
			<path d="m99.09 34.188c-0.32481-0.10627-0.15639-0.64161-0.46717-0.70376-0.0983-0.37895-0.66767-0.66166-0.76993-0.68973-0.14837-0.04411-0.30075-0.08622-0.44712-0.13233-0.15639-0.10827-0.31077-0.17845-0.3589-0.18847-1.0446-0.37494-1.9749-0.43509-3.0617-0.41303-0.41504 0.01203-1.584-0.36692-2.0632-0.34486-0.45113 0.02406-0.93233 0.05013-1.4657 0.06015-0.76591 0.02206-2.1233-0.28872-4.3409-0.2386-1.0947 0.03408-5.1549 0.19248-6.2076 0.22055-4.0662 0.09624-12.227 1.7885-13.027 2.009-0.80201 0.22256-2.7308 0.56742-4.3168 0.89223-7.5188 1.4657-14.196 3.9218-21.398 6.8191-0.69374 0.2787-1.3955 0.5594-2.0993 0.84411-1.9629 0.85013-3.6812 1.8627-5.5439 2.8351-0.8381 0.42707-2.0973 1.0767-2.9133 1.4356-0.01604 4e-3 -0.86617 0.39098-1.1469 0.59349-0.28271 0.20251-0.17444 0.21454-0.46918 0.43308-0.42707 0.22456-0.82807 0.45514-1.217 0.66968-0.24461 0.12632-1.0687 0.50326-1.1549 0.57344-0.30075 0.15439-0.68171 0.52532-0.9564 0.71579-0.01203 8e-3 -0.02807 0.01604-0.04211 0.02406-0.38496 0.19048-2.4461 1.4677-2.5724 1.582-0.2005 0.13033-0.38496 0.27268-0.55539 0.41103-0.08421 0.06015-0.17644 0.12431-0.26466 0.18647h-4e-3l-0.65163 0.29474-0.01604-4e-3c-0.0401-0.01805-1.5118 0.73985-1.5118 0.73985l-0.4812 0.35489c-0.48522 0.36491-1.6521 1.1589-1.6521 1.1589l-0.68973 0.37694c0.08622-0.10426-1.4396 0.90627-2.791 1.8165 0.3589-0.29875-2.1835 1.2952-2.2176 1.3594-0.03409 0.07218 0.31479-0.03409-0.01805 0.19449l-1.185 0.93233c-0.46116 0.33484-0.88421 0.65163-1.4055 1.0045-0.39499 0.31078-1.205 0.90226-1.1629 1.0346 0.0401 0.13233 0.2807 0.03609 0.69975-0.20451 0.42306-0.24461 1.5699-0.96442 1.5739-0.81404 2e-3 0.14837 2.5203-1.3494 2.6847-1.4075 0 0 0.4391-0.27068 0.54136-0.34486 2.0952-1.1749 3.6832-1.8687 5.6381-2.9273 0.11629-0.13233 0.18647-0.25063 0.41303-0.33083l0.5213-0.16842 1.2792-0.73384 2.2075-1.0246c0.47519-0.27669 1.6-0.7178 1.6-0.7178l1.6862-0.97644 3.2882-1.4216c1.61-0.68572 2.9855-1.3935 4.5634-2.0291 3.202-1.2892 6.8451-2.9694 10.153-4.1243 2.007-0.70376 5.5599-1.8647 6.2035-2.0511 0.63759-0.18647 7.972-2.1855 11.89-2.9173 19.842-3.6973 28.58-2.9173 28.78-2.9454 0.19649-0.02807 1.2932 0.03809 1.604-0.02807 0.31278-0.07018 3.212-0.10627 4.3328-0.2005 1.5539-0.14637 1.193-1.4396 0.98446-1.4897" fill="#595954"/>
			<path d="m109.17 25.81c0.20451-0.75188 2.2697-1.0867 3.4346-1.0947 1.1589-0.01203 4.9424-1.1208 6.4902-1.3634 1.5378-0.23659 2.7589-2.2115 2.8672-3.7574 0.11027-1.5679-0.0842-6.6346 0.38697-7.7775 0.47118-1.1429 5.4837 9.1629 5.4837 9.1629s1.6882-0.0421 4.1744-0.9604c2.7649-1.0145 5.8767-2.4862 5.8767-2.4862s-0.50326 1.2551-1.8085 3.0035c-1.3133 1.7404-2.39 2.388-3.8677 4.1644-1.4857 1.7744-1.7985 3.5348-0.44111 5.203 0.82206 1.0085 3.0396 7.3344 2.8552 6.2577-0.11829-0.69173-0.37895 1.0306-1.201 0.98647-0.82407-0.04411-4.6296-2.6707-5.187-3.2662-0.56341-0.5995-2.9694-1.0005-3.9358-0.18847-0.81003 0.6797-3.3684 5.2672-5.0306 7.3263-1.4697 1.8266-3.8136 5.3995-3.6191 4.397 0.19248-0.9985 0.49724-1.8566 0.77795-3.4446 0.28471-1.584 0.6797-7.174 0.6797-7.174s1.3073 0.13233 1.8426-0.96842c0.52933-1.1128-0.61955-2.1815-1.2431-2.4201-0.62757-0.24862-6.1033-3.6191-6.6567-4.2226-0.56341-0.58747-2.0932-0.63359-1.8787-1.3774" fill="#fd0"/>
		</g>
	</g>
</svg>
