<svg width="67.076" height="57.861" version="1.1" viewBox="0 0 67.076 57.861" xmlns="http://www.w3.org/2000/svg">
	<g>
		<path d="m64.4 6.7192c-0.62958 0.22456-1.618-0.01203-3.1439 0.30075-1.5358 0.31078-3.8998 1.3935-3.8998 1.3935s-0.40101-5.3233-0.36492-6.0552c0.0321-0.72181-0.24662-1.3333-1.1709-2.1895-0.92431-0.85815-1.8105 1.8366-1.8105 1.8366l-1.7043 6.0752-5.2953 1.3073s-1.3434 0.5995-1.7123 0.49724c-0.37294-0.10827-0.95038 0.33684-1.1469 0.88622-0.19248 0.54336 0.3168 2.0231 1.1368 2.9233 0.82607 0.89223 3.8276 2.1955 3.8276 2.1955s-0.63559 6.1755-1.3193 7.4847c-0.68371 1.3233-1.7464 3.3684-1.4236 4.5614 0.32481 1.191 2.0431-0.13835 2.0572-0.49524 0.016-0.36491 1.6802-2.7509 2.8732-3.8897 1.191-1.1489 3.198-3.5328 3.198-3.5328s3.3263 0.35689 4.2687 0.84612c0.94036 0.50326 2.787 2.2155 3.5308 1.9489 0.73384-0.26466 0.55539-0.91228 0.55539-0.91228s0.59149 0.02807 0.6777-0.4792c0.0902-0.51328-0.56942-2.5323-1.189-3.9739-0.61754-1.4396-1.4516-2.807-1.4516-2.807s1.5298-2.4521 1.983-3.3303c0.45314-0.8782 4.3288-4.0501 4.1965-4.9524-0.12832-0.90627-2.0371 0.14035-2.6727 0.3609" fill="#595954"/>
		<path d="m36.325 19.178c-0.16642-0.16842-0.44511-0.29474-0.50526-0.2787-0.09223 0.02206-0.2807-0.03208-0.36892-0.01604-0.11429-8e-3 -0.21654-2e-3 -0.24662 6e-3 -0.65163 0.11228-1.2451 0.09424-1.7945 0.42707-0.20852 0.12632-0.8782 0.17444-1.1469 0.34085-0.26667 0.16642-0.74787 0.40501-1.0165 0.56542-0.38496 0.2386-0.98446 0.47519-2.0973 1.1569-0.55138 0.33484-2.7749 1.8045-3.3063 2.1293-2.0391 1.2371-5.6822 4.2948-6.0171 4.6496-0.34286 0.34887-1.2191 1.0907-1.9228 1.7263-3.3765 2.9754-5.8587 6.4361-8.6316 10.059-0.26667 0.34887-0.53534 0.70777-0.80802 1.0627-0.79198 1.0887-1.3995 2.5925-1.9749 3.5449-0.401 0.64762-0.74186 1.0947-0.9203 1.3414-6e-3 0.01403-0.22456 0.57544-0.29674 0.76191-0.07619 0.18446-0.02005 0.15439-0.09624 0.35689-0.14236 0.23659-0.27268 0.46717-0.399 0.69374-0.08622 0.13233-0.21654 0.80201-0.2406 0.86015-0.10226 0.17043-0.27669 0.21654-0.35489 0.39298-2e-3 4e-3 -0.01002 0.01203-0.01203 0.02005-0.13233 0.21454-1.0065 2.0973-1.0065 2.0973l-0.2406 0.33684-8e-3 0.01002c-0.02607 0-0.65564 1.1368-0.65564 1.1368-0.12632 0.32481-0.28872 0.81203-0.28872 0.81203l-0.21456 0.36694c8e-3 -0.07218-0.42105 0.8381-0.79599 1.6501 0.07619-0.24461-0.51328 1.1589-0.60351 1.3614l-0.29073 0.77594c-0.11629 0.28672-0.05814 0.33283 0.0381 0.33484 0.24862 0.01203 0.97444-1.1248 1.0386-1.201 0 0 0.12431-0.25464 0.1584-0.31479 0.65364-1.1549 1.2191-1.9268 1.8466-2.9855 0.01805-0.09223 0.18446-0.26466 0.18446-0.26466l1.201-1.9208c0.15238-0.27068 0.57945-0.83409 0.57945-0.83409l0.54336-0.98647s2.2155-3.202 2.8211-4.004c1.2271-1.612 2.4682-3.178 3.7975-4.7479 0.80201-0.9584 2.2536-2.6085 2.5223-2.8912 0.26867-0.28471 3.3564-3.5148 5.1509-5.0166 8.78-7.3424 13.638-10.049 13.726-10.121 0.09223-0.07018 0.67369-0.3589 0.81003-0.48522 0.13835-0.12832 0.99449-0.92431 1.602-1.181 1.4917-0.63359 0.42105-1.7905 0.2406-1.7283" fill="#595954"/>
		<path d="m61.8 10.747c-0.30276 0.58346-2.4822 3.6231-2.8431 3.994-0.36291 0.36491-1.0566 1.211-0.67368 1.7845 0.38696 0.57344 1.1729 0.05815 1.1729 0.05815s1.3875 1.2812 1.6501 2.2597c0.26266 0.97244 0.69173 2.1273 0.69173 2.1273s-1.3133-1.4296-2.4602-1.8546c-1.1549-0.41905-3.6973-1.2832-4.2988-0.94436-0.60351 0.32882-1.582 0.5574-1.8847 1.1389-0.30075 0.58547-2.9574 3.5629-3.4506 3.8577-0.50125 0.30075-0.90426 0.08421-0.90426 0.08421s1.2531-3.8937 1.983-5.4657c0.73183-1.5679 0.43709-2.6546-0.56943-3.3644-0.99649-0.71379-1.7865-0.66166-2.6847-1.4095-0.89625-0.74988-1.3694-1.6501-1.3694-1.6501s2.3198 0.4792 4.0762-0.2787c1.7624-0.74587 3.5188-1.4917 3.5188-1.4917s1.4777-3.5048 1.4957-3.8657c0.014-0.36692 0.71379 0.93033 0.87419 1.9449 0.15038 1.0125 0.65364 2.8531 1.602 2.5143 0.94436-0.34085 2.5544-0.79599 3.2602-1.1709 0.70777-0.37494 2.3719-0.60953 2.3719-0.60953s-1.2572 1.7584-1.5579 2.3419" fill="#fd0"/>
	</g>
</svg>
