<?xml version="1.0" encoding="UTF-8" standalone="no"?>
<!-- Created with Inkscape (http://www.inkscape.org/) -->

<svg
   xmlns:dc="http://purl.org/dc/elements/1.1/"
   xmlns:cc="http://creativecommons.org/ns#"
   xmlns:rdf="http://www.w3.org/1999/02/22-rdf-syntax-ns#"
   xmlns:svg="http://www.w3.org/2000/svg"
   xmlns="http://www.w3.org/2000/svg"
   xmlns:sodipodi="http://sodipodi.sourceforge.net/DTD/sodipodi-0.dtd"
   xmlns:inkscape="http://www.inkscape.org/namespaces/inkscape"
   version="1.1"
   id="svg32971"
   xml:space="preserve"
   width="176.94699"
   height="85.119682"
   viewBox="0 0 176.94699 85.119682"
   sodipodi:docname="logo reves d'enfants.svg"
   inkscape:version="0.92.3 (2405546, 2018-03-11)"><metadata
     id="metadata32977"><rdf:RDF><cc:Work
         rdf:about=""><dc:format>image/svg+xml</dc:format><dc:type
           rdf:resource="http://purl.org/dc/dcmitype/StillImage" /><dc:title></dc:title></cc:Work></rdf:RDF></metadata><defs
     id="defs32975"><clipPath
       clipPathUnits="userSpaceOnUse"
       id="clipPath32987"><path
         d="M 36,36 H 576 V 431.28 H 36 Z"
         id="path32985"
         inkscape:connector-curvature="0" /></clipPath><clipPath
       clipPathUnits="userSpaceOnUse"
       id="clipPath33019"><path
         d="M 0,0 H 612 V 792 H 0 Z"
         id="path33017"
         inkscape:connector-curvature="0" /></clipPath></defs><sodipodi:namedview
     pagecolor="#ffffff"
     bordercolor="#666666"
     borderopacity="1"
     objecttolerance="10"
     gridtolerance="10"
     guidetolerance="10"
     inkscape:pageopacity="0"
     inkscape:pageshadow="2"
     inkscape:window-width="1920"
     inkscape:window-height="1001"
     id="namedview32973"
     showgrid="false"
     inkscape:zoom="7.4542098"
     inkscape:cx="88.473495"
     inkscape:cy="42.559841"
     inkscape:window-x="-9"
     inkscape:window-y="-9"
     inkscape:window-maximized="1"
     inkscape:current-layer="g32979" /><g
     id="g32979"
     inkscape:groupmode="layer"
     inkscape:label="2016-Rapport-Annuel"
     transform="matrix(1.3333333,0,0,-1.3333333,-41.719408,1007.9994)"><g
       id="g33013"><g
         id="g33015"
         clip-path="url(#clipPath33019)"><g
           id="g33021"
           transform="translate(46.4808,722.8754)"><path
             d="M 0,0 C -0.012,0.026 -1.082,2.837 -0.632,6.208 -0.014,10.82 4.621,18.554 18.075,18.282 34.786,17.945 41.399,7.128 41.465,7.019 l 0.025,-0.043 0.046,0.015 c 0.037,0.013 3.859,1.269 7.881,0.995 6.451,-0.442 8.447,-5.557 8.465,-5.63 -0.004,0.008 -0.055,0.018 -0.055,0.018 L 57.614,2.403 C 57.479,2.397 57.38,2.425 57.304,2.491 51.275,7.589 44.577,5.223 41.717,4.214 41.156,4.015 40.625,3.827 40.556,3.887 L 39.971,4.44 c -1.748,1.688 -6.169,6.308 -11.622,7.695 l -0.311,0.078 C 22.036,13.742 17.297,14.949 9.343,11.541 7.084,10.576 3.191,8.26 2.491,3.584 2.262,2.053 2.498,0.293 3.191,-1.644 3.425,-2.3 4.066,-2.894 4.375,-3.336 4.552,-3.586 4.796,-3.931 4.753,-3.987 4.737,-4.006 4.628,-4.044 3.868,-3.728 c -2.139,0.894 -7.351,0.78 -10.841,-1.809 -2.617,-1.941 -3.803,-4.82 -3.43,-8.329 0.424,-3.978 4.097,-6.894 9.119,-7.749 0.987,-0.168 1.776,-0.216 2.352,-0.249 0.465,-0.028 0.865,-0.051 0.905,-0.133 0.007,-0.015 -0.006,-0.048 -0.034,-0.088 -0.1,-0.382 -0.332,-1.676 0.501,-3.052 0.884,-1.46 2.65,-2.515 5.252,-3.139 2.797,-0.666 5.874,0 6.496,0.248 0.125,0.049 0.346,0.119 0.41,-0.001 0.078,-0.144 -0.067,-0.495 -0.214,-0.6 -0.036,-0.025 -3.918,-2.359 -9.47,-1.288 -5.709,1.1 -7.074,5.184 -7.396,6.891 l -0.01,0.046 -0.048,0.002 c -5.199,0.183 -11.288,4.104 -12.295,7.914 -0.829,3.147 -0.48,9.352 3.983,12.597 4.64,3.374 10.724,2.394 10.785,2.384 l 0.105,-0.016 z"
             style="fill:#53c8eb;fill-opacity:1;fill-rule:nonzero;stroke:none"
             id="path33023"
             inkscape:connector-curvature="0" /></g><g
           id="g33025"
           transform="translate(111.1752,739.8122)"><path
             d="m 0,0 c -0.032,-0.009 -0.066,-0.019 -0.102,-0.03 0.033,0.007 0.065,0.013 0.097,0.021 C -0.004,-0.007 -0.002,-0.003 0,0"
             style="fill:#000000;fill-opacity:1;fill-rule:nonzero;stroke:none"
             id="path33027"
             inkscape:connector-curvature="0" /></g><g
           id="g33029"
           transform="translate(80.2554,734.9647)"><path
             d="M 0,0 C -0.006,-0.003 -0.013,-0.007 -0.02,-0.01 -0.013,-0.007 -0.006,-0.003 0,0"
             style="fill:#000000;fill-opacity:1;fill-rule:nonzero;stroke:none"
             id="path33031"
             inkscape:connector-curvature="0" /></g><g
           id="g33033"
           transform="translate(78.2455,733.4177)"><path
             d="m 0,0 c -0.009,-0.002 -0.018,-0.002 -0.028,-0.002 0.01,0 0.019,0 0.028,0.002"
             style="fill:#000000;fill-opacity:1;fill-rule:nonzero;stroke:none"
             id="path33035"
             inkscape:connector-curvature="0" /></g><g
           id="g33037"
           transform="translate(112.3715,743.5645)"><path
             d="m 0,0 c -0.033,-0.63 3.38,-2.1 3.772,-2.516 0.386,-0.421 2.691,-1.988 2.691,-1.988 0,0 0.487,-1.227 0.123,-2.397 -0.366,-1.174 -0.745,-3.8 -1.056,-4.683 -0.111,-0.302 0.525,-0.506 0.525,-0.506 0,0 -0.088,-0.061 0.468,0.024 0.559,0.087 2.478,2.459 3.134,3.119 0.663,0.662 1.498,2.549 2.068,3.107 0.575,0.559 1.674,-0.515 2.627,-0.851 0.949,-0.33 1.813,-0.616 2.013,-0.683 0.454,-0.158 1.386,-0.777 1.613,-0.375 0.224,0.399 -0.441,1.946 -0.82,2.609 -0.434,0.762 -1.15,4.293 -1.15,4.293 0,0 1.224,1.813 2.353,3.006 0.7,0.736 1.481,1.979 1.302,2.268 C 19.483,4.72 19.044,5.482 18.774,5.285 18.507,5.082 16.285,3.886 16.285,3.886 l -2.761,-0.859 -2.195,4.61 c 0,0 -0.821,1.468 -1.449,0.574 C 9.26,7.317 9.09,6.814 9.163,6.344 9.234,5.875 8.521,1.708 8.521,1.708 8.521,1.708 5.934,1.518 4.785,1.18 3.643,0.846 3.005,1.006 2.517,0.94 2.033,0.876 0.031,0.632 0,0"
             style="fill:#595954;fill-opacity:1;fill-rule:nonzero;stroke:none"
             id="path33039"
             inkscape:connector-curvature="0" /></g><g
           id="g33041"
           transform="translate(116.2953,743.1271)"><path
             d="M 0,0 C 0.102,0.375 1.132,0.542 1.713,0.546 2.291,0.552 4.178,1.105 4.95,1.226 5.717,1.344 6.326,2.329 6.38,3.1 6.435,3.882 6.338,6.409 6.573,6.979 c 0.235,0.57 2.735,-4.57 2.735,-4.57 0,0 0.842,0.021 2.082,0.479 1.379,0.506 2.931,1.24 2.931,1.24 0,0 -0.251,-0.626 -0.902,-1.498 C 12.764,1.762 12.227,1.439 11.49,0.553 10.749,-0.332 10.593,-1.21 11.27,-2.042 11.68,-2.545 12.786,-5.7 12.694,-5.163 12.635,-4.818 12.505,-5.677 12.095,-5.655 11.684,-5.633 9.786,-4.323 9.508,-4.026 9.227,-3.727 8.027,-3.527 7.545,-3.932 7.141,-4.271 5.865,-6.559 5.036,-7.586 4.303,-8.497 3.134,-10.279 3.231,-9.779 c 0.096,0.498 0.248,0.926 0.388,1.718 0.142,0.79 0.339,3.578 0.339,3.578 0,0 0.652,-0.066 0.919,0.483 0.264,0.555 -0.309,1.088 -0.62,1.207 -0.313,0.124 -3.044,1.805 -3.32,2.106 C 0.656,-0.394 -0.107,-0.371 0,0"
             style="fill:#ffdd00;fill-opacity:1;fill-rule:nonzero;stroke:none"
             id="path33043"
             inkscape:connector-curvature="0" /></g><g
           id="g33045"
           transform="translate(93.9689,752.6484)"><path
             d="m 0,0 c -0.314,-0.112 -0.807,0.006 -1.568,-0.15 -0.766,-0.155 -1.945,-0.695 -1.945,-0.695 0,0 -0.2,2.655 -0.182,3.02 0.016,0.36 -0.123,0.665 -0.584,1.092 C -4.74,3.695 -5.182,2.351 -5.182,2.351 l -0.85,-3.03 -2.641,-0.652 c 0,0 -0.67,-0.299 -0.854,-0.248 -0.186,0.054 -0.474,-0.168 -0.572,-0.442 -0.096,-0.271 0.158,-1.009 0.567,-1.458 0.412,-0.445 1.909,-1.095 1.909,-1.095 0,0 -0.317,-3.08 -0.658,-3.733 -0.341,-0.66 -0.871,-1.68 -0.71,-2.275 0.162,-0.594 1.019,0.069 1.026,0.247 0.008,0.182 0.838,1.372 1.433,1.94 0.594,0.573 1.595,1.762 1.595,1.762 0,0 1.659,-0.178 2.129,-0.422 0.469,-0.251 1.39,-1.105 1.761,-0.972 0.366,0.132 0.277,0.455 0.277,0.455 0,0 0.295,-0.014 0.338,0.239 0.045,0.256 -0.284,1.263 -0.593,1.982 -0.308,0.718 -0.724,1.4 -0.724,1.4 0,0 0.763,1.223 0.989,1.661 0.226,0.438 2.159,2.02 2.093,2.47 C 1.269,0.632 0.317,0.11 0,0"
             style="fill:#595954;fill-opacity:1;fill-rule:nonzero;stroke:none"
             id="path33047"
             inkscape:connector-curvature="0" /></g><g
           id="g33049"
           transform="translate(92.6725,750.6396)"><path
             d="m 0,0 c -0.151,-0.291 -1.238,-1.807 -1.418,-1.992 -0.181,-0.182 -0.527,-0.604 -0.336,-0.89 0.193,-0.286 0.585,-0.029 0.585,-0.029 0,0 0.692,-0.639 0.823,-1.127 0.131,-0.485 0.345,-1.061 0.345,-1.061 0,0 -0.655,0.713 -1.227,0.925 -0.576,0.209 -1.844,0.64 -2.144,0.471 -0.301,-0.164 -0.789,-0.278 -0.94,-0.568 -0.15,-0.292 -1.475,-1.777 -1.721,-1.924 -0.25,-0.15 -0.451,-0.042 -0.451,-0.042 0,0 0.625,1.942 0.989,2.726 0.365,0.782 0.218,1.324 -0.284,1.678 -0.497,0.356 -0.891,0.33 -1.339,0.703 -0.447,0.374 -0.683,0.823 -0.683,0.823 0,0 1.157,-0.239 2.033,0.139 0.879,0.372 1.755,0.744 1.755,0.744 0,0 0.737,1.748 0.746,1.928 0.007,0.183 0.356,-0.464 0.436,-0.97 0.075,-0.505 0.326,-1.423 0.799,-1.254 0.471,0.17 1.274,0.397 1.626,0.584 0.353,0.187 1.183,0.304 1.183,0.304 C 0.777,1.168 0.15,0.291 0,0"
             style="fill:#ffdd00;fill-opacity:1;fill-rule:nonzero;stroke:none"
             id="path33051"
             inkscape:connector-curvature="0" /></g><g
           id="g33053"
           transform="translate(79.9648,746.4348)"><path
             d="M 0,0 C -0.083,0.084 -0.222,0.147 -0.252,0.139 -0.298,0.128 -0.392,0.155 -0.436,0.147 -0.493,0.151 -0.544,0.148 -0.559,0.144 -0.884,0.088 -1.18,0.097 -1.454,-0.069 -1.558,-0.132 -1.892,-0.156 -2.026,-0.239 -2.159,-0.322 -2.399,-0.441 -2.533,-0.521 -2.725,-0.64 -3.024,-0.758 -3.579,-1.098 -3.854,-1.265 -4.963,-1.998 -5.228,-2.16 -6.245,-2.777 -8.062,-4.302 -8.229,-4.479 -8.4,-4.653 -8.837,-5.023 -9.188,-5.34 c -1.684,-1.484 -2.922,-3.21 -4.305,-5.017 -0.133,-0.174 -0.267,-0.353 -0.403,-0.53 -0.395,-0.543 -0.698,-1.293 -0.985,-1.768 -0.2,-0.323 -0.37,-0.546 -0.459,-0.669 -0.003,-0.007 -0.112,-0.287 -0.148,-0.38 -0.038,-0.092 -0.01,-0.077 -0.048,-0.178 -0.071,-0.118 -0.136,-0.233 -0.199,-0.346 -0.043,-0.066 -0.108,-0.4 -0.12,-0.429 -0.051,-0.085 -0.138,-0.108 -0.177,-0.196 -0.001,-0.002 -0.005,-0.006 -0.006,-0.01 -0.066,-0.107 -0.502,-1.046 -0.502,-1.046 l -0.12,-0.168 -0.004,-0.005 c -0.013,0 -0.327,-0.567 -0.327,-0.567 -0.063,-0.162 -0.144,-0.405 -0.144,-0.405 l -0.107,-0.183 c 0.004,0.036 -0.21,-0.418 -0.397,-0.823 0.038,0.122 -0.256,-0.578 -0.301,-0.679 l -0.145,-0.387 c -0.058,-0.143 -0.029,-0.166 0.019,-0.167 0.124,-0.006 0.486,0.561 0.518,0.599 0,0 0.062,0.127 0.079,0.157 0.326,0.576 0.608,0.961 0.921,1.489 0.009,0.046 0.092,0.132 0.092,0.132 l 0.599,0.958 c 0.076,0.135 0.289,0.416 0.289,0.416 l 0.271,0.492 c 0,0 1.105,1.597 1.407,1.997 0.612,0.804 1.231,1.585 1.894,2.368 0.4,0.478 1.124,1.301 1.258,1.442 0.134,0.142 1.674,1.753 2.569,2.502 4.379,3.662 6.802,5.012 6.846,5.048 0.046,0.035 0.336,0.179 0.404,0.242 0.069,0.064 0.496,0.461 0.799,0.589 C 0.624,-0.546 0.09,0.031 0,0"
             style="fill:#595954;fill-opacity:1;fill-rule:nonzero;stroke:none"
             id="path33055"
             inkscape:connector-curvature="0" /></g><g
           id="g33057"
           transform="translate(111.2664,738.9483)"><path
             d="M 0,0 C -0.162,0.053 -0.078,0.32 -0.233,0.351 -0.282,0.54 -0.566,0.681 -0.617,0.695 -0.691,0.717 -0.767,0.738 -0.84,0.761 -0.918,0.815 -0.995,0.85 -1.019,0.855 -1.54,1.042 -2.004,1.072 -2.546,1.061 -2.753,1.055 -3.336,1.244 -3.575,1.233 -3.8,1.221 -4.04,1.208 -4.306,1.203 -4.688,1.192 -5.365,1.347 -6.471,1.322 -7.017,1.305 -9.042,1.226 -9.567,1.212 -11.595,1.164 -15.665,0.32 -16.064,0.21 c -0.4,-0.111 -1.362,-0.283 -2.153,-0.445 -3.75,-0.731 -7.08,-1.956 -10.672,-3.401 -0.346,-0.139 -0.696,-0.279 -1.047,-0.421 -0.979,-0.424 -1.836,-0.929 -2.765,-1.414 -0.418,-0.213 -1.046,-0.537 -1.453,-0.716 -0.008,-0.002 -0.432,-0.195 -0.572,-0.296 -0.141,-0.101 -0.087,-0.107 -0.234,-0.216 -0.213,-0.112 -0.413,-0.227 -0.607,-0.334 -0.122,-0.063 -0.533,-0.251 -0.576,-0.286 -0.15,-0.077 -0.34,-0.262 -0.477,-0.357 -0.006,-0.004 -0.014,-0.008 -0.021,-0.012 -0.192,-0.095 -1.22,-0.732 -1.283,-0.789 -0.1,-0.065 -0.192,-0.136 -0.277,-0.205 -0.042,-0.03 -0.088,-0.062 -0.132,-0.093 h -0.002 l -0.325,-0.147 -0.008,0.002 c -0.02,0.009 -0.754,-0.369 -0.754,-0.369 l -0.24,-0.177 c -0.242,-0.182 -0.824,-0.578 -0.824,-0.578 l -0.344,-0.188 c 0.043,0.052 -0.718,-0.452 -1.392,-0.906 0.179,0.149 -1.089,-0.646 -1.106,-0.678 -0.017,-0.036 0.157,0.017 -0.009,-0.097 l -0.591,-0.465 c -0.23,-0.167 -0.441,-0.325 -0.701,-0.501 -0.197,-0.155 -0.601,-0.45 -0.58,-0.516 0.02,-0.066 0.14,-0.018 0.349,0.102 0.211,0.122 0.783,0.481 0.785,0.406 0.001,-0.074 1.257,0.673 1.339,0.702 0,0 0.219,0.135 0.27,0.172 1.045,0.586 1.837,0.932 2.812,1.46 0.058,0.066 0.093,0.125 0.206,0.165 l 0.26,0.084 0.638,0.366 1.101,0.511 c 0.237,0.138 0.798,0.358 0.798,0.358 l 0.841,0.487 1.64,0.709 c 0.803,0.342 1.489,0.695 2.276,1.012 1.597,0.643 3.414,1.481 5.064,2.057 1.001,0.351 2.773,0.93 3.094,1.023 0.318,0.093 3.976,1.09 5.93,1.455 9.896,1.844 14.254,1.455 14.354,1.469 0.098,0.014 0.645,-0.019 0.8,0.014 0.156,0.035 1.602,0.053 2.161,0.1 C 0.284,-0.67 0.104,-0.025 0,0"
             style="fill:#595954;fill-opacity:1;fill-rule:nonzero;stroke:none"
             id="path33059"
             inkscape:connector-curvature="0" /></g><g
           id="g33061"
           transform="translate(66.0451,722.6464)"><path
             d="m 0,0 -0.265,0.081 -0.097,0.045 c -0.307,0.149 -0.772,0.375 -1.664,0.394 -0.8,0.02 -3.004,-0.789 -3.591,-0.988 -0.038,0.376 0.071,1.64 -0.058,1.887 -0.208,0.39 -0.428,0.571 -0.9,0.421 C -6.934,1.731 -6.883,1.373 -6.883,1 c 0,-0.266 0.048,-0.539 0.082,-0.744 0.03,-0.171 0.04,-0.373 0.04,-0.575 0,-0.428 0.081,-0.981 0.064,-1.126 l -0.128,-0.098 c -0.029,-0.03 -0.859,-0.456 -0.769,-1.272 0.062,-0.571 0.428,-0.642 0.646,-0.685 0.168,-0.034 0.402,0.195 0.411,0.158 0.043,-0.192 0.312,-1.555 0.432,-2.56 0.145,-1.219 0.212,-2.669 0.294,-3.101 0.061,-0.311 0.09,-0.821 0.12,-1.361 0.05,-0.873 0.101,-1.774 0.291,-2.223 0.333,-0.789 0.615,-0.616 0.955,-0.534 l 0.088,0.021 c 0.121,0.025 0.089,0.067 0.158,0.187 0.087,0.15 0.026,0.512 0.026,0.752 0,0.506 -0.153,0.912 -0.263,1.32 -0.212,0.769 -0.275,1.542 -0.342,2.36 l -0.108,1.142 c -0.128,1.058 -0.467,4.904 -0.521,5.567 0.238,0.156 1.473,0.432 1.694,0.543 0.139,0.067 0.811,0.372 1.197,0.366 0.404,-0.007 1.322,0.128 1.662,-0.008 0.523,-0.213 0.823,-1.12 0.968,-1.604 0.147,-0.485 0.078,-1.284 -0.081,-1.505 -0.262,-0.364 -0.694,-0.635 -1.1,-0.757 -0.407,-0.121 -1.092,-0.504 -1.496,-0.624 -0.407,-0.123 -1.088,-0.397 -1.379,-0.458 -0.29,-0.06 -1.14,-0.185 -1.14,-0.185 0,0 0.181,-0.84 0.327,-0.9 0.145,-0.062 2.228,-0.887 2.521,-1.095 1.306,-0.939 1.497,-1.664 2.483,-2.515 0.861,-0.746 0.656,-0.395 1.323,-1.45 0.114,-0.178 0.558,-0.657 0.732,-0.657 0.172,0 0.771,-0.033 0.8,0.483 0.027,0.517 -1.337,1.698 -2.038,2.552 -0.581,0.705 -1.008,0.87 -1.327,1.353 -0.119,0.18 -0.956,0.789 -1.397,1.134 -0.117,0.089 -1.281,0.53 -1.281,0.53 0,0 2.263,0.591 2.566,0.782 0.746,0.47 1.306,1.094 1.452,1.93 0.085,0.488 0.32,1.137 0.119,1.771 C 0.992,-1.451 0.344,-0.191 0,0 M 9.65,-5.27 C 9.265,-4.726 8.346,-3.856 8.084,-3.754 7.818,-3.65 7.232,-3.421 6.846,-3.644 6.46,-3.868 6.248,-3.823 5.841,-4.277 5.433,-4.727 4.926,-4.789 4.91,-5.138 4.894,-5.486 4.471,-6.287 4.424,-6.35 L 3.999,-6.536 c 0,0 -0.201,0.451 -0.402,0.471 C 3.393,-6.043 2.855,-6.031 2.775,-6.455 2.691,-6.877 2.834,-7.09 3.144,-7.407 3.456,-7.727 4.008,-8.1 4.008,-8.1 c 0,0 -0.13,-0.364 -0.014,-0.963 0.12,-0.598 0.394,-1.433 0.822,-1.918 0.432,-0.485 0.903,-1.222 1.6,-1.313 0.696,-0.096 1.291,-0.072 1.68,-0.123 0.386,-0.055 1.072,-0.077 1.32,-0.036 0.248,0.042 0.515,0.155 0.549,0.517 0.036,0.359 -0.306,0.689 -0.77,0.754 -0.463,0.062 -1.614,-0.405 -2.14,-0.199 -0.526,0.207 -1.758,1.355 -1.857,1.631 -0.097,0.274 -0.017,0.916 -0.017,0.916 0,0 1.651,-1.216 2.712,-0.762 1.062,0.454 1.4,0.458 1.691,0.681 0.289,0.224 0.732,0.485 0.829,0.7 0.099,0.22 -0.008,0.466 -0.189,0.931 -0.179,0.465 -0.187,1.468 -0.574,2.014 m -0.1,-2.429 c 0,0 -0.344,-0.261 -0.897,-0.536 C 8.116,-8.5 7.471,-8.524 6.88,-8.453 6.29,-8.38 5.161,-7.524 5.161,-7.524 c 0,0 -0.07,0.598 0.119,0.722 0.187,0.126 0.684,1.038 0.903,1.365 0.22,0.33 0.438,0.564 0.824,0.788 0.387,0.225 0.811,-0.342 1.037,-0.469 0.229,-0.131 0.651,-0.443 1.023,-1.119 0.372,-0.68 0.483,-1.462 0.483,-1.462 m 14.924,3.403 c -0.432,0.496 -1.434,1.221 -1.713,1.27 -0.28,0.051 -0.903,0.164 -1.292,-0.166 -0.39,-0.326 -0.613,-0.328 -1.011,-0.908 -0.398,-0.576 -0.923,-0.755 -0.921,-1.133 0.002,-0.38 -0.464,-1.729 -0.507,-1.806 -0.044,-0.074 -0.364,0.094 -0.364,0.094 0,0 -0.233,0.441 -0.443,0.416 -0.212,-0.022 -0.774,-0.132 -0.835,-0.603 -0.063,-0.472 0.099,-0.669 0.438,-0.94 0.34,-0.268 0.937,-0.543 0.937,-0.543 0,0 -0.117,-0.42 0.038,-1.035 0.155,-0.616 0.484,-1.45 0.96,-1.87 0.476,-0.42 1.003,-1.103 1.734,-1.044 0.73,0.057 1.347,0.218 1.751,0.251 0.407,0.032 0.674,-0.1 0.93,0 0.257,0.104 0.527,0.284 0.543,0.679 0.015,0.397 -0.354,0.672 -0.843,0.633 -0.486,-0.038 -1.206,-0.536 -1.766,-0.437 -0.559,0.1 -1.739,0.557 -1.853,0.827 -0.116,0.272 -0.551,1.709 -0.551,1.709 0,0 2.1,-1.16 3.178,-0.432 1.08,0.728 1.429,0.812 1.719,1.117 0.289,0.304 0.735,0.686 0.824,0.941 0.091,0.258 0.315,0.573 0.104,1.031 -0.213,0.456 -0.628,1.453 -1.057,1.949 m 0.137,-2.407 c 0,0 -0.525,-0.637 -0.98,-1.166 -0.453,-0.525 -1.246,-0.412 -1.864,-0.471 -0.616,-0.054 -1.838,0.606 -1.838,0.606 0,0 -0.107,0.625 0.083,0.8 0.189,0.178 0.655,1.268 0.864,1.67 0.211,0.403 0.366,0.769 0.757,1.098 0.388,0.329 1.126,-0.109 1.367,-0.194 0.242,-0.086 0.61,-0.612 1.034,-1.253 0.424,-0.645 0.577,-1.09 0.577,-1.09 m 4.388,3.773 c -0.273,-0.045 -0.882,-0.341 -1.132,-0.645 -0.391,-0.469 -0.58,-0.945 -0.566,-1.408 0.012,-0.3 0.1,-1.325 0.798,-1.998 0.352,-0.342 0.486,-0.539 0.604,-0.712 l 0.204,-0.277 0.499,-0.502 c 0.28,-0.272 0.662,-0.643 0.714,-0.752 0.05,-0.107 0.094,-0.316 0.133,-0.498 l 0.103,-0.418 c 0.042,-0.111 0.042,-0.176 0.044,-0.266 l 0.013,-0.213 c 0.029,-0.206 0.038,-0.606 -0.147,-0.645 -0.328,-0.066 -0.973,-0.136 -1.6,0.111 l -0.122,0.044 c -0.605,0.238 -1.042,0.411 -1.257,0.896 -0.251,0.557 -0.399,0.705 -0.414,0.72 l -0.009,0.01 -0.011,0.007 c -0.161,0.091 -0.555,0.304 -0.712,0.274 -0.185,-0.037 -0.561,-0.379 -0.565,-0.686 0,-0.206 0.076,-0.308 0.232,-0.515 l 0.287,-0.399 c 0.372,-0.556 1.109,-0.963 1.514,-1.157 0.369,-0.175 1.824,-0.618 2.454,-0.46 l 0.187,0.044 c 0.53,0.124 1.032,0.242 1.215,0.995 0.157,0.654 0.118,1.017 0.094,1.237 l -0.012,0.123 c -0.008,0.208 -0.149,0.837 -0.43,1.147 l -0.35,0.422 c -0.278,0.346 -0.622,0.774 -0.928,1.065 -0.461,0.435 -1.011,1.15 -1.12,1.408 l -0.069,0.155 c -0.115,0.251 -0.247,0.534 -0.199,0.834 0.058,0.36 0.358,0.929 0.816,1.002 l 0.105,0.018 c 0.426,0.07 0.91,0.15 1.062,0.069 0.84,-0.444 0.974,-0.671 0.995,-0.73 L 31.5,-4.911 c 0.04,-0.187 0.075,-0.362 0.226,-0.428 0.147,-0.065 0.548,-0.15 0.67,0.016 l 0.208,0.355 v 0.005 c 0.022,0.062 0.21,0.617 -0.069,0.863 l -0.78,0.709 c -0.119,0.112 -0.904,0.509 -1.34,0.537 -0.419,0.029 -1.156,-0.038 -1.416,-0.076 M 6.371,0.49 6.257,0.235 5.856,-0.275 5.765,-0.481 C 5.754,-0.548 5.736,-0.647 5.495,-0.989 5.089,-1.565 4.93,-1.919 4.923,-1.935 4.901,-1.972 4.77,-2.216 4.77,-2.371 v -0.022 c 0.015,-0.198 0.095,-0.311 0.231,-0.34 L 5.09,-2.797 c 0.058,-0.051 0.13,-0.119 0.222,-0.095 0.082,0.018 0.157,0.101 0.231,0.181 l 0.075,0.078 c 0.098,0.068 0.191,0.229 0.191,0.45 l -0.001,0.016 c 0.098,0.17 0.357,0.624 0.386,0.737 l 0.084,0.09 0.123,0.141 0.097,0.12 0.069,0.08 c 0.035,0.008 0.105,0.031 0.124,0.125 L 6.78,-0.696 6.8,-0.723 6.944,-0.89 c 0.083,-0.078 0.184,-0.179 0.224,-0.267 0.081,-0.18 0.148,-0.235 0.223,-0.294 L 7.417,-1.47 c 0.015,-0.019 0.069,-0.138 0.112,-0.231 0.154,-0.336 0.278,-0.579 0.426,-0.635 0.16,-0.06 0.447,-0.139 0.564,0.002 0.063,0.081 0.169,0.271 0.181,0.376 l 0.004,0.034 c 0,0.11 -0.041,0.376 -0.152,0.445 -0.054,0.037 -0.396,0.362 -0.688,0.71 L 7.225,0.003 7.21,0.215 C 7.188,0.325 7.076,0.43 6.96,0.527 6.88,0.591 6.741,0.57 6.667,0.554 6.598,0.572 6.446,0.599 6.371,0.49 m 4.524,-3.55 c 0,0 -0.06,0.334 0.042,0.338 0.103,0.003 0.306,0.025 0.41,-0.006 0.101,-0.034 0.311,-0.169 0.361,-0.187 0.053,-0.014 0.292,0.008 0.297,-0.187 0.003,-0.195 0.073,-0.282 0.183,-0.547 0.109,-0.26 0.396,-0.859 0.402,-1.054 0.005,-0.195 0.055,-0.175 0.197,-0.42 0.142,-0.246 0.326,-0.792 0.369,-1.199 0.045,-0.408 0.286,-0.916 0.409,-1.765 0.124,-0.851 0.497,-1.294 0.497,-1.294 0,0 0.104,-0.086 0.107,-0.173 10e-4,-0.091 0.059,-0.319 0.059,-0.319 0,0 0.143,0.429 0.353,0.825 0.215,0.396 0.648,1.423 0.806,1.927 0.158,0.502 0.454,2.09 0.517,2.304 0.064,0.215 0.386,0.987 0.415,1.096 0.033,0.104 0.056,0.533 0.209,0.572 0.152,0.039 0.326,-0.063 0.464,-0.148 0.139,-0.085 0.328,-0.169 0.332,-0.346 0.005,-0.176 -0.039,-0.446 -0.155,-0.592 -0.116,-0.143 -0.368,-1.039 -0.491,-1.558 -0.125,-0.52 -0.26,-1.269 -0.466,-1.965 -0.203,-0.699 -0.672,-1.745 -0.672,-1.745 0,0 -0.058,-0.429 -0.154,-0.609 -0.098,-0.179 -0.25,-0.217 -0.315,-0.433 -0.061,-0.214 -0.121,-0.642 -0.236,-0.789 -0.116,-0.144 -0.313,-0.472 -0.344,-0.577 -0.032,-0.107 0.056,-0.229 -0.044,-0.34 -0.1,-0.108 -0.44,-0.135 -0.646,-0.032 -0.207,0.098 -0.484,0.199 -0.555,0.32 -0.071,0.124 0.008,0.408 0.092,0.464 0.086,0.059 0.06,0.269 0.037,0.481 -0.019,0.214 -0.336,0.542 -0.38,1.004 -0.046,0.46 -0.302,1.032 -0.326,1.334 -0.024,0.3 -0.395,1.481 -0.544,1.958 -0.148,0.475 -0.475,1.337 -0.5,1.638 -0.023,0.301 -0.305,0.649 -0.366,0.987 -0.057,0.333 -0.364,1.037 -0.364,1.037 m 33.677,0.606 c 0,0 -0.064,-1.406 -0.147,-1.74 -0.083,-0.333 -0.126,-0.997 -0.625,-1.007 -0.502,-0.011 -0.637,0.771 -0.399,1.239 0.24,0.47 0.307,0.852 0.307,0.852 0,0 -0.086,0.926 0.042,1.077 0.13,0.151 0.483,0.498 0.577,0.37 0.096,-0.128 0.245,-0.791 0.245,-0.791 m 9.315,-0.831 c -0.42,-0.012 -0.654,-0.404 -0.663,-0.418 l -0.01,-0.018 V -3.74 c -0.003,-0.032 -0.025,-0.797 -0.007,-1.066 0.004,-0.107 -0.037,-0.458 -0.087,-0.864 -0.068,-0.57 -0.152,-1.283 -0.164,-1.801 -0.019,-0.905 -0.21,-2.675 -0.29,-2.896 -0.09,-0.269 -0.045,-0.449 0.085,-0.726 0.142,-0.301 0.223,-0.374 0.694,-0.381 0.131,0 0.231,0.046 0.296,0.137 0.129,0.19 0.074,0.504 0.041,0.691 l -0.009,0.061 c -0.033,0.206 0.002,0.978 0.111,1.529 0.121,0.592 0.131,1.885 0.121,2.051 -0.01,0.159 0.07,0.52 0.232,0.636 0.201,0.144 0.364,0.331 0.476,0.556 0.08,0.158 0.2,0.206 0.444,0.301 l 0.293,0.12 0.456,0.218 c 0.209,0.106 0.375,0.187 0.531,0.227 0.23,0.062 0.525,-0.107 0.811,-0.466 0.101,-0.122 0.133,-0.38 0.134,-0.666 0.003,-0.255 -0.017,-0.533 -0.037,-0.769 l -0.026,-0.534 -0.051,-3.142 -0.107,-0.173 c -0.05,-0.074 -0.074,-0.16 -0.074,-0.253 l 0.01,-0.091 c 0.037,-0.188 0.17,-0.353 0.275,-0.413 0.163,-0.091 0.36,-0.201 0.52,-0.165 0.181,0.042 0.484,0.552 0.519,0.953 0.028,0.339 0.07,1.661 0.026,2.346 -0.013,0.197 0.011,0.56 0.039,0.98 l 0.06,1.34 c 0.003,0.721 -0.196,1.017 -0.39,1.303 l -0.127,0.195 c -0.259,0.428 -0.727,0.616 -1.192,0.755 -0.396,0.117 -0.634,0.014 -0.966,-0.132 L 55.434,-4.05 c -0.429,-0.147 -0.84,-0.392 -1.055,-0.527 0.059,0.151 0.128,0.329 0.128,0.329 l 0.012,0.116 c 0,0.217 -0.114,0.555 -0.155,0.647 l -0.016,0.041 c -0.064,0.154 -0.109,0.17 -0.461,0.159 m 9.242,4.084 -0.26,-0.063 C 62.434,0.629 62.147,0.156 61.897,-0.266 61.781,-0.459 61.672,-0.642 61.563,-0.756 61.229,-1.109 61.2,-1.872 61.171,-2.615 l -0.008,-0.208 -0.002,-0.176 c 0.01,-0.937 0.263,-3.309 0.294,-3.597 -0.244,-0.145 -0.799,-0.475 -0.891,-0.511 -0.148,-0.058 -0.307,-0.39 -0.36,-0.661 -0.015,-0.074 -0.024,-0.166 -0.022,-0.263 0.002,-0.279 0.083,-0.605 0.321,-0.679 0.26,-0.081 0.933,0.478 1.18,0.694 0.012,-0.502 0.071,-2.307 0.2,-2.819 0.075,-0.281 0.367,-1.368 0.426,-1.9 0.064,-0.558 0.123,-1.09 0.194,-1.283 0.113,-0.319 0.28,-0.483 0.411,-0.616 l 0.069,-0.067 0.066,-0.081 c 0.116,-0.15 0.29,-0.379 0.657,-0.03 0.352,0.329 0.38,0.357 0.33,0.644 l -0.015,0.093 c -0.034,0.2 -0.153,0.388 -0.289,0.603 -0.114,0.183 -0.244,0.389 -0.343,0.635 -0.211,0.512 -0.603,2.31 -0.638,2.714 -0.03,0.339 -0.067,2.134 -0.067,2.153 l 0.121,0.146 0.141,0.083 c 0.206,0.126 0.69,0.42 0.852,0.397 l 0.115,-0.017 c 0.448,-0.065 0.658,-0.082 0.722,-0.014 0.098,0.101 0.166,0.724 0.148,0.932 l -0.085,0.165 c -0.182,0.171 -0.638,0.282 -0.98,0.236 0,0 -1.043,-0.203 -1.302,-0.256 -0.014,0.127 -0.246,2.104 -0.246,2.104 -0.009,0.129 -0.014,0.258 -0.018,0.388 -0.002,0.403 0.032,0.808 0.06,1.151 0.024,0.301 0.22,0.75 0.391,1.149 l 0.24,0.603 c 0.097,0.335 1.123,0.463 1.343,0.424 0.185,-0.033 0.456,-0.115 0.673,-0.419 0.233,-0.324 0.421,-0.732 0.467,-1.017 l 0.033,-0.296 c 0.009,-0.156 0.021,-0.318 0.094,-0.61 0.102,-0.416 0.265,-0.387 0.438,-0.359 l 0.148,0.018 c 0.231,0 0.546,0.056 0.624,0.545 0.059,0.374 -0.06,0.851 -0.149,1.203 l -0.039,0.167 c -0.082,0.345 -0.667,1.252 -0.898,1.329 -0.1,0.034 -0.308,0.228 -0.508,0.412 -0.179,0.17 -0.365,0.341 -0.503,0.428 -0.268,0.172 -0.86,0.02 -1.437,-0.123 m 11.303,-4.563 -0.151,-0.015 c -0.188,0.05 -0.453,-0.1 -0.662,-0.368 l -0.066,-0.205 c 0.007,-0.2 0.187,-0.394 0.292,-0.51 l 0.058,-0.064 c 0.031,-0.05 0.112,-0.422 0.17,-0.744 l 0.172,-2.388 0.058,-0.849 c 0.031,-0.372 0.059,-0.756 0.061,-1.001 v -0.118 c -0.017,-0.287 -0.024,-0.544 -0.022,-0.774 0.007,-0.798 0.122,-1.262 0.348,-1.412 0.394,-0.266 0.523,-0.132 0.761,0.11 l 0.085,0.086 c 0.096,0.097 0.148,0.21 0.156,0.344 0.015,0.284 -0.176,0.544 -0.214,0.594 -0.031,0.064 -0.04,0.545 -0.043,0.898 -0.005,0.45 -0.011,0.92 -0.057,1.126 -0.086,0.385 0.058,2.014 0.058,2.03 0.037,0.244 -0.011,0.554 -0.052,0.825 -0.045,0.275 -0.089,0.56 -0.017,0.665 l 0.111,0.048 0.264,0.015 c 0.322,0.018 1.18,0.194 1.273,0.123 0.069,-0.054 0.2,-0.081 0.367,-0.116 0.222,-0.048 0.495,-0.107 0.64,-0.231 0.237,-0.197 0.403,-1.172 0.439,-2.121 0.029,-0.936 -0.036,-2.642 -0.036,-2.66 -0.015,-0.295 -0.054,-0.647 -0.089,-0.699 -0.105,-0.1 -0.088,-0.48 -0.048,-0.658 0.045,-0.187 0.109,-0.379 0.259,-0.408 l 0.04,-0.006 c 0.12,-0.023 0.319,-0.058 0.515,0.091 0.228,0.176 0.354,0.71 0.36,0.962 l 0.072,3.052 c 0.013,0.739 -0.128,1.428 -0.223,1.884 l -0.072,0.401 c -0.034,0.379 -0.564,1.209 -1.014,1.462 -0.359,0.201 -0.752,0.215 -1.099,0.225 l -0.445,0.032 c -0.39,0.065 -1.456,-0.372 -1.669,-0.414 -0.03,0.088 -0.212,0.602 -0.212,0.602 -0.09,0.255 -0.252,0.214 -0.368,0.186 m -32.134,-6.918 c -0.164,0.327 -0.473,2.963 -0.514,3.557 -0.034,0.597 0.032,3.304 -0.178,4.353 -0.211,1.052 -0.245,2.041 -0.245,2.041 0,0 0.357,1.574 0.308,1.784 -0.047,0.21 -0.394,0.384 -0.782,0.265 -0.39,-0.122 -0.35,-1.103 -0.54,-1.509 -0.191,-0.397 0.102,-1.298 0.146,-1.976 0.04,-0.684 0.08,-2.616 0.08,-2.616 -1.342,0.69 -2.635,0.388 -3.835,-0.571 -1.198,-0.964 -1.131,-3.78 -1.122,-4.508 0.013,-0.725 1.681,-2.629 2.831,-2.574 1.149,0.063 2.475,1.384 2.475,1.384 0,0 0.022,-0.802 0.183,-1.132 0.167,-0.328 0.358,-0.775 0.729,-0.867 0.364,-0.093 0.628,0.234 0.753,0.588 0.12,0.353 -0.127,1.455 -0.289,1.781 m -1.441,0.898 c -0.062,-0.173 -0.986,-1.194 -1.588,-1.333 -0.603,-0.137 -1.554,0.03 -1.925,0.298 -1.188,0.848 -0.673,2.852 -0.632,3.328 0.041,0.474 1.253,1.658 1.775,1.961 0.518,0.304 1.77,-0.352 1.77,-0.352 L 40.664,-6.1 c 0,0 -0.023,-0.459 -0.012,-0.67 0.054,-0.663 0.04,-1.135 0.124,-1.673 0.064,-0.379 0.14,-1.161 0.081,-1.341 m 30.099,5.688 c -0.092,-0.154 -0.111,-0.317 -0.111,-0.431 -0.479,0.351 -2.028,0.265 -2.626,0.135 -0.34,-0.073 -1.503,-0.525 -2.234,-3.304 -0.442,-1.688 -0.041,-3.034 1.171,-3.893 0.767,-0.541 1.575,-0.356 1.803,-0.286 l 1.3,0.313 0.204,-0.005 c 0.033,-0.056 0.149,-0.258 0.149,-0.502 0.002,-0.08 -0.01,-0.163 -0.041,-0.244 l -0.034,-0.18 0.034,-0.173 c 0.115,-0.321 0.526,-0.556 0.721,-0.609 l 0.134,0.032 c 0.101,0.1 0.117,0.349 0.136,0.639 l 0.053,0.464 c 0.102,0.406 0.139,2.485 0.111,3.259 -0.026,0.796 0.11,3.11 0.11,3.129 0,-0.006 0.247,0.969 0.32,1.156 l 0.014,0.151 c -0.031,0.104 -0.129,0.154 -0.268,0.223 l -0.252,0.145 c -0.202,0.147 -0.496,0.303 -0.694,-0.019 m -1.241,-6.395 c -0.135,-0.094 -1.748,-0.168 -2.422,0.351 -0.671,0.521 -0.571,1.569 -0.503,2.181 0.069,0.616 0.857,1.514 1.018,1.708 0.164,0.195 1.311,0.779 1.732,0.743 0.422,-0.033 1.094,-0.705 1.094,-0.705 l 0.07,-0.967 c 0,0 -0.016,-0.64 -0.051,-1.347 -0.031,-0.709 -0.802,-1.872 -0.938,-1.964 m 0.992,0.229 z M 83.488,2.772 C 83.323,2.742 83.201,2.658 83.127,2.527 83.058,2.404 83.036,2.255 83.037,2.104 83.041,1.913 83.077,1.719 83.106,1.568 L 83.139,1.351 C 83.14,1.227 83.097,1.043 83.053,0.862 L 82.969,0.457 82.94,-0.008 c -0.034,-0.536 -0.085,-1.348 -0.131,-1.578 -0.062,-0.306 -0.2,-1.77 -0.225,-2.049 -0.232,-0.009 -0.727,-0.027 -0.824,-0.004 l -0.153,0.066 c -0.213,0.103 -0.532,0.26 -0.818,0.163 -0.319,-0.108 -0.33,-0.394 -0.34,-0.724 l -0.016,-0.297 c -0.009,-0.104 0.01,-0.186 0.058,-0.245 0.098,-0.124 0.297,-0.111 0.506,-0.096 0.161,0.012 0.329,0.022 0.445,-0.028 0.292,-0.126 0.75,-0.126 0.902,-0.123 -0.01,-0.131 -0.072,-1.215 -0.072,-1.215 l -0.159,-2.418 c -0.027,-0.134 -0.248,-1.228 -0.245,-1.779 0.003,-0.101 0.011,-0.183 0.026,-0.238 l 0.067,-0.261 c 0.062,-0.276 0.13,-0.587 0.314,-0.703 0.085,-0.054 0.185,-0.059 0.3,-0.013 0.283,0.115 0.499,0.434 0.497,0.755 0,0.193 -0.029,0.389 -0.05,0.542 l -0.016,0.128 -0.007,0.124 c -0.004,0.491 0.133,1.798 0.189,2.323 l 0.021,0.187 c 0.04,0.395 0.334,2.336 0.366,2.552 l 0.308,0.114 0.433,-0.107 c 0.054,-0.085 0.319,-0.472 0.53,-0.5 0.239,-0.036 0.439,0.202 0.49,0.332 0.017,0.046 0.02,0.125 0.02,0.218 -0.003,0.187 -0.027,0.421 -0.035,0.484 l -0.002,0.029 -0.526,0.477 c -0.17,0.172 -0.866,0.245 -1.08,0.264 0.006,0.108 0.031,0.5 0.031,0.5 0.002,0.122 0.222,2.582 0.326,2.927 0.107,0.338 0.181,1.078 0.178,1.416 l -0.003,0.099 0.032,0.264 c 0.027,0.166 0.061,0.378 0.061,0.579 -0.003,0.183 -0.034,0.356 -0.131,0.475 -0.117,0.144 -0.459,0.19 -0.719,0.14 M 47.571,-3.603 c -0.267,-0.051 -0.82,-0.153 -1.086,-0.579 l -0.219,-0.307 c -0.155,-0.199 -0.289,-0.372 -0.433,-0.811 -0.085,-0.261 -0.204,-0.467 -0.312,-0.649 -0.144,-0.249 -0.263,-0.447 -0.2,-0.664 0.084,-0.307 0.003,-1.59 -0.013,-1.673 -0.018,-0.003 -0.14,-0.003 -0.259,0.014 -0.059,0.057 -0.325,0.305 -0.511,0.211 -0.188,-0.096 -0.606,-0.357 -0.604,-0.774 l 0.008,-0.082 c 0.066,-0.486 0.3,-0.604 0.627,-0.719 0.314,-0.111 0.765,-0.16 0.882,-0.169 0.008,-0.123 0.049,-0.453 0.279,-0.854 0.142,-0.244 0.647,-1.061 1.271,-1.325 l 0.285,-0.133 c 0.445,-0.21 0.949,-0.449 1.458,-0.214 l 0.92,0.498 0.505,0.277 0.384,0.126 c 0.159,0.042 0.293,0.076 0.411,0.178 0.285,0.251 0.39,0.519 0.321,0.827 -0.032,0.142 -0.111,0.255 -0.228,0.329 -0.182,0.113 -0.443,0.11 -0.7,-0.01 -0.169,-0.078 -0.352,-0.235 -0.544,-0.401 -0.272,-0.237 -0.556,-0.481 -0.836,-0.534 -0.537,-0.099 -1.583,-0.056 -1.715,0.105 -0.125,0.153 -0.593,0.879 -0.78,1.163 0.456,-0.054 2.051,-0.179 2.706,0.677 l 0.771,0.938 c 0.207,0.239 0.332,0.384 0.43,0.581 l 0.146,0.282 c 0.161,0.302 0.326,0.615 0.339,0.818 l 0.015,0.136 c 0.012,0.085 0.025,0.18 0.023,0.278 -0.002,0.179 -0.043,0.373 -0.207,0.557 l -0.154,0.177 c -0.316,0.368 -0.794,0.924 -1.205,1.172 -0.472,0.285 -1.499,0.605 -1.775,0.554 m -1.385,-4.458 0.025,0.123 c 0.085,0.157 0.177,0.714 0.257,1.208 l 0.092,0.523 0.03,0.151 c 0.068,0.357 0.128,0.664 0.343,1.006 0.192,0.309 0.716,0.273 0.997,0.254 l 0.164,-0.008 c 0.216,0.002 0.675,-0.365 1.132,-0.738 0.428,-0.353 0.651,-0.638 0.704,-0.71 -0.03,-0.077 -0.536,-1.269 -0.536,-1.269 -0.195,-0.446 -0.65,-0.633 -1.088,-0.816 l -0.351,-0.151 c -0.464,-0.223 -1.511,-0.085 -1.637,-0.068 -0.064,0.138 -0.132,0.345 -0.132,0.495"
             style="fill:#595954;fill-opacity:1;fill-rule:nonzero;stroke:none"
             id="path33063"
             inkscape:connector-curvature="0" /></g><g
           id="g33065"
           transform="translate(153.4274,718.2837)"><path
             d="M 0,0 C -0.429,-0.389 -0.625,-0.81 -0.607,-1.287 -0.58,-2 0.03,-2.743 0.391,-3.123 L 0.617,-3.36 C 1.17,-3.934 2.091,-4.89 2.169,-5.369 2.265,-5.942 2.111,-6.638 1.967,-6.807 1.886,-6.9 1.464,-7.358 0.984,-7.292 c -0.477,0.065 -1.29,0.399 -1.336,0.595 -0.036,0.15 -0.026,0.309 -0.017,0.477 l 0.004,0.333 c -0.009,0.224 -0.119,0.461 -0.276,0.593 -0.103,0.086 -0.051,0.18 -0.17,0.168 -0.355,-0.042 -0.848,-0.373 -0.815,-0.802 0.056,-0.713 0.243,-1.613 0.812,-1.843 l 0.234,-0.098 c 0.552,-0.225 1.123,-0.46 1.54,-0.475 0.965,-0.035 1.656,0.306 2.06,1.011 0.651,1.132 0.461,2.05 -0.04,2.65 -0.249,0.297 -0.379,0.531 -0.495,0.74 -0.133,0.24 -0.247,0.45 -0.505,0.693 L 1.604,-2.92 C 1.26,-2.632 0.963,-2.38 0.817,-1.957 l -0.122,0.326 c -0.131,0.344 -0.153,0.421 -0.056,0.578 0.143,0.237 0.731,0.633 0.836,0.613 0.189,-0.032 0.856,-0.106 1.033,-0.295 0.215,-0.226 0.568,-0.87 0.88,-0.931 0.329,-0.06 0.67,0.101 0.738,0.375 0.068,0.272 -0.254,0.673 -0.587,0.852 L 3.541,-0.441 C 3.502,-0.418 2.655,0.433 2.048,0.545 1.456,0.659 0.298,0.271 0,0"
             style="fill:#595954;fill-opacity:1;fill-rule:nonzero;stroke:none"
             id="path33067"
             inkscape:connector-curvature="0" /></g><g
           id="g33069"
           transform="translate(91.8464,705.3172)"><path
             d="m 0,0 c -0.24,-0.039 -0.625,-0.204 -0.747,-0.395 -0.121,-0.191 -0.237,-0.451 -0.184,-0.631 0.055,-0.184 0.196,-0.334 0.344,-0.624 0.151,-0.289 0.403,-0.434 0.602,-0.421 0.195,0.012 0.81,0.443 0.814,0.72 0.007,0.276 0.031,0.622 -0.048,0.826 C 0.704,-0.324 0,0 0,0"
             style="fill:#595954;fill-opacity:1;fill-rule:nonzero;stroke:none"
             id="path33071"
             inkscape:connector-curvature="0" /></g><g
           id="g33073"
           transform="translate(123.5591,703.4735)"><path
             d="M 0,0 -0.079,-0.111 C -0.242,-0.318 -0.641,-1.276 -0.658,-1.316 L -0.66,-1.323 V -1.33 c -0.005,-0.053 -0.024,-0.54 0.036,-0.672 0.088,-0.185 0.683,0.041 0.69,0.044 0.173,0.064 0.314,0.706 0.33,0.781 -0.002,-0.01 0.16,0.238 0.497,0.483 0.202,0.146 0.315,0.41 0.283,0.655 C 1.147,0.17 1.018,0.328 0.81,0.401 0.378,0.555 0.151,0.222 0,0"
             style="fill:#595954;fill-opacity:1;fill-rule:nonzero;stroke:none"
             id="path33075"
             inkscape:connector-curvature="0" /></g><g
           id="g33077"
           transform="translate(147.5275,703.1726)"><path
             d="M 0,0 C 0,0 0.023,0.4 -0.012,0.568 -0.04,0.706 0.716,1.374 0.892,1.357 1.067,1.341 1.321,1.24 1.585,0.97 1.848,0.698 1.89,0.492 1.664,0.104 1.437,-0.283 1.248,-0.234 1.038,-0.325 0.829,-0.411 0.494,-0.523 0,0"
             style="fill:#595954;fill-opacity:1;fill-rule:nonzero;stroke:none"
             id="path33079"
             inkscape:connector-curvature="0" /></g><g
           id="g33081"
           transform="translate(78.5961,706.6565)"><path
             d="M 0,0 C -0.071,-0.084 -0.09,-0.286 -0.086,-0.509 -0.079,-0.798 -0.032,-1.12 0,-1.273 0.054,-1.536 0.098,-1.931 0.102,-2.188 v -0.105 -0.05 c 0.008,-0.308 -0.05,-0.315 0.056,-0.985 0,0 0.414,-2.735 0.46,-3.027 C 0.532,-6.381 0.044,-6.532 -0.079,-6.626 -0.212,-6.734 -0.301,-7.105 -0.305,-7.12 l -0.003,-0.015 0.009,-0.014 c 0.006,-0.007 0.149,-0.204 0.382,-0.374 0.208,-0.152 0.564,-0.039 0.676,0.003 0.017,-0.1 0.079,-0.453 0.169,-0.671 0.099,-0.238 0.38,-2.756 0.434,-3.323 l 0.036,-0.814 c 0.001,-0.076 0.001,-0.151 0.002,-0.223 0.005,-0.195 0.014,-0.365 0.039,-0.491 0.024,-0.126 0.107,-0.233 0.239,-0.315 0.181,-0.11 0.401,-0.138 0.51,-0.103 0.239,0.082 0.394,0.206 0.461,0.369 l 0.02,0.144 c -0.004,0.168 -0.069,0.404 -0.117,0.577 l -0.04,0.162 c -0.004,0.088 -0.195,2.075 -0.399,2.914 -0.192,0.792 -0.122,2.267 -0.129,2.403 l 0.451,0.183 c 0.262,0.109 0.777,0.29 1.145,0.338 0.368,0.046 0.966,-0.172 1.116,-0.332 L 4.92,-6.912 C 5.207,-7.177 5.641,-7.577 5.819,-7.866 5.974,-8.12 6.046,-8.661 6.111,-9.138 L 6.215,-9.79 c 0.112,-0.444 0.034,-1.743 -0.029,-2.151 L 6.08,-12.479 c -0.046,-0.21 -0.083,-0.378 -0.078,-0.469 0.013,-0.19 0.414,-0.451 0.534,-0.504 0.158,-0.073 0.625,0.166 0.767,0.305 0.094,0.096 0.073,0.227 0.042,0.426 l -0.045,0.566 0.083,0.825 c 0.057,0.431 -0.082,0.916 -0.085,1.397 -0.004,0.907 -0.139,1.79 -0.36,2.361 C 6.682,-6.91 6.371,-6.42 6.011,-6.199 5.632,-5.971 4.909,-5.585 4.481,-5.443 4.098,-5.314 3.578,-5.399 2.981,-5.551 2.571,-5.658 1.987,-5.868 1.785,-5.935 1.812,-5.803 1.662,-5.463 1.654,-5.088 1.65,-4.969 1.64,-4.856 1.616,-4.759 l -0.254,1.191 c -0.047,0.161 0.101,-0.445 0.096,-0.128 -0.01,0.349 0,0.735 0.005,1.04 l 0.005,0.481 -0.061,0.429 C 1.364,-1.475 1.31,-1.15 1.306,-0.9 l 0.004,0.168 0.005,0.111 C 1.307,-0.267 1.08,0.067 0.844,0.218 0.595,0.38 0.147,0.172 0,0"
             style="fill:#595954;fill-opacity:1;fill-rule:nonzero;stroke:none"
             id="path33083"
             inkscape:connector-curvature="0" /></g><g
           id="g33085"
           transform="translate(88.6282,701.4197)"><path
             d="M 0,0 C -0.156,-0.078 -0.43,-0.238 -0.5,-0.442 -0.533,-0.536 -0.533,-0.706 -0.533,-0.92 L -0.551,-1.489 C -0.586,-1.883 -0.703,-3.79 -0.643,-4.448 l 0.022,-0.231 c 0.07,-0.735 0.198,-2.099 0.171,-2.305 -0.026,-0.202 -0.016,-0.594 0.177,-0.781 0.104,-0.1 0.244,-0.131 0.418,-0.093 0.602,0.131 0.716,0.338 0.7,0.606 L 0.77,-6.788 C 0.718,-6.507 0.658,-6.192 0.658,-5.977 L 0.639,-5.072 C 0.62,-4.223 0.591,-3.058 0.61,-2.876 l 0.01,0.102 c 0.031,0.357 0.13,1.44 0.236,1.627 0.121,0.218 0.195,0.638 -0.033,0.846 -0.213,0.198 -0.78,0.298 -0.804,0.303 l -0.01,0.003 z"
             style="fill:#595954;fill-opacity:1;fill-rule:nonzero;stroke:none"
             id="path33087"
             inkscape:connector-curvature="0" /></g><g
           id="g33089"
           transform="translate(102.7197,699.7693)"><path
             d="m 0,0 c -0.016,-0.013 -0.442,-0.388 -0.396,-0.786 0.03,-0.25 0.2,-0.265 0.326,-0.275 0.104,-0.01 0.163,-0.019 0.18,-0.089 0.027,-0.106 0.096,-0.639 0.169,-1.207 0.081,-0.649 0.167,-1.324 0.214,-1.552 0.036,-0.169 0.05,-0.448 0.067,-0.742 0.024,-0.463 0.052,-1.135 0.161,-1.357 0.19,-0.39 0.826,-0.355 1.023,-0.301 l 0.111,0.101 c 0.052,0.099 0.073,0.265 0.069,0.465 -0.007,0.261 -0.061,0.777 -0.154,1.077 -0.148,0.473 -0.201,0.929 -0.256,1.409 L 1.466,-2.85 c -0.078,0.614 -0.138,2.308 -0.141,2.409 l 0.366,0.317 C 1.832,0.016 2.39,0.233 2.927,0.314 3.287,0.369 3.448,0.171 3.591,-0.002 L 3.798,-0.2 C 4.037,-0.332 4.314,-0.288 4.574,-0.082 4.81,0.105 4.827,0.294 4.858,0.611 L 4.871,0.742 C 4.908,1.082 4.429,1.151 4.144,1.195 L 3.963,1.229 3.901,1.249 C 3.717,1.311 3.441,1.403 2.905,1.37 2.368,1.336 1.461,1.088 1.299,1.044 1.283,1.151 1.192,1.666 1.101,1.813 0.993,1.983 0.35,2.131 0.103,2.041 -0.156,1.951 -0.204,1.546 -0.137,1.184 -0.072,0.849 -0.001,0.005 0,-0.002 Z"
             style="fill:#595954;fill-opacity:1;fill-rule:nonzero;stroke:none"
             id="path33091"
             inkscape:connector-curvature="0" /></g><g
           id="g33093"
           transform="translate(111.8249,701.1133)"><path
             d="m 0,0 c -0.217,-0.067 -0.423,-0.077 -0.606,-0.083 -0.246,-0.012 -0.44,-0.018 -0.523,-0.175 -0.122,-0.233 -0.749,-0.643 -0.817,-0.67 -0.032,-0.013 -0.225,0.008 -0.399,0.035 -0.006,0.077 -0.041,0.412 -0.21,0.509 -0.194,0.111 -0.669,0.337 -0.898,0.046 -0.104,-0.136 -0.149,-0.258 -0.146,-0.392 0.004,-0.14 0.059,-0.295 0.15,-0.492 0.156,-0.332 0.47,-0.774 0.517,-0.838 -0.055,-0.055 -0.238,-0.263 -0.325,-0.692 -0.027,-0.144 -0.085,-0.491 -0.076,-0.884 0.006,-0.285 -0.229,-0.773 -0.116,-1.05 0.072,-0.175 0.108,-0.451 0.147,-0.742 0.077,-0.572 0.289,-1.445 0.683,-1.687 l 1.1,-0.659 0.83,-0.252 c 0.21,-0.128 0.603,-0.132 0.921,-0.135 0.187,-0.001 0.684,0.061 0.767,0.035 0.337,-0.102 0.562,-0.05 0.694,0.166 L 1.72,-7.797 C 1.676,-7.615 1.4,-7.453 1.109,-7.28 l -0.144,0.086 c -0.169,0.104 -0.874,0.128 -1.267,0.217 -0.531,0.121 -1.296,0.142 -1.519,0.346 -0.368,0.341 -0.623,1.995 -0.629,2.3 v 0.025 c 0.004,0.193 0.347,0.93 0.371,1.138 0.209,-0.292 1.131,-1.518 2.112,-1.612 l 1.088,-0.143 c 0.285,-0.045 0.457,-0.072 0.638,-0.051 l 0.27,0.029 c 0.289,0.026 0.587,0.055 0.713,0.149 l 0.093,0.059 c 0.163,0.101 0.366,0.227 0.364,0.582 v 0.227 C 3.2,-3.47 3.203,-2.779 3.068,-2.307 2.907,-1.739 2.382,-0.724 2.186,-0.541 1.993,-0.362 1.539,0.055 1.11,0.051 L 0.77,0.072 C 0.547,0.093 0.355,0.115 0,0 m 1.959,-3.798 c 0,0 -0.261,-0.166 -0.796,-0.267 -0.536,-0.098 -1.14,0.275 -1.638,0.569 -0.496,0.295 -1.203,1.379 -1.203,1.379 0,0 0.138,0.464 0.345,0.479 0.208,0.011 0.95,0.473 1.257,0.622 0.301,0.151 0.536,0.057 0.951,0.063 0.417,0.005 0.484,-0.425 0.641,-0.61 0.156,-0.186 0.285,-0.613 0.386,-1.262 0.1,-0.643 0.057,-0.973 0.057,-0.973"
             style="fill:#595954;fill-opacity:1;fill-rule:nonzero;stroke:none"
             id="path33095"
             inkscape:connector-curvature="0" /></g><g
           id="g33097"
           transform="translate(116.8315,701.332)"><path
             d="m 0,0 -0.005,-0.009 -0.002,-0.009 c -0.002,-0.035 -0.069,-0.825 -0.064,-1.106 0.002,-0.114 -0.06,-0.475 -0.129,-0.894 -0.1,-0.591 -0.224,-1.325 -0.261,-1.866 -0.066,-0.942 -0.298,-2.5 -0.388,-2.73 -0.104,-0.261 -0.068,-0.443 0.047,-0.733 0.126,-0.317 0.196,-0.39 0.663,-0.43 0.126,-0.009 0.222,0.028 0.286,0.113 0.133,0.172 0.096,0.492 0.073,0.684 l -0.007,0.068 c -0.024,0.219 -0.007,0.748 0.136,1.323 0.151,0.605 0.23,1.941 0.227,2.116 -0.002,0.173 0.104,0.559 0.283,0.674 0.208,0.131 0.378,0.311 0.504,0.532 0.094,0.167 0.232,0.212 0.485,0.294 l 0.303,0.105 0.466,0.188 c 0.223,0.097 0.398,0.171 0.562,0.202 0.246,0.049 0.546,-0.155 0.825,-0.556 0.188,-0.271 0.098,-1.001 0.033,-1.533 L 3.981,-4.114 3.918,-7.133 3.794,-7.324 C 3.725,-7.415 3.7,-7.528 3.717,-7.651 c 0.026,-0.198 0.161,-0.37 0.247,-0.428 0.155,-0.106 0.344,-0.234 0.501,-0.207 0.179,0.03 0.5,0.525 0.553,0.927 0.045,0.312 0.023,1.186 0.008,1.765 l -0.008,0.422 c -0.003,0.207 0.041,0.583 0.09,1.019 l 0.133,1.39 c 0.038,0.742 -0.14,1.047 -0.327,1.369 l -0.12,0.211 C 4.557,-0.729 4.096,-0.502 3.632,-0.322 3.244,-0.173 2.998,-0.263 2.659,-0.385 L 2.216,-0.532 C 1.721,-0.67 1.237,-0.933 1.05,-1.043 c 0.057,0.131 0.182,0.416 0.182,0.416 l 0.017,0.171 C 1.242,-0.25 1.167,0.039 1.128,0.152 L 1.111,0.197 C 1.062,0.343 1.033,0.363 0.673,0.377 0.259,0.393 0.01,0.016 0,0"
             style="fill:#595954;fill-opacity:1;fill-rule:nonzero;stroke:none"
             id="path33099"
             inkscape:connector-curvature="0" /></g><g
           id="g33101"
           transform="translate(125.5784,701.2712)"><path
             d="m 0,0 c -0.428,-0.384 -0.625,-0.805 -0.601,-1.285 0.032,-0.717 0.659,-1.476 1.029,-1.864 L 0.659,-3.388 C 1.235,-3.981 2.2,-4.974 2.286,-5.474 2.391,-6.078 2.238,-6.786 2.081,-6.968 1.997,-7.065 1.559,-7.539 1.044,-7.467 c -0.476,0.07 -1.576,0.501 -1.634,0.735 -0.038,0.155 -0.032,0.32 -0.024,0.497 l 0.004,0.336 c -0.012,0.21 -0.117,0.439 -0.262,0.569 -0.101,0.091 -0.216,0.132 -0.334,0.12 -0.341,-0.036 -0.835,-0.365 -0.798,-0.777 0.063,-0.721 0.259,-1.628 0.829,-1.862 l 0.25,-0.104 c 0.563,-0.232 1.536,-0.5 1.957,-0.52 0.976,-0.044 1.673,0.292 2.075,0.996 0.651,1.141 0.737,2.183 0.225,2.783 -0.261,0.308 -0.398,0.551 -0.518,0.768 -0.139,0.242 -0.258,0.455 -0.518,0.704 l -0.388,0.34 c -0.36,0.301 -0.669,0.56 -0.828,1.004 l -0.129,0.336 c -0.13,0.336 -0.17,0.436 -0.06,0.615 0.157,0.26 0.379,0.26 0.498,0.238 0.195,-0.036 0.661,-0.174 0.853,-0.376 0.22,-0.231 0.69,-0.6 1.005,-0.664 0.317,-0.061 0.876,0.145 0.94,0.406 0.064,0.264 -0.26,0.663 -0.592,0.841 v 0 C 3.554,-0.458 2.572,0.126 1.954,0.248 1.367,0.365 0.292,0.264 0,0"
             style="fill:#595954;fill-opacity:1;fill-rule:nonzero;stroke:none"
             id="path33103"
             inkscape:connector-curvature="0" /></g><g
           id="g33105"
           transform="translate(99.8182,707.0482)"><path
             d="m 0,0 c -0.188,-0.187 -0.214,-0.622 -0.207,-0.951 0.003,-0.133 0.012,-0.251 0.017,-0.324 l 0.005,-0.063 c 0.003,-0.158 -0.15,-0.968 -0.274,-1.622 l -0.104,-0.553 c -0.128,-0.69 -0.226,-2.569 -0.225,-2.753 L -2.531,-6.23 C -3.185,-6.271 -3.504,-6.829 -3.988,-7.38 L -4.429,-7.867 C -5.13,-8.609 -4.943,-9.873 -4.92,-11.034 l 0.01,-0.518 c 0.033,-1.516 1.707,-1.92 1.779,-1.935 0.486,-0.113 1.22,0.093 1.748,0.286 0.47,0.17 0.845,0.75 0.951,0.928 0.037,-0.079 0.097,-0.224 0.103,-0.314 l -0.01,-0.137 -0.011,-0.171 c 0.002,-0.075 0.015,-0.153 0.056,-0.235 0.103,-0.206 0.449,-0.399 0.689,-0.435 0.225,-0.032 0.47,0.152 0.623,0.473 0.043,0.084 0.056,0.203 0.052,0.345 -0.004,0.184 -0.037,0.406 -0.07,0.636 l -0.069,0.571 c -0.016,0.277 -0.138,0.858 -0.266,1.475 -0.12,0.576 -0.211,1.148 -0.266,1.574 -0.018,0.126 -0.027,0.262 -0.03,0.407 -0.011,0.473 0.043,1.013 0.088,1.468 0.034,0.343 0.028,0.669 0.024,0.867 L 0.479,-5.7 0.473,-5.552 c -0.014,0.609 0.044,1.966 0.108,2.218 0.073,0.294 0.366,1.722 0.41,2.034 l 0.093,0.329 c 0.041,0.114 0.077,0.214 0.076,0.326 L 1.145,-0.54 C 1.088,-0.292 0.707,0.005 0.091,0.084 -0.02,0.101 0.075,0.074 0,0 m -0.736,-8.006 c 0.02,-0.343 -0.024,-0.348 0.013,-0.979 0.036,-0.631 -0.148,-2.08 -0.466,-2.709 -0.315,-0.627 -0.876,-1.006 -1.604,-1.081 -0.73,-0.073 -0.77,0.609 -0.965,0.891 -0.193,0.277 -0.153,0.915 -0.147,1.229 0.007,0.319 0.021,1.395 0.147,1.824 0.126,0.432 0.679,0.942 0.937,1.275 0.258,0.334 0.949,0.354 1.219,0.452 0.273,0.096 0.775,-0.169 0.775,-0.169 0.011,-0.342 0.072,-0.39 0.091,-0.733"
             style="fill:#595954;fill-opacity:1;fill-rule:nonzero;stroke:none"
             id="path33107"
             inkscape:connector-curvature="0" /></g><g
           id="g33109"
           transform="translate(92.3063,705.7562)"><path
             d="M 0,0 0.029,-0.039 C 0.161,-0.208 0.38,-0.496 0.376,-0.767 L 0.372,-0.863 C 0.365,-1.16 0.355,-1.563 0.433,-2.143 L 0.555,-2.899 C 0.702,-3.747 0.921,-5.016 0.94,-5.943 L 0.943,-6.019 C 0.968,-7.321 1.002,-9.107 0.855,-9.777 0.692,-10.521 0.612,-10.964 0.633,-11.325 l 0.027,-0.276 c 0.034,-0.285 0.07,-0.607 -0.079,-0.689 -0.205,-0.113 -0.579,-0.259 -0.765,-0.199 -0.214,0.068 -0.46,0.279 -0.5,0.58 l -0.011,0.151 v 0.019 c -0.004,0.248 0.059,0.463 0.107,0.605 0.059,0.174 0.296,2.378 0.285,3.62 l -0.003,0.096 -0.003,0.116 -0.146,2.301 -0.062,0.871 c -0.019,0.311 -0.108,0.705 -0.195,1.084 -0.088,0.394 -0.173,0.762 -0.179,1.031 l 0.002,0.104 -0.107,0.403 -0.164,0.591 -0.033,0.202 v 0.012 c -0.003,0.315 0.164,0.659 0.279,0.739 C -0.744,0.149 -0.115,0.148 0,0"
             style="fill:#595954;fill-opacity:1;fill-rule:nonzero;stroke:none"
             id="path33111"
             inkscape:connector-curvature="0" /></g><g
           id="g33113"
           transform="translate(75.2629,704.1794)"><path
             d="M 0,0 C 0,0 -0.606,0.91 -2.532,-0.007 -4.461,-0.923 -4.41,-1.199 -4.514,-1.424 -4.616,-1.649 -5.07,-2.888 -5.099,-3.21 c -0.025,-0.326 0.01,-2.135 0.529,-3.192 0.522,-1.058 1.469,-2.827 1.975,-3.161 0.506,-0.338 0.917,-0.769 2.201,-0.175 1.284,0.593 1.616,0.824 1.756,1.406 0.142,0.58 0.491,1.406 0.556,1.746 0.066,0.34 0.442,0.605 0.588,0.561 0.145,-0.042 0.444,-0.41 0.521,-0.718 0.078,-0.307 -0.461,-1.971 -1.022,-2.755 -0.56,-0.783 -1.28,-1.349 -2.078,-1.607 -0.797,-0.258 -2.488,-0.475 -3.457,0.605 -0.968,1.08 -1.842,2.407 -2.347,4.231 -0.504,1.824 -0.494,3.76 -0.143,4.506 0.351,0.748 1.001,1.937 1.517,2.181 0.515,0.243 1.616,0.995 2.255,1.055 0.644,0.062 1.303,0.346 1.689,0.039 C -0.173,1.205 0.26,1.232 0.404,0.719 0.55,0.204 0.458,-0.122 0.014,-0.047"
             style="fill:#595954;fill-opacity:1;fill-rule:nonzero;stroke:none"
             id="path33115"
             inkscape:connector-curvature="0" /></g><g
           id="g33117"
           transform="translate(132.606,703.8934)"><path
             d="m 0,0 c 0,0 -0.013,1.044 0.383,1.253 0.399,0.209 0.153,0.33 0.755,-0.19 0.599,-0.519 0.119,-1.367 0.177,-1.565 0.057,-0.2 0.252,-1.049 0.361,-2.43 0.109,-1.385 0.566,-2.507 0.566,-2.507 l 1.145,-3.874 c 0,0 0.667,1.557 0.968,2.557 0.299,1.004 0.342,2.126 0.544,2.722 0.2,0.597 0.55,1.74 0.623,2.093 0.074,0.352 0.159,1.347 0.159,1.347 0,0 0.315,0.228 0.612,0.155 0.296,-0.076 0.84,-0.551 0.901,-0.812 0.059,-0.262 0.044,-0.812 0.044,-0.812 0,0 0.699,-1.954 1.099,-3.195 0.401,-1.24 0.793,-2.473 0.986,-2.737 0.194,-0.265 0.55,-0.66 0.55,-0.66 0,0 0.865,1.683 0.971,2.981 0.107,1.296 0.223,3.352 0.288,4.077 0.054,0.612 -0.002,1.914 0.032,2.349 0.02,0.271 0.273,1.042 0.949,0.657 0.678,-0.386 0.584,-0.596 0.517,-1.227 -0.067,-0.63 -0.104,-1.181 -0.199,-1.712 -0.095,-0.529 -0.084,-1.752 -0.256,-2.416 -0.174,-0.667 -0.242,-1.856 -0.261,-2.222 -0.02,-0.366 -0.348,-1.47 -0.47,-2.09 -0.12,-0.616 -0.266,-1.367 -0.34,-1.686 -0.073,-0.319 -0.38,-0.653 -0.569,-0.606 -0.188,0.046 -0.609,-0.159 -0.971,0.487 -0.362,0.645 -1.013,1.641 -1.349,2.34 -0.336,0.7 -1.703,4.656 -1.703,4.656 0,0 -0.387,-1.546 -0.617,-2.012 C 5.663,-5.544 5.531,-6.603 5.36,-7.267 5.185,-7.932 4.808,-9.386 4.629,-9.741 4.45,-10.096 4.341,-10.732 4.347,-11.01 c 0.005,-0.281 -0.063,-0.792 -0.602,-0.716 -0.535,0.074 -0.738,0.233 -0.801,0.712 -0.065,0.48 -0.082,0.136 -0.334,0.722 -0.254,0.588 -1.091,2.929 -1.188,3.693 -0.096,0.763 -0.854,3.695 -0.917,4.11 C 0.443,-2.071 0,0 0,0"
             style="fill:#595954;fill-opacity:1;fill-rule:nonzero;stroke:none"
             id="path33119"
             inkscape:connector-curvature="0" /></g><g
           id="g33121"
           transform="translate(147.2685,700.6893)"><path
             d="M 0,0 C 0,0 0.057,0.997 0.79,1.061 1.524,1.125 1.513,0.588 1.524,0.418 1.533,0.245 1.486,-0.128 1.335,-0.601 1.186,-1.073 1.106,-1.462 1.133,-2.074 1.159,-2.685 1.032,-3.347 1.129,-4.142 1.227,-4.937 1.135,-5.995 1.216,-6.349 1.298,-6.705 1.699,-7.397 1.11,-7.533 c -0.88,-0.201 -1.223,0.437 -1.171,0.592 0.048,0.16 0.044,0.677 0.062,0.975 0.017,0.299 -0.245,1.557 -0.144,2.488 0.1,0.931 0.204,1.466 0.262,2.094 C 0.175,-0.758 0,0 0,0"
             style="fill:#595954;fill-opacity:1;fill-rule:nonzero;stroke:none"
             id="path33123"
             inkscape:connector-curvature="0" /></g><g
           id="g33125"
           transform="translate(151.9112,702.747)"><path
             d="m 0,0 c -0.325,-0.191 -0.84,-0.614 -1.01,-0.779 -0.185,-0.176 -0.515,-0.736 -0.576,-1.12 -0.096,-0.6 -0.039,-1.104 0.17,-1.492 0.132,-0.249 0.623,-1.07 1.421,-1.281 0.37,-0.1 0.562,-0.241 0.731,-0.365 0.103,-0.077 0.199,-0.149 0.316,-0.194 l 0.573,-0.167 c 0.298,-0.08 0.749,-0.198 0.828,-0.263 0.077,-0.061 0.193,-0.211 0.295,-0.343 l 0.25,-0.298 C 3.07,-6.371 3.094,-6.418 3.132,-6.491 L 3.231,-6.664 C 3.329,-6.807 3.424,-7.008 3.42,-7.133 3.418,-7.172 3.406,-7.201 3.383,-7.226 3.169,-7.445 2.725,-7.829 2.164,-7.938 L 2.059,-7.961 C 1.516,-8.069 1.125,-8.147 0.772,-7.858 0.356,-7.516 0.183,-7.466 0.165,-7.462 L 0.154,-7.461 H 0.143 c -0.157,-0.002 -0.534,-0.021 -0.64,-0.13 -0.128,-0.133 -0.269,-0.619 -0.134,-0.9 0.089,-0.185 0.199,-0.238 0.399,-0.331 L 0.141,-9.01 c 0.506,-0.279 1.217,-0.246 1.595,-0.2 0.343,0.039 1.597,0.405 1.995,0.856 l 0.119,0.128 c 0.331,0.363 0.672,0.733 0.491,1.479 -0.153,0.631 -0.334,0.92 -0.442,1.093 l -0.058,0.096 c -0.095,0.172 -0.462,0.637 -0.804,0.754 l -0.426,0.175 c -0.348,0.151 -0.78,0.333 -1.126,0.422 -0.503,0.124 -1.247,0.58 -1.441,0.746 l -0.116,0.096 c -0.183,0.147 -0.389,0.313 -0.471,0.569 -0.102,0.32 -0.114,0.924 0.185,1.21 l 0.08,0.074 c 0.282,0.272 0.601,0.575 0.743,0.586 0.631,0.042 1.214,-0.314 1.292,-0.391 l 0.164,-0.194 c 0.106,-0.136 0.213,-0.274 0.358,-0.253 0.118,0.019 0.47,0.145 0.496,0.368 l 0.008,0.412 -0.002,0.006 c -0.005,0.026 -0.101,0.65 -0.432,0.72 L 1.485,-0.059 C 1.353,-0.028 0.337,0.2 0,0"
             style="fill:#595954;fill-opacity:1;fill-rule:nonzero;stroke:none"
             id="path33127"
             inkscape:connector-curvature="0" /></g><g
           id="g33129"
           transform="translate(158.2214,706.212)"><path
             d="M 0,0 C -0.217,-0.22 -0.22,-0.629 -0.202,-0.776 L -0.2,-0.798 c 0.02,-0.16 -0.013,-1.673 -0.044,-1.98 -0.031,-0.319 -0.071,-1.638 -0.052,-1.919 0.018,-0.26 -0.072,-0.743 -0.09,-0.834 -0.056,-0.007 -0.241,-0.036 -0.311,-0.07 -0.098,-0.05 -0.221,-0.215 -0.188,-0.483 l 0.01,-0.063 c 0.057,-0.285 0.375,-0.311 0.472,-0.311 -0.005,-0.055 -0.133,-1.819 -0.133,-1.819 -0.015,-0.152 -0.018,-0.662 -0.021,-1.202 -0.003,-0.586 -0.005,-1.191 -0.025,-1.438 -0.02,-0.268 -0.088,-0.593 -0.149,-0.877 l -0.109,-0.591 c -0.004,-0.042 -0.004,-0.079 0,-0.115 0.037,-0.294 0.345,-0.424 0.522,-0.454 0.179,-0.029 0.508,0.198 0.804,0.366 0.233,0.13 0.208,0.708 0.182,1.268 l -0.011,0.682 c 0.037,0.614 -0.004,2.466 -0.04,2.966 -0.033,0.452 0.073,1.496 0.082,1.59 0.088,0.034 1.02,0.378 1.209,0.431 0.192,0.056 1.071,0.304 1.282,0.275 0.203,-0.025 0.676,-0.318 0.886,-0.548 0.214,-0.234 0.506,-1.185 0.541,-1.568 0.028,-0.294 -0.184,-2.637 -0.285,-3.523 L 4.27,-11.597 c -0.015,-0.201 -0.069,-0.424 -0.17,-0.686 -0.03,-0.076 0.01,-0.173 0.113,-0.282 0.194,-0.204 0.725,-0.315 0.897,-0.243 0.257,0.106 0.31,0.476 0.327,0.825 0.011,0.22 0.074,0.6 0.131,0.935 l 0.084,0.558 c 0.021,0.246 0.178,3.134 0.109,3.619 -0.068,0.461 -0.415,1.37 -0.656,1.708 -0.249,0.346 -1.119,0.532 -2.12,0.648 -0.94,0.107 -2.002,-0.474 -2.26,-0.582 0.022,0.091 0.172,0.707 0.172,0.707 l 0.058,0.537 0.002,0.023 0.006,0.301 c 0.002,0.426 0.006,1.762 0.099,2.087 l 0.116,0.454 c 0.048,0.216 0.088,0.383 0.151,0.494 0.027,0.049 0.082,0.168 0.065,0.297 C 1.391,-0.163 1.382,-0.128 1.367,-0.092 1.288,0.09 1.069,0.218 0.715,0.289 0.477,0.334 0.133,0.134 0,0"
             style="fill:#595954;fill-opacity:1;fill-rule:nonzero;stroke:none"
             id="path33131"
             inkscape:connector-curvature="0" /></g><g
           id="g33133"
           transform="translate(88.7802,705.3417)"><path
             d="m 0,0 c -0.24,-0.038 -0.629,-0.202 -0.75,-0.395 -0.123,-0.192 -0.239,-0.454 -0.185,-0.633 0.056,-0.184 0.197,-0.335 0.346,-0.628 0.15,-0.292 0.404,-0.436 0.602,-0.422 0.197,0.012 0.815,0.444 0.818,0.721 0.009,0.278 0.033,0.626 -0.047,0.831 C 0.706,-0.324 0,0 0,0"
             style="fill:#595954;fill-opacity:1;fill-rule:nonzero;stroke:none"
             id="path33135"
             inkscape:connector-curvature="0" /></g></g></g></g></svg>