<svg width="146.51" height="97.217" version="1.1" viewBox="0 0 146.51 97.217" xmlns="http://www.w3.org/2000/svg">
	<g>
		<path d="m30.458 36.67c-0.02406-0.05213-2.1694-5.6882-1.2672-12.447 1.2391-9.2472 10.532-24.754 37.508-24.209 33.506 0.67569 46.765 22.364 46.897 22.583l0.0501 0.08622 0.0922-0.03007c0.0742-0.02607 7.7374-2.5444 15.802-1.995 12.934 0.88622 16.936 11.142 16.972 11.288-8e-3 -0.01604-0.11027-0.03609-0.11027-0.03609l-0.42707-0.05815c-0.27068 0.01203-0.46918-0.04411-0.62156-0.17644-12.088-10.222-25.518-5.4777-31.252-3.4546-1.1248 0.399-2.1895 0.77594-2.3278 0.65564l-1.1729-1.1088c-3.5047-3.3845-12.369-12.648-23.302-15.429l-0.62356-0.15639c-12.034-3.0657-21.536-5.4857-37.484 1.3474-4.5293 1.9348-12.335 6.5785-13.738 15.954-0.45915 3.0697 0.01403 6.5985 1.4035 10.482 0.46918 1.3153 1.7544 2.5063 2.3739 3.3925 0.35489 0.50126 0.84411 1.193 0.7579 1.3053-0.03208 0.03809-0.25063 0.11429-1.7744-0.5193-4.2887-1.7925-14.739-1.5639-21.736 3.6271-5.2471 3.8917-7.6251 9.6642-6.8772 16.7 0.85013 7.976 8.2146 13.823 18.284 15.537 1.979 0.33685 3.5609 0.43309 4.7158 0.49925 0.93233 0.0561 1.7343 0.10226 1.8145 0.26667 0.01403 0.0301-0.01203 0.0962-0.06817 0.17644-0.2005 0.76592-0.66567 3.3604 1.0045 6.1193 1.7724 2.9273 5.3133 5.0426 10.53 6.2938 5.608 1.3353 11.777 0 13.025-0.49724 0.25063-0.0982 0.69374-0.2386 0.82206 2e-3 0.15639 0.28872-0.13434 0.99249-0.42907 1.203-0.07218 0.0501-7.8557 4.7298-18.988 2.5825-11.447-2.2055-14.184-10.394-14.829-13.817l-0.02005-0.0922-0.09624-4e-3c-10.424-0.36696-22.633-8.2286-24.652-15.868-1.6622-6.3098-0.96241-18.751 7.986-25.257 9.3033-6.7649 21.502-4.8 21.624-4.78l0.21053 0.03208z" fill="#53c8eb"/>
	</g>
</svg>
