<svg width="266.09" height="128" version="1.1" viewBox="0 0 266.09 128" xmlns="http://www.w3.org/2000/svg">
	<g fill="#53c8eb">
		<path d="m30.459 66.415c-0.02406-0.05213-2.1694-5.6882-1.2672-12.447 1.2391-9.2472 10.532-24.754 37.508-24.209 33.506 0.67569 46.765 22.364 46.897 22.583l0.0501 0.08622 0.0922-0.03007c0.0742-0.02607 7.7374-2.5444 15.802-1.995 12.934 0.88622 16.936 11.142 16.972 11.288-8e-3 -0.01604-0.11027-0.03609-0.11027-0.03609l-0.42707-0.05815c-0.27068 0.01203-0.46918-0.04411-0.62156-0.17644-12.088-10.222-25.518-5.4777-31.252-3.4546-1.1248 0.399-2.1895 0.77594-2.3278 0.65564l-1.1729-1.1088c-3.5047-3.3845-12.369-12.648-23.302-15.429l-0.62356-0.15639c-12.034-3.0657-21.536-5.4857-37.484 1.3474-4.5293 1.9348-12.335 6.5785-13.738 15.954-0.45915 3.0697 0.01403 6.5985 1.4035 10.482 0.46918 1.3153 1.7544 2.5063 2.3739 3.3925 0.35489 0.50126 0.84411 1.193 0.7579 1.3053-0.03208 0.03809-0.25063 0.11429-1.7744-0.5193-4.2887-1.7925-14.739-1.5639-21.736 3.6271-5.2471 3.8917-7.6251 9.6642-6.8772 16.7 0.85013 7.976 8.2146 13.823 18.284 15.537 1.979 0.33685 3.5609 0.43309 4.7158 0.49925 0.93233 0.0561 1.7343 0.10226 1.8145 0.26667 0.01403 0.0301-0.01203 0.0962-0.06817 0.17644-0.2005 0.76592-0.66567 3.3604 1.0045 6.1193 1.7724 2.9273 5.3133 5.0426 10.53 6.2938 5.608 1.3353 11.777 0 13.025-0.49724 0.25063-0.0982 0.69374-0.2386 0.82206 2e-3 0.15639 0.28872-0.13434 0.99249-0.42907 1.203-0.07218 0.0501-7.8557 4.7298-18.988 2.5825-11.447-2.2055-14.184-10.394-14.829-13.817l-0.02005-0.0922-0.09624-4e-3c-10.424-0.36696-22.633-8.2286-24.652-15.868-1.6622-6.3098-0.96241-18.751 7.986-25.257 9.3033-6.7649 21.502-4.8 21.624-4.78l0.21053 0.03208z"/>
	</g>
	<g fill="#595954">
		<g>
			<path d="m125.67 6.7192c-0.62958 0.22456-1.618-0.01203-3.1439 0.30075-1.5358 0.31078-3.8998 1.3935-3.8998 1.3935s-0.40101-5.3233-0.36492-6.0552c0.0321-0.72181-0.24662-1.3333-1.1709-2.1895-0.92431-0.85815-1.8105 1.8366-1.8105 1.8366l-1.7043 6.0752-5.2953 1.3073s-1.3434 0.5995-1.7123 0.49724c-0.37294-0.10827-0.95038 0.33684-1.1469 0.88622-0.19248 0.54336 0.3168 2.0231 1.1368 2.9233 0.82607 0.89223 3.8276 2.1955 3.8276 2.1955s-0.63559 6.1755-1.3193 7.4847c-0.68371 1.3233-1.7464 3.3684-1.4236 4.5614 0.32481 1.191 2.0431-0.13835 2.0572-0.49524 0.016-0.36491 1.6802-2.7509 2.8732-3.8897 1.191-1.1489 3.198-3.5328 3.198-3.5328s3.3263 0.35689 4.2687 0.84612c0.94036 0.50326 2.787 2.2155 3.5308 1.9489 0.73384-0.26466 0.55539-0.91228 0.55539-0.91228s0.59149 0.02807 0.6777-0.4792c0.0902-0.51328-0.56942-2.5323-1.189-3.9739-0.61754-1.4396-1.4516-2.807-1.4516-2.807s1.5298-2.4521 1.983-3.3303c0.45314-0.8782 4.3288-4.0501 4.1965-4.9524-0.12832-0.90627-2.0371 0.14035-2.6727 0.3609"/>
			<path d="m97.595 19.178c-0.16642-0.16842-0.44511-0.29474-0.50526-0.2787-0.09223 0.02206-0.2807-0.03208-0.36892-0.01604-0.11429-8e-3 -0.21654-2e-3 -0.24662 6e-3 -0.65163 0.11228-1.2451 0.09424-1.7945 0.42707-0.20852 0.12632-0.8782 0.17444-1.1469 0.34085-0.26667 0.16642-0.74787 0.40501-1.0165 0.56542-0.38496 0.2386-0.98446 0.47519-2.0973 1.1569-0.55138 0.33484-2.7749 1.8045-3.3063 2.1293-2.0391 1.2371-5.6822 4.2948-6.0171 4.6496-0.34286 0.34887-1.2191 1.0907-1.9228 1.7263-3.3765 2.9754-5.8587 6.4361-8.6316 10.059-0.26667 0.34887-0.53534 0.70777-0.80802 1.0627-0.79198 1.0887-1.3995 2.5925-1.9749 3.5449-0.401 0.64762-0.74186 1.0947-0.9203 1.3414-6e-3 0.01403-0.22456 0.57544-0.29674 0.76191-0.07619 0.18446-0.02005 0.15439-0.09624 0.35689-0.14236 0.23659-0.27268 0.46717-0.399 0.69374-0.08622 0.13233-0.21654 0.80201-0.2406 0.86015-0.10226 0.17043-0.27669 0.21654-0.35489 0.39298-2e-3 4e-3 -0.01002 0.01203-0.01203 0.02005-0.13233 0.21454-1.0065 2.0973-1.0065 2.0973l-0.2406 0.33684-8e-3 0.01002c-0.02607 0-0.65564 1.1368-0.65564 1.1368-0.12632 0.32481-0.28872 0.81203-0.28872 0.81203l-0.21456 0.36694c8e-3 -0.07218-0.42105 0.8381-0.79599 1.6501 0.07619-0.24461-0.51328 1.1589-0.60351 1.3614l-0.29073 0.77594c-0.11629 0.28672-0.05814 0.33283 0.0381 0.33484 0.24862 0.01203 0.97444-1.1248 1.0386-1.201 0 0 0.12431-0.25464 0.1584-0.31479 0.65364-1.1549 1.2191-1.9268 1.8466-2.9855 0.01805-0.09223 0.18446-0.26466 0.18446-0.26466l1.201-1.9208c0.15238-0.27068 0.57945-0.83409 0.57945-0.83409l0.54336-0.98647s2.2155-3.202 2.8211-4.004c1.2271-1.612 2.4682-3.178 3.7975-4.7479 0.80201-0.9584 2.2536-2.6085 2.5223-2.8912 0.26867-0.28471 3.3564-3.5148 5.1509-5.0166 8.78-7.3424 13.638-10.049 13.726-10.121 0.09223-0.07018 0.67369-0.3589 0.81003-0.48522 0.13835-0.12832 0.99449-0.92431 1.602-1.181 1.4917-0.63359 0.42105-1.7905 0.2406-1.7283"/>
			<path fill="#fd0" d="m123.07 10.747c-0.30276 0.58346-2.4822 3.6231-2.8431 3.994-0.36291 0.36491-1.0566 1.211-0.67368 1.7845 0.38696 0.57344 1.1729 0.05815 1.1729 0.05815s1.3875 1.2812 1.6501 2.2597c0.26266 0.97244 0.69173 2.1273 0.69173 2.1273s-1.3133-1.4296-2.4602-1.8546c-1.1549-0.41905-3.6973-1.2832-4.2988-0.94436-0.60351 0.32882-1.582 0.5574-1.8847 1.1389-0.30075 0.58547-2.9574 3.5629-3.4506 3.8577-0.50125 0.30075-0.90426 0.08421-0.90426 0.08421s1.2531-3.8937 1.983-5.4657c0.73183-1.5679 0.43709-2.6546-0.56943-3.3644-0.99649-0.71379-1.7865-0.66166-2.6847-1.4095-0.89625-0.74988-1.3694-1.6501-1.3694-1.6501s2.3198 0.4792 4.0762-0.2787c1.7624-0.74587 3.5188-1.4917 3.5188-1.4917s1.4777-3.5048 1.4957-3.8657c0.014-0.36692 0.71379 0.93033 0.87419 1.9449 0.15038 1.0125 0.65364 2.8531 1.602 2.5143 0.94436-0.34085 2.5544-0.79599 3.2602-1.1709 0.70777-0.37494 2.3719-0.60953 2.3719-0.60953s-1.2572 1.7584-1.5579 2.3419"/>
		</g>
		<g>
			<path d="m162.57 24.933c-0.0662 1.2632 6.777 4.2105 7.5629 5.0446 0.77393 0.84411 5.3955 3.986 5.3955 3.986s0.97645 2.4602 0.24662 4.806c-0.73384 2.3539-1.4937 7.6191-2.1173 9.3895-0.22256 0.60552 1.0526 1.0145 1.0526 1.0145s-0.17645 0.12231 0.93834-0.04812c1.1208-0.17444 4.9684-4.9303 6.2837-6.2537 1.3293-1.3273 3.0035-5.1108 4.1464-6.2296 1.1529-1.1208 3.3564 1.0326 5.2672 1.7063 1.9028 0.66166 3.6351 1.2351 4.0361 1.3694 0.91028 0.31679 2.779 1.5579 3.2341 0.75188 0.44912-0.8-0.88422-3.9018-1.6441-5.2311-0.87018-1.5278-2.3058-8.6076-2.3058-8.6076s2.4541-3.6351 4.7178-6.0271c1.4035-1.4757 2.9694-3.9679 2.6105-4.5474-0.36091-0.58747-1.2411-2.1153-1.7825-1.7203-0.53534 0.40702-4.9905 2.805-4.9905 2.805l-5.5359 1.7223-4.401-9.2431s-1.6461-2.9434-2.9053-1.1509c-1.2431 1.7925-1.584 2.801-1.4376 3.7434 0.14235 0.94035-1.2872 9.2953-1.2872 9.2953s-5.187 0.38095-7.4908 1.0587c-2.2897 0.66968-3.5689 0.34887-4.5474 0.4812-0.97043 0.12832-4.9845 0.61755-5.0466 1.8847"/>
			<path d="m160.36 34.188c-0.32481-0.10627-0.15639-0.64161-0.46717-0.70376-0.0983-0.37895-0.66767-0.66166-0.76993-0.68973-0.14837-0.04411-0.30075-0.08622-0.44712-0.13233-0.15639-0.10827-0.31077-0.17845-0.3589-0.18847-1.0446-0.37494-1.9749-0.43509-3.0617-0.41303-0.41504 0.01203-1.584-0.36692-2.0632-0.34486-0.45113 0.02406-0.93233 0.05013-1.4657 0.06015-0.76591 0.02206-2.1233-0.28872-4.3409-0.2386-1.0947 0.03408-5.1549 0.19248-6.2076 0.22055-4.0662 0.09624-12.227 1.7885-13.027 2.009-0.80201 0.22256-2.7308 0.56742-4.3168 0.89223-7.5188 1.4657-14.196 3.9218-21.398 6.8191-0.69374 0.2787-1.3955 0.5594-2.0993 0.84411-1.9629 0.85013-3.6812 1.8627-5.5439 2.8351-0.8381 0.42707-2.0973 1.0767-2.9133 1.4356-0.01604 4e-3 -0.86617 0.39098-1.1469 0.59349-0.28271 0.20251-0.17444 0.21454-0.46918 0.43308-0.42707 0.22456-0.82807 0.45514-1.217 0.66968-0.24461 0.12632-1.0687 0.50326-1.1549 0.57344-0.30075 0.15439-0.68171 0.52532-0.9564 0.71579-0.01203 8e-3 -0.02807 0.01604-0.04211 0.02406-0.38496 0.19048-2.4461 1.4677-2.5724 1.582-0.2005 0.13033-0.38496 0.27268-0.55539 0.41103-0.08421 0.06015-0.17644 0.12431-0.26466 0.18647h-4e-3l-0.65163 0.29474-0.01604-4e-3c-0.0401-0.01805-1.5118 0.73985-1.5118 0.73985l-0.4812 0.35489c-0.48522 0.36491-1.6521 1.1589-1.6521 1.1589l-0.68973 0.37694c0.08622-0.10426-1.4396 0.90627-2.791 1.8165 0.3589-0.29875-2.1835 1.2952-2.2176 1.3594-0.03409 0.07218 0.31479-0.03409-0.01805 0.19449l-1.185 0.93233c-0.46116 0.33484-0.88421 0.65163-1.4055 1.0045-0.39499 0.31078-1.205 0.90226-1.1629 1.0346 0.0401 0.13233 0.2807 0.03609 0.69975-0.20451 0.42306-0.24461 1.5699-0.96442 1.5739-0.81404 2e-3 0.14837 2.5203-1.3494 2.6847-1.4075 0 0 0.4391-0.27068 0.54136-0.34486 2.0952-1.1749 3.6832-1.8687 5.6381-2.9273 0.11629-0.13233 0.18647-0.25063 0.41303-0.33083l0.5213-0.16842 1.2792-0.73384 2.2075-1.0246c0.47519-0.27669 1.6-0.7178 1.6-0.7178l1.6862-0.97644 3.2882-1.4216c1.61-0.68572 2.9855-1.3935 4.5634-2.0291 3.202-1.2892 6.8451-2.9694 10.153-4.1243 2.007-0.70376 5.5599-1.8647 6.2035-2.0511 0.63759-0.18647 7.972-2.1855 11.89-2.9173 19.842-3.6973 28.58-2.9173 28.78-2.9454 0.19649-0.02807 1.2932 0.03809 1.604-0.02807 0.31278-0.07018 3.212-0.10627 4.3328-0.2005 1.5539-0.14637 1.193-1.4396 0.98446-1.4897"/>
			<path fill="#fd0" d="m170.44 25.81c0.20451-0.75188 2.2697-1.0867 3.4346-1.0947 1.1589-0.01203 4.9424-1.1208 6.4902-1.3634 1.5378-0.23659 2.7589-2.2115 2.8672-3.7574 0.11027-1.5679-0.0842-6.6346 0.38697-7.7775 0.47118-1.1429 5.4837 9.1629 5.4837 9.1629s1.6882-0.0421 4.1744-0.9604c2.7649-1.0145 5.8767-2.4862 5.8767-2.4862s-0.50326 1.2551-1.8085 3.0035c-1.3133 1.7404-2.39 2.388-3.8677 4.1644-1.4857 1.7744-1.7985 3.5348-0.44111 5.203 0.82206 1.0085 3.0396 7.3344 2.8552 6.2577-0.11829-0.69173-0.37895 1.0306-1.201 0.98647-0.82407-0.04411-4.6296-2.6707-5.187-3.2662-0.56341-0.5995-2.9694-1.0005-3.9358-0.18847-0.81003 0.6797-3.3684 5.2672-5.0306 7.3263-1.4697 1.8266-3.8136 5.3995-3.6191 4.397 0.19248-0.9985 0.49724-1.8566 0.77795-3.4446 0.28471-1.584 0.6797-7.174 0.6797-7.174s1.3073 0.13233 1.8426-0.96842c0.52933-1.1128-0.61955-2.1815-1.2431-2.4201-0.62757-0.24862-6.1033-3.6191-6.6567-4.2226-0.56341-0.58747-2.0932-0.63359-1.8787-1.3774"/>
		</g>
	</g>
	<g fill="#595954">
		<g>
			<path d="m88.167 103.9s-1.215-1.8246-5.0767 0.014c-3.8677 1.8366-3.7654 2.39-3.974 2.8411-0.20451 0.45113-1.1148 2.9354-1.1729 3.581-0.05013 0.65364 0.02005 4.2807 1.0607 6.4 1.0466 2.1213 2.9454 5.6682 3.9599 6.3379 1.0145 0.67769 1.8386 1.5419 4.413 0.35087 2.5744-1.189 3.2401-1.6521 3.5208-2.819 0.28471-1.1629 0.98446-2.8191 1.1148-3.5008 0.13233-0.68171 0.88622-1.213 1.179-1.1248 0.29073 0.0842 0.89023 0.82206 1.0446 1.4396 0.15639 0.61554-0.92431 3.9519-2.0491 5.5238-1.1228 1.5699-2.5664 2.7048-4.1664 3.2221-1.598 0.51729-4.9885 0.95238-6.9314-1.213-1.9409-2.1654-3.6932-4.8261-4.7058-8.4832-1.0105-3.6572-0.99048-7.5389-0.28672-9.0346 0.70376-1.4998 2.007-3.8837 3.0416-4.373 1.0326-0.48722 3.2401-1.995 4.5213-2.1153 1.2912-0.12432 2.6125-0.69374 3.3865-0.0782s1.6421 0.56141 1.9308 1.59c0.29273 1.0326 0.10827 1.6862-0.78196 1.5358"/>
			<path d="m94.851 98.934c-0.14236 0.16842-0.18045 0.57344-0.17243 1.0206 0.01403 0.57945 0.10827 1.2251 0.17243 1.5318 0.10827 0.52732 0.19649 1.3193 0.20451 1.8346v0.31078c0.01604 0.61754-0.10025 0.63158 0.11228 1.9749 0 0 0.83008 5.4837 0.92231 6.0692-0.17243 0.0521-1.1509 0.35489-1.3975 0.54336-0.26667 0.21654-0.44511 0.9604-0.45314 0.99048l-6e-3 0.0301 0.01805 0.0281c0.01203 0.014 0.29875 0.40903 0.76592 0.74988 0.41704 0.30476 1.1308 0.0782 1.3554-6e-3 0.03408 0.20051 0.1584 0.90828 0.33885 1.3454 0.1985 0.4772 0.76191 5.5258 0.87018 6.6627l0.07218 1.6321c2e-3 0.15238 2e-3 0.30276 4e-3 0.44712 0.01003 0.39098 0.02807 0.73183 0.0782 0.98446 0.04812 0.25264 0.21454 0.46717 0.4792 0.63159 0.36291 0.22055 0.80401 0.27669 1.0226 0.20651 0.4792-0.16441 0.78998-0.41303 0.92432-0.73985l0.0401-0.28872c-8e-3 -0.33685-0.13835-0.81003-0.23459-1.1569l-0.0802-0.32481c-8e-3 -0.17644-0.39098-4.1604-0.8-5.8426-0.38496-1.588-0.24461-4.5454-0.25865-4.8181l0.90426-0.36692c0.52532-0.21855 1.5579-0.58146 2.2957-0.6777 0.73785-0.0922 1.9368 0.34487 2.2376 0.66567l0.44913 0.42105c0.57544 0.53133 1.4456 1.3333 1.8025 1.9128 0.31078 0.50928 0.45514 1.594 0.58547 2.5504l0.20852 1.3073c0.22456 0.89023 0.0682 3.4948-0.0582 4.3128l-0.21253 1.0787c-0.0922 0.42105-0.16642 0.7579-0.15639 0.94035 0.0261 0.38096 0.83008 0.90427 1.0707 1.0105 0.31679 0.14637 1.2531-0.33283 1.5378-0.61153 0.18847-0.19248 0.14637-0.45514 0.0842-0.85414l-0.0902-1.1348 0.16642-1.6541c0.11429-0.86416-0.16441-1.8366-0.17043-2.801-8e-3 -1.8186-0.27869-3.589-0.7218-4.7338-0.51329-1.3273-1.1368-2.3098-1.8587-2.7529-0.7599-0.45714-2.2095-1.2311-3.0677-1.5158-0.76792-0.25865-1.8105-0.0882-3.0075 0.21654-0.82206 0.21454-1.993 0.63559-2.398 0.76993 0.05414-0.26466-0.24662-0.94637-0.26266-1.6982-8e-3 -0.2386-0.02807-0.46517-0.07619-0.65966l-0.50928-2.388c-0.09424-0.32281 0.20251 0.89223 0.19248 0.25664-0.02005-0.69975 0-1.4737 0.01002-2.0852l0.01002-0.96442-0.12231-0.86015c-0.08622-0.54336-0.19449-1.195-0.20251-1.6962l8e-3 -0.33684 0.01002-0.22256c-0.01604-0.70978-0.47118-1.3795-0.94436-1.6822-0.49925-0.32481-1.3975 0.09223-1.6922 0.43709"/>
			<path d="m115.27 101.57c-0.4812 0.0762-1.2612 0.40501-1.5038 0.79198-0.24662 0.38496-0.4792 0.91028-0.37093 1.2692 0.11228 0.36892 0.39499 0.67168 0.69374 1.2592 0.30075 0.58546 0.81002 0.87419 1.207 0.84612 0.39499-0.0241 1.6341-0.89023 1.6401-1.4456 0.0181-0.5574 0.0662-1.2552-0.0942-1.6662-0.15639-0.40502-1.5719-1.0546-1.5719-1.0546m-0.30476 7.8637c-0.31278 0.15639-0.86216 0.4772-1.0025 0.88622-0.0662 0.18847-0.0662 0.52933-0.0662 0.9584l-0.0361 1.1409c-0.0702 0.78998-0.30476 4.6136-0.18446 5.9328l0.0441 0.46316c0.14035 1.4737 0.397 4.2085 0.34286 4.6216-0.0521 0.40502-0.0321 1.191 0.35489 1.5659 0.20852 0.2005 0.48922 0.26266 0.8381 0.18647 1.207-0.26266 1.4356-0.6777 1.4035-1.215l-0.15038-0.93033c-0.10426-0.56341-0.22456-1.195-0.22456-1.6261l-0.0381-1.8146c-0.0381-1.7023-0.0962-4.0381-0.0581-4.403l0.02-0.20451c0.0622-0.71579 0.26065-2.8872 0.47319-3.2622 0.2426-0.43709 0.39097-1.2792-0.0662-1.6962-0.42707-0.39699-1.5639-0.59749-1.612-0.60752l-0.02-6e-3z"/>
			<path d="m121.46 100.51c-0.38671-9e-3 -0.7866 0.0469-0.95703 0.16016-0.23057 0.1604-0.56656 0.85084-0.56054 1.4824v0.0234l0.0293 0.18164c-0.0158 0.0199-0.0437 0.0383-0.0566 0.0586-0.24261 0.38296-0.4754 0.90277-0.36914 1.2637 0.11028 0.36892 0.39271 0.6705 0.68945 1.252 0.10869 0.20801 0.24795 0.3638 0.39454 0.4961 0.0675 0.43248 0.16143 0.9029 0.27734 1.4219 0.17444 0.75991 0.35253 1.5503 0.39062 2.1738l0.125 1.7461 0.29297 4.6133 6e-3 0.23242 6e-3 0.19336c0.0221 2.4902-0.45397 6.9089-0.57226 7.2578-0.0962 0.28471-0.22091 0.71565-0.21289 1.2129v0.0391l0.0215 0.30274c0.0802 0.60351 0.57288 1.0258 1.002 1.1621 0.37294 0.1203 1.1222-0.17187 1.5332-0.39844 0.29874-0.16441 0.22832-0.80943 0.16015-1.3809l-0.0547-0.55469c-0.0421-0.72381 0.11849-1.6118 0.44531-3.1035 0.29474-1.3434 0.2259-4.9246 0.17578-7.5352l-6e-3 -0.15234c-0.0381-1.8587-0.47675-4.4033-0.77149-6.1035l-0.24609-1.5156c-0.072-0.53516-0.10021-0.97824-0.11523-1.377 1e-3 -0.14109 4.5e-4 -0.27305-8e-3 -0.40625-2e-3 -0.28174-3e-3 -0.56533 2e-3 -0.7832l8e-3 -0.19141c8e-3 -0.54336-0.43065-1.1221-0.69531-1.4609l-0.0586-0.0781c-0.11528-0.14837-0.48828-0.22315-0.875-0.23242z"/>
			<path d="m137.4 98.148c-0.37694 0.37494-0.42907 1.2471-0.41504 1.9068 6e-3 0.26667 0.0241 0.50326 0.0341 0.64963l0.01 0.12632c6e-3 0.31679-0.30075 1.9408-0.54937 3.2521l-0.20852 1.1088c-0.25665 1.3835-0.45314 5.1509-0.45113 5.5198l-3.4948-0.0722c-1.3113 0.0822-1.9509 1.201-2.9213 2.3058l-0.88421 0.97644c-1.4055 1.4877-1.0306 4.0221-0.98447 6.3499l0.02 1.0386c0.0662 3.0396 3.4226 3.8496 3.5669 3.8797 0.97444 0.22657 2.4461-0.18646 3.5048-0.57343 0.94236-0.34086 1.6942-1.5038 1.9068-1.8607 0.0742 0.15839 0.19449 0.44912 0.20652 0.62957l-0.02 0.27469-0.0221 0.34286c4e-3 0.15038 0.0301 0.30677 0.11229 0.47118 0.20651 0.41303 0.90025 0.8 1.3814 0.87218 0.45113 0.0642 0.94236-0.30476 1.2491-0.94837 0.0862-0.16842 0.11228-0.40702 0.10426-0.69173-8e-3 -0.36893-0.0742-0.81404-0.14035-1.2752l-0.13835-1.1449c-0.0321-0.55539-0.27669-1.7203-0.53333-2.9574-0.2406-1.1549-0.42306-2.3018-0.53334-3.1559-0.0361-0.25263-0.0541-0.52531-0.0601-0.81604-0.0221-0.94837 0.0862-2.0311 0.17645-2.9434 0.0682-0.68772 0.0561-1.3414 0.0481-1.7384l-4e-3 -0.0982-0.012-0.29674c-0.0281-1.2211 0.0882-3.9419 0.21654-4.4471 0.14636-0.58948 0.73384-3.4526 0.82206-4.0782l0.18646-0.65965c0.0822-0.22857 0.15439-0.42907 0.15238-0.65363l-0.0301-0.21053c-0.11429-0.49724-0.8782-1.0927-2.1133-1.2511-0.22256-0.03409-0.0321 0.02005-0.18246 0.16842m-1.4757 16.052c0.0401 0.68772-0.0481 0.69774 0.0261 1.9629 0.0722 1.2652-0.29674 4.1704-0.93434 5.4316-0.63158 1.2572-1.7564 2.017-3.216 2.1674-1.4637 0.14636-1.5439-1.2211-1.9348-1.7865-0.38697-0.5554-0.30677-1.8346-0.29474-2.4642 0.014-0.63961 0.0421-2.797 0.29474-3.6572 0.25263-0.86617 1.3614-1.8887 1.8787-2.5564 0.5173-0.66968 1.9028-0.70978 2.4441-0.90627 0.54737-0.19248 1.5539 0.33885 1.5539 0.33885 0.0221 0.68572 0.14436 0.78196 0.18246 1.4697"/>
			<path d="m143.22 112.74c-0.0321 0.0261-0.88622 0.77795-0.79399 1.5759 0.0601 0.50126 0.401 0.53133 0.65364 0.55138 0.20852 0.02 0.32681 0.0381 0.3609 0.17845 0.0541 0.21253 0.19248 1.2812 0.33885 2.4201 0.1624 1.3013 0.33484 2.6546 0.42907 3.1118 0.0722 0.33885 0.10025 0.89825 0.13434 1.4877 0.0481 0.92832 0.10426 2.2757 0.32281 2.7208 0.38095 0.78196 1.6561 0.71178 2.0511 0.60351l0.22256-0.20251c0.10426-0.1985 0.14636-0.53133 0.13834-0.93233-0.014-0.52331-0.1223-1.5579-0.30877-2.1594-0.29674-0.94837-0.40301-1.8627-0.51328-2.8251l-0.0962-0.81605c-0.1564-1.2311-0.2767-4.6276-0.28271-4.8301l0.73384-0.63559c0.2827-0.2807 1.4015-0.71579 2.4782-0.8782 0.72181-0.11027 1.0446 0.28672 1.3313 0.63359l0.41504 0.39699c0.4792 0.26466 1.0346 0.17644 1.5559-0.23659 0.47318-0.37494 0.50727-0.75389 0.56942-1.3895l0.0261-0.26266c0.0742-0.6817-0.88622-0.82005-1.4576-0.90827l-0.36291-0.0682-0.12431-0.0401c-0.36892-0.12431-0.92231-0.30877-1.997-0.24261-1.0767 0.0682-2.8952 0.56542-3.2201 0.65364-0.0321-0.21454-0.21454-1.2471-0.397-1.5419-0.21654-0.34086-1.5058-0.6376-2.001-0.45715-0.5193 0.18045-0.61554 0.99249-0.4812 1.7183 0.13033 0.67169 0.27268 2.3639 0.27469 2.378z"/>
			<path d="m161.47 110.05c-0.43509 0.13434-0.84812 0.15439-1.215 0.16642-0.49323 0.0241-0.88221 0.0361-1.0486 0.35088-0.24462 0.46717-1.5018 1.2892-1.6381 1.3434-0.0642 0.0261-0.45113-0.016-0.80001-0.0702-0.012-0.15438-0.0822-0.82606-0.42105-1.0206-0.38898-0.22256-1.3414-0.67569-1.8005-0.0922-0.20852 0.27268-0.29875 0.51729-0.29273 0.78597 8e-3 0.2807 0.11829 0.59148 0.30075 0.98647 0.31278 0.66566 0.94236 1.5519 1.0366 1.6802-0.11028 0.11028-0.4772 0.52732-0.65164 1.3875-0.0541 0.28872-0.17042 0.98446-0.15238 1.7724 0.012 0.57143-0.45915 1.5499-0.23258 2.1053 0.14436 0.35088 0.21654 0.90427 0.29474 1.4877 0.15438 1.1469 0.57945 2.8972 1.3694 3.3825l2.2055 1.3213 1.6642 0.50526c0.42105 0.25664 1.209 0.26466 1.8466 0.27068 0.37494 2e-3 1.3714-0.12231 1.5378-0.0702 0.67569 0.20452 1.1268 0.10025 1.3915-0.33283l0.0541-0.32682c-0.0882-0.36491-0.64161-0.68973-1.2251-1.0366l-0.28872-0.17244c-0.33885-0.20852-1.7524-0.25664-2.5404-0.43508-1.0647-0.24261-2.5985-0.28472-3.0456-0.69374-0.73784-0.68371-1.2491-4-1.2612-4.6116v-0.0501c8e-3 -0.38697 0.69574-1.8647 0.74386-2.2817 0.41905 0.58547 2.2677 3.0436 4.2346 3.2321l2.1815 0.28671c0.57143 0.0902 0.9163 0.14437 1.2792 0.10226l0.54136-0.0581c0.57945-0.0521 1.177-0.11027 1.4296-0.29874l0.18647-0.1183c0.32681-0.20251 0.73383-0.45514 0.72982-1.1669v-0.45514c2e-3 -0.9183 8e-3 -2.3038-0.26266-3.2501-0.3228-1.1388-1.3754-3.1739-1.7684-3.5409-0.38697-0.3589-1.2972-1.195-2.1574-1.187l-0.68171-0.0421c-0.44712-0.0421-0.83208-0.0862-1.5439 0.14436m3.9278 7.6151s-0.52331 0.33283-1.596 0.53534c-1.0747 0.19649-2.2857-0.55138-3.2842-1.1409-0.99449-0.59148-2.412-2.7649-2.412-2.7649s0.27669-0.93033 0.69173-0.96041c0.41705-0.0221 1.9048-0.94837 2.5203-1.2471 0.60351-0.30276 1.0747-0.11428 1.9068-0.12631 0.83609-0.01 0.97043 0.85213 1.2852 1.2231 0.31279 0.37293 0.57143 1.2291 0.77394 2.5303 0.2005 1.2892 0.11429 1.9509 0.11429 1.9509"/>
			<path d="m171.51 109.61-0.01 0.0181-4e-3 0.018c-4e-3 0.0702-0.13835 1.6542-0.12832 2.2176 4e-3 0.22857-0.1203 0.95238-0.25865 1.7925-0.2005 1.185-0.44912 2.6567-0.52331 3.7414-0.13233 1.8887-0.59749 5.0126-0.77795 5.4737-0.20852 0.52331-0.13634 0.88822 0.0942 1.4697 0.25263 0.6356 0.39298 0.78196 1.3293 0.86216 0.25263 0.0181 0.44511-0.0561 0.57343-0.22656 0.26667-0.34487 0.19249-0.98647 0.14637-1.3714l-0.014-0.13634c-0.0481-0.4391-0.014-1.4998 0.27268-2.6526 0.30276-1.213 0.46115-3.8917 0.45514-4.2426-4e-3 -0.34687 0.20852-1.1208 0.56742-1.3514 0.41704-0.26265 0.7579-0.62356 1.0105-1.0667 0.18847-0.33483 0.46516-0.42506 0.97243-0.58947l0.60752-0.21053 0.93434-0.37694c0.44712-0.19449 0.798-0.34286 1.1268-0.40502 0.49324-0.0982 1.0948 0.31078 1.6542 1.1148 0.37694 0.54336 0.19649 2.007 0.0662 3.0737l-0.11228 1.0968-0.12632 6.0532-0.24862 0.38296c-0.13834 0.18246-0.18847 0.40902-0.15438 0.65564 0.0521 0.39699 0.3228 0.74186 0.49524 0.85815 0.31077 0.21253 0.68972 0.46917 1.0045 0.41504 0.3589-0.0601 1.0025-1.0526 1.1088-1.8587 0.0902-0.62556 0.0461-2.378 0.016-3.5389l-0.016-0.84611c-6e-3 -0.41504 0.0822-1.1689 0.18045-2.0431l0.26667-2.787c0.0762-1.4877-0.28071-2.0992-0.65565-2.7449l-0.2406-0.42306c-0.47519-0.91028-1.3995-1.3654-2.3298-1.7263-0.77795-0.29875-1.2712-0.1183-1.9509 0.12632l-0.88822 0.29473c-0.99248 0.2767-1.9629 0.80402-2.3378 1.0246 0.11428-0.26266 0.36491-0.83409 0.36491-0.83409l0.0341-0.34286c-0.014-0.41303-0.16442-0.99248-0.24261-1.219l-0.0341-0.0902c-0.0982-0.29273-0.15639-0.33283-0.8782-0.3609-0.83007-0.0321-1.3293 0.72381-1.3494 0.75589"/>
			<path d="m185 105.32-0.1584 0.22256c-0.32682 0.41504-1.1268 2.3358-1.1609 2.416l-4e-3 0.014v0.014c-0.01 0.10627-0.0481 1.0827 0.0722 1.3474 0.17644 0.37093 1.3694-0.0822 1.3835-0.0882 0.34687-0.12832 0.62958-1.4155 0.66166-1.5659-4e-3 0.02 0.3208-0.47719 0.99649-0.96842 0.40502-0.29274 0.63158-0.82206 0.56742-1.3133-0.0581-0.41905-0.31679-0.73584-0.73384-0.88221-0.86616-0.30877-1.3213 0.3589-1.6241 0.80401"/>
			<path d="m189.05 109.73c-0.85815 0.76993-1.2531 1.614-1.205 2.5764 0.0642 1.4376 1.3213 2.9594 2.0632 3.7374l0.46316 0.4792c1.1549 1.189 3.0897 3.18 3.2622 4.1825 0.21053 1.211-0.0962 2.6306-0.41103 2.9955-0.16842 0.19448-1.0466 1.1449-2.0792 1.0005-0.95439-0.14035-3.1599-1.0045-3.2762-1.4737-0.0762-0.31078-0.0642-0.6416-0.0481-0.99649l8e-3 -0.67369c-0.0241-0.42105-0.23458-0.8802-0.52531-1.1409-0.20251-0.18245-0.43309-0.26466-0.66968-0.2406-0.68371 0.0722-1.6742 0.73183-1.6 1.5579 0.12631 1.4456 0.5193 3.2642 1.6622 3.7334l0.50125 0.20852c1.1288 0.46517 3.0797 1.0025 3.9238 1.0426 1.9569 0.0882 3.3544-0.58546 4.1604-1.997 1.3053-2.2877 1.4777-4.377 0.45113-5.58-0.52331-0.61754-0.798-1.1048-1.0386-1.5398-0.2787-0.48522-0.51729-0.91229-1.0386-1.4115l-0.77795-0.6817c-0.7218-0.60351-1.3414-1.1228-1.6602-2.013l-0.25865-0.67369c-0.26065-0.67369-0.34085-0.87419-0.1203-1.2331 0.31479-0.5213 0.7599-0.5213 0.9985-0.47719 0.39098 0.0722 1.3253 0.34887 1.7103 0.75388 0.4411 0.46316 1.3835 1.203 2.015 1.3313 0.6356 0.1223 1.7564-0.29073 1.8847-0.81404 0.12832-0.52933-0.5213-1.3293-1.187-1.6862-0.0822-0.0481-2.0511-1.219-3.2902-1.4637-1.1769-0.23458-3.3323-0.0321-3.9178 0.49725"/>
			<path d="m203.14 104.47s-0.0261-2.0932 0.76793-2.5123c0.8-0.41905 0.30676-0.66166 1.5138 0.38095 1.201 1.0406 0.23859 2.7409 0.35488 3.1379 0.11429 0.401 0.50527 2.1033 0.72382 4.8722 0.21854 2.777 1.1348 5.0266 1.1348 5.0266l2.2958 7.7674s1.3373-3.1218 1.9408-5.1268c0.59951-2.013 0.68572-4.2627 1.0907-5.4577 0.401-1.197 1.1028-3.4887 1.2491-4.1965 0.14837-0.70577 0.3188-2.7008 0.3188-2.7008s0.63158-0.45715 1.2271-0.31078c0.59349 0.15238 1.6842 1.1048 1.8065 1.6281 0.11829 0.52531 0.0882 1.6281 0.0882 1.6281s1.4015 3.9178 2.2035 6.406c0.80402 2.4862 1.59 4.9584 1.977 5.4877 0.38898 0.53133 1.1028 1.3233 1.1028 1.3233s1.7344-3.3744 1.9469-5.977c0.21454-2.5985 0.44712-6.7208 0.57744-8.1745 0.10828-1.2271-4e-3 -3.8376 0.0642-4.7098 0.0401-0.54336 0.54737-2.0892 1.9028-1.3173 1.3594 0.77394 1.1709 1.195 1.0366 2.4602-0.13433 1.2632-0.20852 2.3679-0.39899 3.4326-0.19048 1.0606-0.16843 3.5128-0.51329 4.8441-0.34887 1.3374-0.48521 3.7213-0.52331 4.4552-0.0401 0.73384-0.69775 2.9474-0.94236 4.1905-0.2406 1.2351-0.53333 2.7409-0.68171 3.3805-0.14636 0.6396-0.7619 1.3093-1.1408 1.215-0.37695-0.0922-1.2211 0.31879-1.9469-0.97645-0.72581-1.2932-2.0311-3.2902-2.7048-4.6918-0.67369-1.4035-3.4146-9.3354-3.4146-9.3354s-0.77594 3.0998-1.2371 4.0341c-0.46517 0.93234-0.72983 3.0556-1.0727 4.387-0.35088 1.3333-1.1068 4.2486-1.4657 4.9604-0.3589 0.71179-0.57745 1.987-0.56542 2.5444 0.01 0.56342-0.12631 1.588-1.207 1.4356-1.0727-0.14837-1.4797-0.46717-1.606-1.4276-0.13032-0.9624-0.16441-0.27268-0.66968-1.4476-0.50927-1.179-2.1875-5.8727-2.382-7.4045-0.19248-1.5298-1.7123-7.4086-1.8386-8.2406-0.12431-0.8381-1.0125-4.9905-1.0125-4.9905"/>
			<path d="m234.85 103.2c-0.35289-0.0341-1.8686 1.3034-1.8125 1.5801 0.0702 0.33684 0.0234 1.1406 0.0234 1.1406 0.99048 1.0486 1.663 0.82282 2.082 0.65039 0.42106-0.18245 0.80072-0.0834 1.2559-0.85937 0.45314-0.77795 0.36912-1.191-0.1582-1.7363-0.52932-0.54136-1.0398-0.74331-1.3906-0.77539zm-0.72266 5.5723c-1.4697 0.12833-1.584 2.127-1.584 2.127s0.35056 1.5202 0.23828 2.7754c-0.11629 1.2592-0.32489 2.3306-0.52539 4.1973-0.20251 1.8667 0.32314 4.3888 0.28906 4.9883-0.0361 0.59749-0.0288 1.6343-0.125 1.9551-0.10426 0.31078 0.58324 1.5905 2.3476 1.1875 1.181-0.27268 0.37731-1.6593 0.2129-2.373-0.16241-0.70978 0.0227-2.8318-0.17383-4.4258-0.19449-1.594 0.0599-2.9214 8e-3 -4.1465-0.0541-1.2271 0.10555-2.0068 0.4043-2.9531 0.30275-0.94838 0.39695-1.6961 0.3789-2.043-0.0221-0.34086 9.8e-4 -1.4174-1.4707-1.2891z"/>
			<path d="m241.85 106.77c-0.65163 0.38296-1.6842 1.2311-2.0251 1.5619-0.37093 0.35288-1.0326 1.4757-1.1549 2.2456-0.19248 1.203-0.0782 2.2136 0.34085 2.9915 0.26467 0.49925 1.2491 2.1454 2.8491 2.5684 0.74186 0.20051 1.1268 0.48321 1.4657 0.73184 0.20651 0.15438 0.399 0.29874 0.63358 0.38897l1.1489 0.33484c0.5975 0.1604 1.5018 0.39699 1.6602 0.52732 0.15438 0.1223 0.38697 0.42306 0.59148 0.68772l0.50125 0.5975c0.14436 0.13834 0.19248 0.23258 0.26868 0.37894l0.19849 0.34687c0.19649 0.28672 0.38697 0.68973 0.37895 0.94036-4e-3 0.0782-0.0281 0.13634-0.0742 0.18646-0.42908 0.4391-1.3193 1.209-2.4441 1.4276l-0.21053 0.0461c-1.0887 0.21655-1.8727 0.37294-2.5805-0.20651-0.83409-0.68572-1.181-0.78597-1.217-0.79399l-0.0221-2e-3h-0.0221c-0.31479 4e-3 -1.0707 0.0421-1.2832 0.26066-0.25664 0.26666-0.53935 1.2411-0.26867 1.8045 0.17844 0.37093 0.39899 0.4772 0.8 0.66367l0.74787 0.37694c1.0145 0.5594 2.4401 0.49323 3.198 0.401 0.68772-0.0782 3.202-0.81203 4-1.7163l0.2386-0.25665c0.66366-0.72782 1.3474-1.4697 0.98446-2.9654-0.30676-1.2652-0.66967-1.8446-0.88621-2.1915l-0.1163-0.19248c-0.19047-0.34486-0.92631-1.2772-1.612-1.5118l-0.85414-0.35088c-0.69775-0.30276-1.5639-0.66767-2.2576-0.84612-1.0085-0.24862-2.5003-1.1629-2.8892-1.4958l-0.23258-0.19248c-0.36692-0.29474-0.77995-0.62757-0.94436-1.1408-0.20451-0.64161-0.22858-1.8526 0.37093-2.4261l0.1604-0.14837c0.56541-0.54536 1.205-1.1529 1.4897-1.1749 1.2652-0.0842 2.4341 0.62958 2.5905 0.78396l0.32883 0.38898c0.21253 0.27268 0.42707 0.54937 0.71779 0.50727 0.2366-0.0381 0.94236-0.29073 0.99449-0.73785l0.016-0.82607-4e-3 -0.012c-0.01-0.0521-0.2025-1.3033-0.86617-1.4436l-1.7323-0.399c-0.26467-0.0622-2.3018-0.5193-2.9775-0.1183"/>
			<path d="m254.5 99.825c-0.43509 0.4411-0.4411 1.2612-0.40501 1.5559l4e-3 0.0441c0.0401 0.32081-0.0261 3.3544-0.0882 3.9699-0.0622 0.6396-0.14235 3.2842-0.10426 3.8476 0.0361 0.52131-0.14436 1.4897-0.18045 1.6722-0.11228 0.014-0.48321 0.0722-0.62356 0.14035-0.19649 0.10025-0.44311 0.43108-0.37694 0.96843l0.02 0.12631c0.11428 0.57143 0.75188 0.62356 0.94637 0.62356-0.01 0.11028-0.26667 3.6471-0.26667 3.6471-0.0301 0.30476-0.0361 1.3273-0.0421 2.41-6e-3 1.1749-0.01 2.388-0.0501 2.8832-0.0401 0.53734-0.17644 1.189-0.29875 1.7584l-0.21855 1.185c-8e-3 0.0842-8e-3 0.15839 0 0.23058 0.0742 0.58947 0.69173 0.85012 1.0466 0.91027 0.3589 0.0582 1.0186-0.39699 1.612-0.73383 0.46717-0.26066 0.41704-1.4196 0.36491-2.5424l-0.022-1.3674c0.0742-1.2311-8e-3 -4.9444-0.0802-5.9469-0.0662-0.90627 0.14636-2.9995 0.16441-3.188 0.17644-0.0682 2.0451-0.7579 2.4241-0.86417 0.38496-0.11228 2.1474-0.60952 2.5704-0.55138 0.40702 0.0501 1.3554 0.6376 1.7764 1.0988 0.42907 0.46918 1.0145 2.376 1.0847 3.1439 0.0561 0.58947-0.36893 5.2872-0.57143 7.0637l-0.12432 1.1669c-0.0301 0.40301-0.13834 0.85013-0.34085 1.3754-0.0602 0.15238 0.02 0.34686 0.22657 0.56541 0.38897 0.40903 1.4536 0.63158 1.7985 0.48722 0.51529-0.21253 0.62156-0.95439 0.65564-1.6541 0.0221-0.4411 0.14837-1.203 0.26266-1.8747l0.16842-1.1188c0.0421-0.49324 0.3569-6.2837 0.21855-7.2562-0.13634-0.92432-0.83208-2.7469-1.3153-3.4246-0.49925-0.69373-2.2436-1.0667-4.2506-1.2992-1.8847-0.21454-4.014 0.95038-4.5313 1.1669 0.0441-0.18245 0.34486-1.4176 0.34486-1.4176l0.11629-1.0767 4e-3 -0.0461 0.012-0.60351c4e-3 -0.85414 0.012-3.5328 0.1985-4.1845l0.23258-0.91028c0.0962-0.43309 0.17644-0.76793 0.30276-0.99048 0.0541-0.0982 0.16441-0.33685 0.13033-0.59549-6e-3 -0.0682-0.0241-0.13835-0.0541-0.21053-0.15839-0.36492-0.59749-0.62156-1.3073-0.76391-0.4772-0.09023-1.1669 0.31078-1.4336 0.57945"/>
		</g>
		<g>
			<path d="m69.686 66.874-0.53133-0.16241-0.19449-0.09023c-0.61554-0.29875-1.5479-0.75188-3.3364-0.78998-1.604-0.0401-6.0231 1.582-7.2 1.981-0.07619-0.75389 0.14236-3.2882-0.11629-3.7835-0.41704-0.78196-0.85815-1.1449-1.8045-0.84411-0.7198 0.21855-0.61755 0.93634-0.61755 1.6842 0 0.53334 0.09624 1.0807 0.16441 1.4917 0.06015 0.34286 0.0802 0.74787 0.0802 1.1529 0 0.85815 0.16241 1.9669 0.12832 2.2577l-0.25664 0.19649c-0.05815 0.06015-1.7223 0.91429-1.5419 2.5504 0.12431 1.1449 0.85815 1.2872 1.2952 1.3734 0.33684 0.06817 0.80602-0.39098 0.82406-0.31679 0.08622 0.38496 0.62557 3.1178 0.86617 5.1329 0.29073 2.4441 0.42506 5.3514 0.58948 6.2176 0.12231 0.62356 0.18045 1.6461 0.2406 2.7288 0.10025 1.7504 0.20251 3.5569 0.58346 4.4572 0.66767 1.582 1.2331 1.2351 1.9148 1.0707l0.17644-0.0421c0.24261-0.05013 0.17845-0.13434 0.31679-0.37494 0.17444-0.30075 0.05213-1.0266 0.05213-1.5078 0-1.0145-0.30677-1.8286-0.52732-2.6466-0.42506-1.5419-0.55138-3.0917-0.68572-4.7318l-0.21654-2.2897c-0.25664-2.1213-0.93634-9.8326-1.0446-11.162 0.4772-0.31278 2.9534-0.86617 3.3965-1.0887 0.2787-0.13434 1.6261-0.74587 2.4-0.73384 0.81003 0.01404 2.6506-0.25664 3.3323 0.01604 1.0486 0.42707 1.6501 2.2456 1.9409 3.2161 0.29474 0.97243 0.15639 2.5744-0.16241 3.0176-0.52532 0.72983-1.3915 1.2732-2.2055 1.5178-0.81604 0.24261-2.1895 1.0105-2.9995 1.2511-0.81604 0.24662-2.1815 0.79599-2.7649 0.9183-0.58146 0.1203-2.2857 0.37093-2.2857 0.37093s0.36291 1.6842 0.65564 1.8045c0.29073 0.12431 4.4672 1.7785 5.0547 2.1955 2.6186 1.8827 3.0015 3.3364 4.9785 5.0426 1.7263 1.4957 1.3153 0.79198 2.6526 2.9073 0.22857 0.35689 1.1188 1.3173 1.4677 1.3173 0.34486 0 1.5459 0.06617 1.604-0.96842 0.05414-1.0366-2.6807-3.4045-4.0862-5.1168-1.1649-1.4135-2.0211-1.7444-2.6607-2.7128-0.2386-0.3609-1.9168-1.582-2.801-2.2737-0.23459-0.17845-2.5684-1.0627-2.5684-1.0627s4.5374-1.185 5.1449-1.5679c1.4957-0.94236 2.6186-2.1935 2.9113-3.8697 0.17043-0.97845 0.64161-2.2797 0.2386-3.5509-0.41303-1.2732-1.7123-3.7995-2.402-4.1825"/>
			<path d="m82.46 65.891-0.22857 0.51128-0.80401 1.0226-0.18246 0.41303c-0.02206 0.13434-0.05815 0.33283-0.54136 1.0186-0.81404 1.1549-1.1328 1.8647-1.1469 1.8967-0.04411 0.07419-0.30677 0.56341-0.30677 0.87419v0.04411c0.03007 0.39699 0.19048 0.62356 0.46316 0.68171l0.17845 0.12832c0.11629 0.10226 0.26065 0.2386 0.44512 0.19048 0.16441-0.03609 0.31479-0.20251 0.46316-0.36291l0.15038-0.15639c0.19649-0.13634 0.38296-0.45915 0.38296-0.90226l-2e-3 -0.03208c0.19649-0.34085 0.71579-1.2511 0.77394-1.4777l0.16842-0.18045 0.24662-0.28271 0.19449-0.2406 0.13835-0.1604c0.07018-0.01604 0.21053-0.06216 0.24862-0.25063l0.17845-0.35689 0.0401 0.05414 0.28872 0.33484c0.16642 0.15639 0.36892 0.3589 0.44912 0.53534 0.16241 0.3609 0.29674 0.47118 0.44712 0.58948l0.05213 0.0381c0.03008 0.03809 0.13835 0.27669 0.22456 0.46316 0.30877 0.67369 0.5574 1.1609 0.85414 1.2732 0.3208 0.1203 0.89624 0.2787 1.1308-4e-3 0.12632-0.16241 0.33885-0.54336 0.36291-0.75389l8e-3 -0.06817c0-0.22055-0.08221-0.75389-0.30476-0.89223-0.10827-0.07419-0.79399-0.72582-1.3795-1.4236l-1.2812-1.5479-0.03008-0.42506c-0.04411-0.22055-0.26867-0.43108-0.50126-0.62557-0.1604-0.12832-0.4391-0.08622-0.58747-0.05414-0.13835-0.03609-0.44311-0.09023-0.59348 0.12832m6.374 16.419s-0.68973 0.52331-1.7985 1.0747c-1.0767 0.53133-2.3699 0.57945-3.5549 0.4371-1.183-0.14637-3.4466-1.8627-3.4466-1.8627s-0.14035-1.199 0.2386-1.4476c0.37494-0.25263 1.3714-2.0812 1.8105-2.7369 0.4411-0.66166 0.8782-1.1308 1.6521-1.58 0.77594-0.45113 1.6261 0.68572 2.0792 0.94035 0.45915 0.26266 1.3053 0.88822 2.0511 2.2436 0.74587 1.3634 0.96842 2.9313 0.96842 2.9313m0.2005-4.8702c-0.77191-1.0907-2.6145-2.8351-3.1398-3.0396-0.53334-0.20852-1.7083-0.66767-2.4822-0.22055-0.77394 0.44912-1.199 0.3589-2.015 1.2692-0.81805 0.90226-1.8346 1.0266-1.8667 1.7263-0.03208 0.69775-0.8802 2.3038-0.97444 2.4301l-0.85213 0.37293s-0.40301-0.90426-0.80602-0.94436c-0.40902-0.04411-1.4877-0.06817-1.6481 0.78196-0.16842 0.84612 0.1183 1.2732 0.73985 1.9088 0.62557 0.64161 1.7323 1.3895 1.7323 1.3895s-0.26065 0.72983-0.02807 1.9308c0.2406 1.199 0.78998 2.8732 1.6481 3.8456 0.86617 0.97244 1.8105 2.4501 3.208 2.6326 1.3955 0.19248 2.5885 0.14436 3.3684 0.24662 0.77394 0.11028 2.1494 0.15439 2.6466 0.07218 0.49724-0.08421 1.0326-0.31078 1.1008-1.0366 0.07218-0.7198-0.61354-1.3815-1.5439-1.5118-0.92832-0.12431-3.2361 0.81203-4.2907 0.399-1.0546-0.41504-3.5248-2.7168-3.7233-3.2702-0.19449-0.54938-0.03409-1.8366-0.03409-1.8366s3.3103 2.4381 5.4376 1.5278c2.1293-0.91028 2.807-0.9183 3.3905-1.3654 0.57945-0.44912 1.4677-0.97244 1.6622-1.4035 0.1985-0.4411-0.01604-0.93434-0.37895-1.8667-0.3589-0.93233-0.37494-2.9434-1.1509-4.0381"/>
			<path d="m91.53 73.009s-0.1203-0.66968 0.08421-0.6777c0.20652-6e-3 0.61354-0.05013 0.82206 0.01203 0.20251 0.06817 0.62356 0.33885 0.72381 0.37494 0.10627 0.02807 0.58547-0.01604 0.59549 0.37494 6e-3 0.39098 0.14637 0.56542 0.36692 1.0967 0.21855 0.5213 0.79399 1.7223 0.80602 2.1133 0.01002 0.39098 0.11028 0.35088 0.39499 0.84211 0.28471 0.49324 0.65364 1.588 0.73985 2.404 0.09022 0.81805 0.57344 1.8366 0.82005 3.5389 0.24862 1.7063 0.9965 2.5945 0.9965 2.5945s0.20852 0.17243 0.21454 0.34687c2e-3 0.18246 0.1183 0.6396 0.1183 0.6396s0.28672-0.86015 0.70777-1.6541c0.43108-0.79399 1.2993-2.8531 1.616-3.8637 0.3168-1.0065 0.91028-4.1905 1.0366-4.6196 0.12832-0.43108 0.77394-1.979 0.83208-2.1975 0.0662-0.20852 0.11228-1.0687 0.41905-1.1469 0.30477-0.0782 0.65364 0.12632 0.93033 0.29674 0.2787 0.17043 0.65765 0.33885 0.66567 0.69374 0.01 0.35288-0.0782 0.89424-0.31078 1.187-0.23258 0.28672-0.73785 2.0832-0.98446 3.1238-0.25063 1.0426-0.52131 2.5444-0.93434 3.9399-0.40702 1.4015-1.3474 3.4988-1.3474 3.4988s-0.11629 0.86015-0.30877 1.2211c-0.19649 0.3589-0.50125 0.43509-0.63158 0.86817-0.12231 0.42907-0.24261 1.2872-0.47318 1.582-0.23258 0.28872-0.62757 0.94637-0.68973 1.1569-0.06416 0.21454 0.11228 0.45915-0.08822 0.68171-0.2005 0.21654-0.88221 0.27068-1.2952 0.06416-0.41504-0.19649-0.97043-0.399-1.1128-0.64161-0.14236-0.24862 0.01604-0.81805 0.18446-0.93033 0.17243-0.1183 0.1203-0.53935 0.07419-0.96441-0.03809-0.42908-0.67369-1.0867-0.76191-2.013-0.09223-0.92231-0.60552-2.0692-0.65364-2.6747-0.04812-0.60151-0.79198-2.9694-1.0907-3.9258-0.29674-0.95238-0.95238-2.6807-1.0025-3.2842-0.04612-0.60351-0.61153-1.3013-0.73384-1.979-0.11429-0.66767-0.72983-2.0792-0.72983-2.0792"/>
			<path d="m119.03 80.313s-1.0526 1.2772-1.9649 2.3379c-0.90827 1.0526-2.4983 0.82607-3.7374 0.94436-1.2351 0.10827-3.6852-1.215-3.6852-1.215s-0.21454-1.2531 0.16641-1.604c0.37895-0.35689 1.3133-2.5424 1.7323-3.3484 0.42306-0.80802 0.73384-1.5419 1.5178-2.2015 0.77795-0.65965 2.2576 0.21855 2.7409 0.38897 0.48522 0.17243 1.2231 1.2271 2.0732 2.5123 0.85013 1.2932 1.1569 2.1855 1.1569 2.1855m-0.27469-4.8261c-0.86617-0.99449-2.8752-2.4481-3.4346-2.5464-0.5614-0.10226-1.8105-0.32882-2.5905 0.33283-0.78196 0.65364-1.2291 0.65765-2.0271 1.8206-0.798 1.1549-1.8506 1.5138-1.8466 2.2717 4e-3 0.76191-0.93033 3.4667-1.0166 3.6211-0.0882 0.14837-0.72982-0.18847-0.72982-0.18847s-0.46717-0.88421-0.88823-0.83409c-0.42506 0.04411-1.5519 0.26466-1.6742 1.209-0.12632 0.94637 0.1985 1.3414 0.8782 1.8847 0.68171 0.53734 1.8787 1.0887 1.8787 1.0887s-0.23459 0.84211 0.0762 2.0752c0.31078 1.2351 0.97043 2.9073 1.9248 3.7494 0.95439 0.84211 2.011 2.2115 3.4767 2.0932 1.4637-0.11429 2.7008-0.43709 3.5108-0.50326 0.81604-0.06416 1.3514 0.2005 1.8647 0 0.5153-0.20852 1.0566-0.56942 1.0887-1.3614 0.0301-0.79599-0.70978-1.3474-1.6902-1.2692-0.97444 0.07619-2.4181 1.0747-3.5409 0.87619-1.1208-0.2005-3.4867-1.1168-3.7153-1.6582-0.23258-0.54536-1.1048-3.4266-1.1048-3.4266s4.2105 2.3258 6.372 0.86617c2.1654-1.4597 2.8652-1.6281 3.4466-2.2396 0.57945-0.60953 1.4737-1.3754 1.6521-1.8867 0.18246-0.5173 0.63159-1.1489 0.20853-2.0672-0.42707-0.91429-1.2592-2.9133-2.1193-3.9078"/>
			<path d="m127.83 72.748c-0.54737 0.09023-1.7684 0.68371-2.2697 1.2932-0.78396 0.94036-1.1629 1.8947-1.1348 2.8231 0.0241 0.60151 0.2005 2.6567 1.6 4.006 0.70576 0.68572 0.97444 1.0807 1.211 1.4276l0.40902 0.55539 1.0005 1.0065c0.5614 0.54536 1.3273 1.2892 1.4316 1.5078 0.10025 0.21454 0.18848 0.63359 0.26667 0.9985l0.20652 0.8381c0.0842 0.22256 0.0842 0.35288 0.0882 0.53334l0.0261 0.42707c0.0582 0.41303 0.0762 1.215-0.29473 1.2932-0.65765 0.13233-1.9509 0.27268-3.208-0.22256l-0.24461-0.08822c-1.213-0.47719-2.0892-0.82406-2.5203-1.7965-0.50326-1.1168-0.8-1.4135-0.83008-1.4436l-0.018-0.02005-0.0221-0.01403c-0.32281-0.18246-1.1128-0.60953-1.4276-0.54938-0.37093 0.07419-1.1248 0.7599-1.1328 1.3754 0 0.41303 0.15238 0.61755 0.46517 1.0326l0.57544 0.8c0.74587 1.1148 2.2236 1.9308 3.0356 2.3198 0.73985 0.35088 3.6572 1.2391 4.9203 0.92231l0.37494-0.08822c1.0627-0.24862 2.0692-0.48522 2.4361-1.995 0.31479-1.3113 0.2366-2.0391 0.18848-2.4802l-0.0241-0.24662c-0.016-0.41704-0.29875-1.6782-0.86216-2.2998l-0.70174-0.84612c-0.55739-0.69374-1.2471-1.5519-1.8607-2.1353-0.92431-0.87218-2.0271-2.3058-2.2456-2.8231l-0.13835-0.31078c-0.23057-0.50326-0.49524-1.0707-0.399-1.6722 0.1163-0.72181 0.7178-1.8627 1.6361-2.009l0.21053-0.03609c0.85414-0.14035 1.8246-0.30075 2.1293-0.13835 1.6842 0.89023 1.9529 1.3454 1.995 1.4637l0.14236 0.56341c0.0802 0.37494 0.15038 0.72582 0.45314 0.85815 0.29473 0.13033 1.0988 0.30075 1.3434-0.03208l0.41704-0.71178v-0.01002c0.0441-0.12431 0.42106-1.2371-0.13834-1.7303l-1.5639-1.4216c-0.2386-0.22456-1.8125-1.0206-2.6867-1.0767-0.8401-0.05814-2.3178 0.07619-2.8391 0.15238"/>
			<path d="m151.6 86.491c-0.12431 0.34687-1.977 2.394-3.184 2.6727-1.209 0.27469-3.1158-0.06015-3.8597-0.5975-2.382-1.7003-1.3494-5.7183-1.2672-6.6727 0.0822-0.95038 2.5123-3.3243 3.5589-3.9318 1.0386-0.60953 3.5489 0.70577 3.5489 0.70577l0.81604 0.4371s-0.0461 0.9203-0.0241 1.3434c0.10827 1.3293 0.0802 2.2757 0.24863 3.3544 0.12832 0.7599 0.2807 2.3278 0.1624 2.6887m2.8892 1.8005c-0.32883-0.65564-0.94838-5.9409-1.0306-7.1319-0.0682-1.197 0.0642-6.6246-0.3569-8.7279-0.42306-2.1093-0.49123-4.0922-0.49123-4.0922s0.71579-3.1559 0.61755-3.577c-0.0942-0.42105-0.78998-0.76993-1.5679-0.53133-0.78196 0.24461-0.70175 2.2115-1.0827 3.0256-0.38296 0.79599 0.20451 2.6025 0.29273 3.9619 0.0802 1.3714 0.16041 5.2451 0.16041 5.2451-2.6907-1.3835-5.2832-0.77795-7.6893 1.1449-2.402 1.9328-2.2677 7.579-2.2496 9.0386 0.0261 1.4536 3.3704 5.2712 5.6762 5.1609 2.3038-0.12632 4.9624-2.7749 4.9624-2.7749s0.0441 1.608 0.36692 2.2697c0.33484 0.65765 0.71779 1.5539 1.4617 1.7384 0.72982 0.18647 1.2592-0.46918 1.5098-1.179 0.2406-0.70777-0.25464-2.9173-0.57945-3.5709"/>
			<path d="m159.05 71.794s-0.12832 2.8191-0.29474 3.4887c-0.16641 0.66767-0.25263 1.999-1.2531 2.0191-1.0065 0.02205-1.2772-1.5459-0.80001-2.4842 0.48121-0.94236 0.61554-1.7083 0.61554-1.7083s-0.17243-1.8566 0.0842-2.1594c0.26066-0.30276 0.96843-0.9985 1.1569-0.74186 0.19248 0.25664 0.49123 1.586 0.49123 1.586"/>
			<path d="m162.29 83.036 0.0501-0.24662c0.17043-0.31479 0.35489-1.4316 0.51529-2.4221l0.18446-1.0486 0.0602-0.30276c0.13634-0.71579 0.25664-1.3313 0.68772-2.017 0.38497-0.61955 1.4356-0.54737 1.999-0.50928l0.32882 0.01604c0.43309-4e-3 1.3534 0.73183 2.2697 1.4797 0.85815 0.70777 1.3053 1.2792 1.4115 1.4236-0.0601 0.15439-1.0747 2.5444-1.0747 2.5444-0.39098 0.89424-1.3033 1.2692-2.1815 1.6361l-0.70377 0.30276c-0.93033 0.44712-3.0296 0.17043-3.2822 0.13634-0.12833-0.27669-0.26467-0.69173-0.26467-0.99248m2.777-8.9384c-0.53534 0.10226-1.6441 0.30677-2.1775 1.1609l-0.4391 0.61554c-0.31077 0.399-0.57945 0.74587-0.86817 1.6261-0.17043 0.52331-0.40902 0.93634-0.62557 1.3013-0.28872 0.49925-0.52732 0.89624-0.401 1.3313 0.16842 0.61554 6e-3 3.188-0.0261 3.3544-0.0361 6e-3 -0.28071 6e-3 -0.5193-0.02807-0.1183-0.11429-0.65164-0.61153-1.0246-0.42306-0.37694 0.19248-1.215 0.71579-1.211 1.5519l0.016 0.16441c0.13233 0.97444 0.6015 1.211 1.2572 1.4416 0.62957 0.22256 1.5338 0.3208 1.7684 0.33885 0.016 0.24662 0.0983 0.90827 0.5594 1.7123 0.28472 0.48922 1.2972 2.1273 2.5484 2.6567l0.57143 0.26667c0.89224 0.42106 1.9028 0.90025 2.9233 0.42908l1.8446-0.9985 1.0125-0.55539 0.76992-0.25263c0.3188-0.08421 0.58748-0.15238 0.82407-0.35689 0.57143-0.50326 0.78196-1.0406 0.64361-1.6582-0.0642-0.28471-0.22256-0.51128-0.45715-0.65965-0.36491-0.22657-0.88822-0.22055-1.4035 0.02005-0.33885 0.15639-0.70577 0.47118-1.0907 0.80401-0.54537 0.47519-1.1148 0.96442-1.6762 1.0707-1.0767 0.1985-3.1739 0.11228-3.4386-0.21053-0.25062-0.30677-1.189-1.7624-1.5639-2.3318 0.91429 0.10827 4.1123 0.3589 5.4256-1.3574l1.5459-1.8807c0.41504-0.4792 0.66567-0.76993 0.86216-1.1649l0.29273-0.56542c0.32281-0.60552 0.65364-1.2331 0.67971-1.6401l0.0301-0.27268c0.0241-0.17043 0.0501-0.3609 0.0461-0.5574-4e-3 -0.3589-0.0862-0.74787-0.41504-1.1168l-0.30878-0.35489c-0.63358-0.73785-1.592-1.8526-2.416-2.3499-0.94637-0.57143-3.0055-1.213-3.5589-1.1108"/>
			<path d="m177.73 73.46c-0.84211 0.02406-1.3113 0.81003-1.3293 0.8381l-0.02 0.03609v0.0381c-6e-3 0.06416-0.0501 1.598-0.014 2.1374 8e-3 0.21454-0.0742 0.9183-0.17444 1.7323-0.13634 1.1429-0.30476 2.5724-0.32882 3.611-0.0381 1.8145-0.42106 5.3634-0.58146 5.8065-0.18045 0.53935-0.0902 0.90025 0.17043 1.4556 0.28471 0.60351 0.44712 0.74988 1.3915 0.76391 0.26266 0 0.46316-0.09223 0.59349-0.27469 0.25865-0.38095 0.14837-1.0105 0.0822-1.3855l-0.018-0.12231c-0.0662-0.41303 4e-3 -1.9609 0.22256-3.0657 0.2426-1.187 0.26265-3.7795 0.2426-4.1123-0.02-0.3188 0.14035-1.0426 0.46517-1.2752 0.40301-0.28872 0.72983-0.66366 0.95439-1.1148 0.1604-0.31679 0.401-0.41303 0.89023-0.60351l0.58747-0.2406 0.91429-0.4371c0.41905-0.21253 0.75188-0.37494 1.0647-0.45514 0.46116-0.12431 1.0526 0.21454 1.6261 0.93434 0.20251 0.24461 0.26667 0.76191 0.26868 1.3353 6e-3 0.51128-0.0341 1.0687-0.0742 1.5419l-0.0521 1.0707-0.10226 6.2998-0.21453 0.34687c-0.10025 0.14837-0.14838 0.3208-0.14838 0.50727l0.0201 0.18246c0.0742 0.37694 0.34085 0.70777 0.55138 0.82807 0.32681 0.18246 0.7218 0.40301 1.0426 0.33083 0.3629-0.08421 0.97043-1.1068 1.0406-1.9108 0.0561-0.6797 0.14035-3.3303 0.0521-4.7038-0.0261-0.39499 0.0221-1.1228 0.0782-1.9649l0.1203-2.6867c6e-3 -1.4456-0.39299-2.0391-0.78196-2.6125l-0.25464-0.39098c-0.5193-0.85815-1.4576-1.2351-2.39-1.5138-0.79399-0.23459-1.2712-0.02807-1.9368 0.26466l-0.85614 0.34286c-0.86016 0.29474-1.6842 0.78597-2.1153 1.0566 0.1183-0.30276 0.25664-0.65965 0.25664-0.65965l0.0241-0.23258c0-0.43509-0.22857-1.1128-0.31077-1.2972l-0.0321-0.08221c-0.12833-0.30877-0.21855-0.34085-0.92432-0.3188"/>
			<path d="m196.26 65.272-0.52131 0.12632c-0.87218 0.21454-1.4476 1.1629-1.9489 2.009-0.23258 0.38697-0.45113 0.75389-0.66968 0.98246-0.66967 0.70777-0.72782 2.2376-0.78596 3.7273l-0.016 0.41704-4e-3 0.35288c0.02 1.8787 0.52732 6.6346 0.58947 7.2121-0.48922 0.29073-1.602 0.95238-1.7865 1.0246-0.29674 0.11629-0.61554 0.78196-0.72181 1.3253-0.0301 0.14837-0.0481 0.33283-0.0441 0.52732 4e-3 0.5594 0.16642 1.213 0.64361 1.3614 0.52131 0.16241 1.8707-0.9584 2.3659-1.3915 0.0241 1.0065 0.14235 4.6256 0.401 5.6522 0.15038 0.56341 0.73584 2.7429 0.85414 3.8095 0.12832 1.1188 0.24662 2.1855 0.38897 2.5724 0.22657 0.6396 0.56141 0.96842 0.82407 1.2351l0.13834 0.13434 0.13233 0.16241c0.23259 0.30075 0.58146 0.7599 1.3173 0.06015 0.70577-0.65965 0.76191-0.71579 0.66166-1.2912l-0.0301-0.18647c-0.0682-0.401-0.30677-0.77795-0.57945-1.209-0.22857-0.36692-0.48922-0.77995-0.68772-1.2732-0.42306-1.0266-1.209-4.6316-1.2792-5.4416-0.0601-0.6797-0.13434-4.2787-0.13434-4.3168l0.24261-0.29273 0.28271-0.16642c0.41303-0.25263 1.3835-0.84211 1.7083-0.79599l0.23058 0.03409c0.89825 0.13033 1.3193 0.16441 1.4476 0.02807 0.19649-0.20251 0.33283-1.4516 0.29674-1.8687l-0.17043-0.33083c-0.36491-0.34286-1.2792-0.56542-1.9649-0.47318 0 0-2.0912 0.40702-2.6105 0.51328-0.0281-0.25464-0.49324-4.2186-0.49324-4.2186-0.018-0.25865-0.0281-0.5173-0.0361-0.77795-4e-3 -0.80802 0.0642-1.6201 0.1203-2.3078 0.0481-0.60351 0.44111-1.5038 0.78396-2.3038l0.48121-1.209c0.19449-0.67168 2.2516-0.92832 2.6927-0.85013 0.37093 0.06617 0.91429 0.23058 1.3494 0.8401 0.46717 0.64963 0.84411 1.4677 0.93634 2.0391l0.0662 0.59349c0.018 0.31278 0.0421 0.6376 0.18847 1.2231 0.20451 0.83409 0.53133 0.77594 0.8782 0.7198l0.29674-0.03609c0.46316 0 1.0947-0.11228 1.2511-1.0927 0.11829-0.74988-0.12031-1.7063-0.29875-2.412l-0.0782-0.33484c-0.16441-0.69173-1.3374-2.5103-1.8005-2.6647-0.2005-0.06817-0.61754-0.45714-1.0186-0.82607-0.35889-0.34085-0.73183-0.68371-1.0085-0.85815-0.53735-0.34486-1.7243-0.0401-2.8812 0.24662"/>
			<path d="m212.46 74.713c-0.18313 0.02405-0.35894 0.13094-0.50782 0.37305-0.18446 0.30877-0.22265 0.63666-0.22265 0.86523-0.96041-0.70376-4.0647-0.53214-5.2637-0.27148-0.68171 0.14637-3.0148 1.053-4.4805 6.625-0.88622 3.3845-0.0824 6.0824 2.3476 7.8047 1.5378 1.0847 3.1581 0.71457 3.6152 0.57422l2.6074-0.62695 0.4082 0.0098c0.0662 0.11228 0.29883 0.51664 0.29883 1.0059 4e-3 0.1604-0.0199 0.32783-0.082 0.49023l-0.0684 0.35938 0.0684 0.34766c0.23058 0.64361 1.0543 1.1144 1.4453 1.2207l0.26953-0.06445c0.20251-0.2005 0.23339-0.69979 0.27149-1.2812l0.10742-0.92969c0.20451-0.81404 0.2788-4.9833 0.22266-6.5352-0.0521-1.596 0.2207-6.2353 0.2207-6.2734 0 0.01203 0.49426-1.9434 0.64063-2.3184l0.0293-0.30274c-0.0622-0.20852-0.26036-0.30697-0.53906-0.44531l-0.50391-0.29102c-0.25313-0.18421-0.57955-0.37602-0.88476-0.33594zm-3.3457 3.2051c0.84612 0.06616 2.1934 1.4121 2.1934 1.4121l0.14063 1.9395s-0.0333 1.2836-0.10352 2.7012c-0.0622 1.4216-1.6082 3.753-1.8809 3.9375-0.27067 0.18847-3.5041 0.33748-4.8555-0.70312-1.3454-1.0446-1.1442-3.146-1.0078-4.373 0.13835-1.2351 1.7182-3.0368 2.041-3.4258 0.32882-0.39098 2.6285-1.5605 3.4726-1.4883z"/>
			<path d="m218.92 74.421-0.30275 0.03008c-0.37695-0.10025-0.90828 0.2005-1.3273 0.73785l-0.13233 0.41103c0.014 0.401 0.37494 0.78998 0.58547 1.0226l0.11629 0.12832c0.0622 0.10025 0.22456 0.84612 0.34085 1.4917l0.34487 4.788 0.11629 1.7023c0.0622 0.74587 0.11829 1.5158 0.1223 2.007v0.23659c-0.0341 0.57544-0.0481 1.0907-0.0441 1.5519 0.014 1.6 0.24462 2.5303 0.69775 2.8311 0.78998 0.53334 1.0486 0.26466 1.5258-0.22055l0.17043-0.17243c0.19248-0.19449 0.29674-0.42105 0.31278-0.68973 0.0301-0.56943-0.35288-1.0907-0.42907-1.191-0.0622-0.12832-0.0802-1.0927-0.0862-1.8005-0.01-0.90226-0.0221-1.8446-0.11429-2.2577-0.17243-0.77193 0.11629-4.0381 0.11629-4.0702 0.0742-0.48922-0.0221-1.1108-0.10426-1.6541-0.0902-0.55138-0.17844-1.1228-0.0341-1.3333l0.22256-0.09624 0.52932-0.03008c0.64562-0.03609 2.3659-0.38897 2.5524-0.24662 0.13835 0.10827 0.40101 0.16241 0.73584 0.23258 0.44512 0.09624 0.99249 0.21454 1.2832 0.46316 0.47519 0.39499 0.80802 2.3499 0.8802 4.2526 0.0582 1.8767-0.0722 5.2973-0.0722 5.3334-0.0301 0.59148-0.10827 1.2972-0.17845 1.4015-0.21052 0.2005-0.17644 0.96241-0.0962 1.3193 0.0902 0.37494 0.21855 0.7599 0.5193 0.81805l0.0802 0.01203c0.24061 0.04612 0.6396 0.11629 1.0326-0.18246 0.45714-0.35288 0.70977-1.4236 0.72181-1.9288l0.14436-6.1193c0.0261-1.4817-0.25665-2.8632-0.44712-3.7775l-0.14436-0.80401c-0.0682-0.7599-1.1308-2.4241-2.0331-2.9313-0.71981-0.40301-1.5078-0.43108-2.2035-0.45113l-0.89224-0.06416c-0.78195-0.13033-2.9193 0.74587-3.3464 0.83008-0.0601-0.17644-0.42507-1.207-0.42507-1.207-0.18045-0.51128-0.50526-0.42907-0.73785-0.37293"/>
			<path d="m237.08 61.316c-0.33083 0.06015-0.57545 0.22857-0.72382 0.49123-0.13834 0.24662-0.18245 0.54536-0.18045 0.84812 8e-3 0.38296 0.0802 0.77193 0.13835 1.0747l0.0662 0.43509c2e-3 0.24862-0.0842 0.61755-0.17243 0.98046l-0.16842 0.81203-0.0582 0.93233c-0.0682 1.0747-0.17042 2.7028-0.26265 3.1639-0.12431 0.61354-0.40101 3.5489-0.45113 4.1083-0.46517 0.01805-1.4576 0.05414-1.6521 8e-3l-0.30677-0.13233c-0.42707-0.20652-1.0667-0.5213-1.6401-0.32682-0.6396 0.21654-0.66166 0.78998-0.68171 1.4516l-0.0321 0.59549c-0.018 0.20852 0.02 0.37293 0.11629 0.49123 0.19649 0.24862 0.59549 0.22256 1.0145 0.19248 0.32281-0.02406 0.65965-0.04411 0.89223 0.05614 0.58547 0.25263 1.5038 0.25263 1.8085 0.24662-0.02 0.26266-0.14436 2.4361-0.14436 2.4361l-0.3188 4.8481c-0.0541 0.26867-0.49724 2.4622-0.49123 3.5669 6e-3 0.20251 0.0221 0.36692 0.0521 0.4772l0.13434 0.52331c0.12431 0.55338 0.26065 1.1769 0.62958 1.4095 0.17042 0.10827 0.37092 0.1183 0.6015 0.02607 0.56742-0.23058 1.0005-0.87018 0.9965-1.5138 0-0.38697-0.0581-0.77995-0.10025-1.0867l-0.0321-0.25664-0.014-0.24862c-8e-3 -0.98446 0.26667-3.605 0.37895-4.6577l0.0421-0.37494c0.0802-0.79198 0.66968-4.6837 0.73384-5.1168l0.61755-0.22857 0.86817 0.21454c0.10827 0.17043 0.6396 0.94637 1.0627 1.0025 0.4792 0.07218 0.88021-0.40501 0.98246-0.66567 0.0341-0.09223 0.0401-0.25063 0.0401-0.4371-6e-3 -0.37494-0.0541-0.84411-0.0702-0.97043l-4e-3 -0.05815-1.0546-0.95639c-0.34086-0.34486-1.7364-0.49123-2.1654-0.52932 0.012-0.21654 0.0622-1.0025 0.0622-1.0025 4e-3 -0.24461 0.44511-5.177 0.65364-5.8687 0.21453-0.6777 0.36291-2.1614 0.35689-2.8391l-6e-3 -0.1985 0.0642-0.52932c0.0541-0.33283 0.1223-0.7579 0.1223-1.1609-6e-3 -0.36692-0.0682-0.71379-0.26266-0.95238-0.23458-0.28872-0.9203-0.38095-1.4416-0.2807"/>
			<path d="m244.89 75.621c-0.86015 0.77995-1.2531 1.6241-1.217 2.5805 0.0541 1.4296 1.2772 2.9193 2.001 3.6812l0.45313 0.47519c1.1088 1.1509 2.9554 3.0677 3.1118 4.0281 0.19248 1.1489-0.11629 2.5444-0.40501 2.8832-0.16241 0.18647-1.0085 1.1048-1.9709 0.97244-0.95639-0.13033-2.5865-0.8-2.6787-1.193-0.0722-0.30075-0.0521-0.61955-0.0341-0.9564l8e-3 -0.66767c-0.018-0.44912-0.2386-0.92431-0.55338-1.189-0.20652-0.17243-0.10226-0.3609-0.34086-0.33684-0.71178 0.08421-1.7002 0.74787-1.6341 1.608 0.11228 1.4296 0.48722 3.2341 1.6281 3.6953l0.46917 0.19649c1.1068 0.45113 2.2516 0.92231 3.0877 0.95238 1.9348 0.07018 3.3203-0.61354 4.1303-2.0271 1.3053-2.2697 0.92432-4.1103-0.0802-5.3133-0.49925-0.59549-0.7599-1.0647-0.99248-1.4837-0.26667-0.4812-0.49524-0.90226-1.0125-1.3895l-0.75388-0.66166c-0.68973-0.57745-1.2852-1.0827-1.578-1.9308l-0.24462-0.65364c-0.26265-0.68973-0.30677-0.84411-0.11228-1.1589 0.28672-0.47519 1.4657-1.2692 1.6762-1.2291 0.37895 0.06416 1.7163 0.21253 2.0712 0.59148 0.43108 0.45314 1.1389 1.7444 1.7644 1.8667 0.65965 0.1203 1.3434-0.20251 1.4797-0.75188 0.13634-0.54536-0.50928-1.3494-1.177-1.7083l4e-3 4e-3c-0.0782-0.04612-1.7764-1.7524-2.9935-1.9769-1.187-0.22857-3.5088 0.54938-4.1063 1.0927"/>
		</g>
	</g>
</svg>
