<svg width="190.49" height="30.026" version="1.1" viewBox="0 0 190.49 30.026" xmlns="http://www.w3.org/2000/svg">
	<g fill="#595954">
		<path d="m12.574 5.9303s-1.215-1.8246-5.0767 0.014c-3.8677 1.8366-3.7654 2.39-3.974 2.8411-0.20451 0.45113-1.1148 2.9354-1.1729 3.581-0.05013 0.65364 0.02005 4.2807 1.0607 6.4 1.0466 2.1213 2.9454 5.6682 3.9599 6.3379 1.0145 0.67769 1.8386 1.5419 4.413 0.35087 2.5744-1.189 3.2401-1.6521 3.5208-2.819 0.28471-1.1629 0.98446-2.8191 1.1148-3.5008 0.13233-0.68171 0.88622-1.213 1.179-1.1248 0.29073 0.0842 0.89023 0.82206 1.0446 1.4396 0.15639 0.61554-0.92431 3.9519-2.0491 5.5238-1.1228 1.5699-2.5664 2.7048-4.1664 3.2221-1.598 0.51729-4.9885 0.95238-6.9314-1.213-1.9409-2.1654-3.6932-4.8261-4.7058-8.4832-1.0105-3.6572-0.99048-7.5389-0.28672-9.0346 0.70376-1.4998 2.007-3.8837 3.0416-4.373 1.0326-0.48722 3.2401-1.995 4.5213-2.1153 1.2912-0.12432 2.6125-0.69374 3.3865-0.0782s1.6421 0.56141 1.9308 1.59c0.29273 1.0326 0.10827 1.6862-0.78196 1.5358"/>
		<path d="m19.258 0.96429c-0.14236 0.16842-0.18045 0.57344-0.17243 1.0206 0.01403 0.57945 0.10827 1.2251 0.17243 1.5318 0.10827 0.52732 0.19649 1.3193 0.20451 1.8346v0.31078c0.01604 0.61754-0.10025 0.63158 0.11228 1.9749 0 0 0.83008 5.4837 0.92231 6.0692-0.17243 0.0521-1.1509 0.35489-1.3975 0.54336-0.26667 0.21654-0.44511 0.9604-0.45314 0.99048l-6e-3 0.0301 0.01805 0.0281c0.01203 0.014 0.29875 0.40903 0.76592 0.74988 0.41704 0.30476 1.1308 0.0782 1.3554-6e-3 0.03408 0.20051 0.1584 0.90828 0.33885 1.3454 0.1985 0.4772 0.76191 5.5258 0.87018 6.6627l0.07218 1.6321c2e-3 0.15238 2e-3 0.30276 4e-3 0.44712 0.01003 0.39098 0.02807 0.73183 0.0782 0.98446 0.04812 0.25264 0.21454 0.46717 0.4792 0.63159 0.36291 0.22055 0.80401 0.27669 1.0226 0.20651 0.4792-0.16441 0.78998-0.41303 0.92432-0.73985l0.0401-0.28872c-8e-3 -0.33685-0.13835-0.81003-0.23459-1.1569l-0.0802-0.32481c-8e-3 -0.17644-0.39098-4.1604-0.8-5.8426-0.38496-1.588-0.24461-4.5454-0.25865-4.8181l0.90426-0.36692c0.52532-0.21855 1.5579-0.58146 2.2957-0.6777 0.73785-0.0922 1.9368 0.34487 2.2376 0.66567l0.44913 0.42105c0.57544 0.53133 1.4456 1.3333 1.8025 1.9128 0.31078 0.50928 0.45514 1.594 0.58547 2.5504l0.20852 1.3073c0.22456 0.89023 0.0682 3.4948-0.0582 4.3128l-0.21253 1.0787c-0.0922 0.42105-0.16642 0.7579-0.15639 0.94035 0.0261 0.38096 0.83008 0.90427 1.0707 1.0105 0.31679 0.14637 1.2531-0.33283 1.5378-0.61153 0.18847-0.19248 0.14637-0.45514 0.0842-0.85414l-0.0902-1.1348 0.16642-1.6541c0.11429-0.86416-0.16441-1.8366-0.17043-2.801-8e-3 -1.8186-0.27869-3.589-0.7218-4.7338-0.51329-1.3273-1.1368-2.3098-1.8587-2.7529-0.7599-0.45714-2.2095-1.2311-3.0677-1.5158-0.76792-0.25865-1.8105-0.0882-3.0075 0.21654-0.82206 0.21454-1.993 0.63559-2.398 0.76993 0.05414-0.26466-0.24662-0.94637-0.26266-1.6982-8e-3 -0.2386-0.02807-0.46517-0.07619-0.65966l-0.50928-2.388c-0.09424-0.32281 0.20251 0.89223 0.19248 0.25664-0.02005-0.69975 0-1.4737 0.01002-2.0852l0.01002-0.96442-0.12231-0.86015c-0.08622-0.54336-0.19449-1.195-0.20251-1.6962l8e-3 -0.33684 0.01002-0.22256c-0.01604-0.70978-0.47118-1.3795-0.94436-1.6822-0.49925-0.32481-1.3975 0.09223-1.6922 0.43709"/>
		<path d="m39.677 3.6003c-0.4812 0.0762-1.2612 0.40501-1.5038 0.79198-0.24662 0.38496-0.4792 0.91028-0.37093 1.2692 0.11228 0.36892 0.39499 0.67168 0.69374 1.2592 0.30075 0.58546 0.81002 0.87419 1.207 0.84612 0.39499-0.0241 1.6341-0.89023 1.6401-1.4456 0.0181-0.5574 0.0662-1.2552-0.0942-1.6662-0.15639-0.40502-1.5719-1.0546-1.5719-1.0546m-0.30476 7.8637c-0.31278 0.15639-0.86216 0.4772-1.0025 0.88622-0.0662 0.18847-0.0662 0.52933-0.0662 0.9584l-0.0361 1.1409c-0.0702 0.78998-0.30476 4.6136-0.18446 5.9328l0.0441 0.46316c0.14035 1.4737 0.397 4.2085 0.34286 4.6216-0.0521 0.40502-0.0321 1.191 0.35489 1.5659 0.20852 0.2005 0.48922 0.26266 0.8381 0.18647 1.207-0.26266 1.4356-0.6777 1.4035-1.215l-0.15038-0.93033c-0.10426-0.56341-0.22456-1.195-0.22456-1.6261l-0.0381-1.8146c-0.0381-1.7023-0.0962-4.0381-0.0581-4.403l0.02-0.20451c0.0622-0.71579 0.26065-2.8872 0.47319-3.2622 0.2426-0.43709 0.39097-1.2792-0.0662-1.6962-0.42707-0.39699-1.5639-0.59749-1.612-0.60752l-0.02-6e-3z"/>
		<path d="m45.867 2.5403c-0.38671-9e-3 -0.7866 0.0469-0.95703 0.16016-0.23057 0.1604-0.56656 0.85084-0.56054 1.4824v0.0234l0.0293 0.18164c-0.0158 0.0199-0.0437 0.0383-0.0566 0.0586-0.24261 0.38296-0.4754 0.90277-0.36914 1.2637 0.11028 0.36892 0.39271 0.6705 0.68945 1.252 0.10869 0.20801 0.24795 0.3638 0.39454 0.4961 0.0675 0.43248 0.16143 0.9029 0.27734 1.4219 0.17444 0.75991 0.35253 1.5503 0.39062 2.1738l0.125 1.7461 0.29297 4.6133 6e-3 0.23242 6e-3 0.19336c0.0221 2.4902-0.45397 6.9089-0.57226 7.2578-0.0962 0.28471-0.22091 0.71565-0.21289 1.2129v0.0391l0.0215 0.30274c0.0802 0.60351 0.57288 1.0258 1.002 1.1621 0.37294 0.1203 1.1222-0.17187 1.5332-0.39844 0.29874-0.16441 0.22832-0.80943 0.16015-1.3809l-0.0547-0.55469c-0.0421-0.72381 0.11849-1.6118 0.44531-3.1035 0.29474-1.3434 0.2259-4.9246 0.17578-7.5352l-6e-3 -0.15234c-0.0381-1.8587-0.47675-4.4033-0.77149-6.1035l-0.24609-1.5156c-0.072-0.53516-0.10021-0.97824-0.11523-1.377 1e-3 -0.14109 4.5e-4 -0.27305-8e-3 -0.40625-2e-3 -0.28174-3e-3 -0.56533 2e-3 -0.7832l8e-3 -0.19141c8e-3 -0.54336-0.43065-1.1221-0.69531-1.4609l-0.0586-0.0781c-0.11528-0.14837-0.48828-0.22315-0.875-0.23242z"/>
		<path d="m61.807 0.17829c-0.37694 0.37494-0.42907 1.2471-0.41504 1.9068 6e-3 0.26667 0.0241 0.50326 0.0341 0.64963l0.01 0.12632c6e-3 0.31679-0.30075 1.9408-0.54937 3.2521l-0.20852 1.1088c-0.25665 1.3835-0.45314 5.1509-0.45113 5.5198l-3.4948-0.0722c-1.3113 0.0822-1.9509 1.201-2.9213 2.3058l-0.88421 0.97644c-1.4055 1.4877-1.0306 4.0221-0.98447 6.3499l0.02 1.0386c0.0662 3.0396 3.4226 3.8496 3.5669 3.8797 0.97444 0.22657 2.4461-0.18646 3.5048-0.57343 0.94236-0.34086 1.6942-1.5038 1.9068-1.8607 0.0742 0.15839 0.19449 0.44912 0.20652 0.62957l-0.02 0.27469-0.0221 0.34286c4e-3 0.15038 0.0301 0.30677 0.11229 0.47118 0.20651 0.41303 0.90025 0.8 1.3814 0.87218 0.45113 0.0642 0.94236-0.30476 1.2491-0.94837 0.0862-0.16842 0.11228-0.40702 0.10426-0.69173-8e-3 -0.36893-0.0742-0.81404-0.14035-1.2752l-0.13835-1.1449c-0.0321-0.55539-0.27669-1.7203-0.53333-2.9574-0.2406-1.1549-0.42306-2.3018-0.53334-3.1559-0.0361-0.25263-0.0541-0.52531-0.0601-0.81604-0.0221-0.94837 0.0862-2.0311 0.17645-2.9434 0.0682-0.68772 0.0561-1.3414 0.0481-1.7384l-4e-3 -0.0982-0.012-0.29674c-0.0281-1.2211 0.0882-3.9419 0.21654-4.4471 0.14636-0.58948 0.73384-3.4526 0.82206-4.0782l0.18646-0.65965c0.0822-0.22857 0.15439-0.42907 0.15238-0.65363l-0.0301-0.21053c-0.11429-0.49724-0.8782-1.0927-2.1133-1.2511-0.22256-0.03409-0.0321 0.02005-0.18246 0.16842m-1.4757 16.052c0.0401 0.68772-0.0481 0.69774 0.0261 1.9629 0.0722 1.2652-0.29674 4.1704-0.93434 5.4316-0.63158 1.2572-1.7564 2.017-3.216 2.1674-1.4637 0.14636-1.5439-1.2211-1.9348-1.7865-0.38697-0.5554-0.30677-1.8346-0.29474-2.4642 0.014-0.63961 0.0421-2.797 0.29474-3.6572 0.25263-0.86617 1.3614-1.8887 1.8787-2.5564 0.5173-0.66968 1.9028-0.70978 2.4441-0.90627 0.54737-0.19248 1.5539 0.33885 1.5539 0.33885 0.0221 0.68572 0.14436 0.78196 0.18246 1.4697"/>
		<path d="m67.627 14.77c-0.0321 0.0261-0.88622 0.77795-0.79399 1.5759 0.0601 0.50126 0.401 0.53133 0.65364 0.55138 0.20852 0.02 0.32681 0.0381 0.3609 0.17845 0.0541 0.21253 0.19248 1.2812 0.33885 2.4201 0.1624 1.3013 0.33484 2.6546 0.42907 3.1118 0.0722 0.33885 0.10025 0.89825 0.13434 1.4877 0.0481 0.92832 0.10426 2.2757 0.32281 2.7208 0.38095 0.78196 1.6561 0.71178 2.0511 0.60351l0.22256-0.20251c0.10426-0.1985 0.14636-0.53133 0.13834-0.93233-0.014-0.52331-0.1223-1.5579-0.30877-2.1594-0.29674-0.94837-0.40301-1.8627-0.51328-2.8251l-0.0962-0.81605c-0.1564-1.2311-0.2767-4.6276-0.28271-4.8301l0.73384-0.63559c0.2827-0.2807 1.4015-0.71579 2.4782-0.8782 0.72181-0.11027 1.0446 0.28672 1.3313 0.63359l0.41504 0.39699c0.4792 0.26466 1.0346 0.17644 1.5559-0.23659 0.47318-0.37494 0.50727-0.75389 0.56942-1.3895l0.0261-0.26266c0.0742-0.6817-0.88622-0.82005-1.4576-0.90827l-0.36291-0.0682-0.12431-0.0401c-0.36892-0.12431-0.92231-0.30877-1.997-0.24261-1.0767 0.0682-2.8952 0.56542-3.2201 0.65364-0.0321-0.21454-0.21454-1.2471-0.397-1.5419-0.21654-0.34086-1.5058-0.6376-2.001-0.45715-0.5193 0.18045-0.61554 0.99249-0.4812 1.7183 0.13033 0.67169 0.27268 2.3639 0.27469 2.378z"/>
		<path d="m85.877 12.08c-0.43509 0.13434-0.84812 0.15439-1.215 0.16642-0.49323 0.0241-0.88221 0.0361-1.0486 0.35088-0.24462 0.46717-1.5018 1.2892-1.6381 1.3434-0.0642 0.0261-0.45113-0.016-0.80001-0.0702-0.012-0.15438-0.0822-0.82606-0.42105-1.0206-0.38898-0.22256-1.3414-0.67569-1.8005-0.0922-0.20852 0.27268-0.29875 0.51729-0.29273 0.78597 8e-3 0.2807 0.11829 0.59148 0.30075 0.98647 0.31278 0.66566 0.94236 1.5519 1.0366 1.6802-0.11028 0.11028-0.4772 0.52732-0.65164 1.3875-0.0541 0.28872-0.17042 0.98446-0.15238 1.7724 0.012 0.57143-0.45915 1.5499-0.23258 2.1053 0.14436 0.35088 0.21654 0.90427 0.29474 1.4877 0.15438 1.1469 0.57945 2.8972 1.3694 3.3825l2.2055 1.3213 1.6642 0.50526c0.42105 0.25664 1.209 0.26466 1.8466 0.27068 0.37494 2e-3 1.3714-0.12231 1.5378-0.0702 0.67569 0.20452 1.1268 0.10025 1.3915-0.33283l0.0541-0.32682c-0.0882-0.36491-0.64161-0.68973-1.2251-1.0366l-0.28872-0.17244c-0.33885-0.20852-1.7524-0.25664-2.5404-0.43508-1.0647-0.24261-2.5985-0.28472-3.0456-0.69374-0.73784-0.68371-1.2491-4-1.2612-4.6116v-0.0501c8e-3 -0.38697 0.69574-1.8647 0.74386-2.2817 0.41905 0.58547 2.2677 3.0436 4.2346 3.2321l2.1815 0.28671c0.57143 0.0902 0.9163 0.14437 1.2792 0.10226l0.54136-0.0581c0.57945-0.0521 1.177-0.11027 1.4296-0.29874l0.18647-0.1183c0.32681-0.20251 0.73383-0.45514 0.72982-1.1669v-0.45514c2e-3 -0.9183 8e-3 -2.3038-0.26266-3.2501-0.3228-1.1388-1.3754-3.1739-1.7684-3.5409-0.38697-0.3589-1.2972-1.195-2.1574-1.187l-0.68171-0.0421c-0.44712-0.0421-0.83208-0.0862-1.5439 0.14436m3.9278 7.6151s-0.52331 0.33283-1.596 0.53534c-1.0747 0.19649-2.2857-0.55138-3.2842-1.1409-0.99449-0.59148-2.412-2.7649-2.412-2.7649s0.27669-0.93033 0.69173-0.96041c0.41705-0.0221 1.9048-0.94837 2.5203-1.2471 0.60351-0.30276 1.0747-0.11428 1.9068-0.12631 0.83609-0.01 0.97043 0.85213 1.2852 1.2231 0.31279 0.37293 0.57143 1.2291 0.77394 2.5303 0.2005 1.2892 0.11429 1.9509 0.11429 1.9509"/>
		<path d="m95.917 11.64-0.01 0.0181-4e-3 0.018c-4e-3 0.0702-0.13835 1.6542-0.12832 2.2176 4e-3 0.22857-0.1203 0.95238-0.25865 1.7925-0.2005 1.185-0.44912 2.6567-0.52331 3.7414-0.13233 1.8887-0.59749 5.0126-0.77795 5.4737-0.20852 0.52331-0.13634 0.88822 0.0942 1.4697 0.25263 0.6356 0.39298 0.78196 1.3293 0.86216 0.25263 0.0181 0.44511-0.0561 0.57343-0.22656 0.26667-0.34487 0.19249-0.98647 0.14637-1.3714l-0.014-0.13634c-0.0481-0.4391-0.014-1.4998 0.27268-2.6526 0.30276-1.213 0.46115-3.8917 0.45514-4.2426-4e-3 -0.34687 0.20852-1.1208 0.56742-1.3514 0.41704-0.26265 0.7579-0.62356 1.0105-1.0667 0.18847-0.33483 0.46516-0.42506 0.97243-0.58947l0.60752-0.21053 0.93434-0.37694c0.44712-0.19449 0.798-0.34286 1.1268-0.40502 0.49324-0.0982 1.0948 0.31078 1.6542 1.1148 0.37694 0.54336 0.19649 2.007 0.0662 3.0737l-0.11228 1.0968-0.12632 6.0532-0.24862 0.38296c-0.13834 0.18246-0.18847 0.40902-0.15438 0.65564 0.0521 0.39699 0.3228 0.74186 0.49524 0.85815 0.31077 0.21253 0.68972 0.46917 1.0045 0.41504 0.3589-0.0601 1.0025-1.0526 1.1088-1.8587 0.0902-0.62556 0.0461-2.378 0.016-3.5389l-0.016-0.84611c-6e-3 -0.41504 0.0822-1.1689 0.18045-2.0431l0.26667-2.787c0.0762-1.4877-0.28071-2.0992-0.65565-2.7449l-0.2406-0.42306c-0.47519-0.91028-1.3995-1.3654-2.3298-1.7263-0.77795-0.29875-1.2712-0.1183-1.9509 0.12632l-0.88822 0.29473c-0.99248 0.2767-1.9629 0.80402-2.3378 1.0246 0.11428-0.26266 0.36491-0.83409 0.36491-0.83409l0.0341-0.34286c-0.014-0.41303-0.16442-0.99248-0.24261-1.219l-0.0341-0.0902c-0.0982-0.29273-0.15639-0.33283-0.8782-0.3609-0.83007-0.0321-1.3293 0.72381-1.3494 0.75589"/>
		<path d="m109.41 7.3503-0.1584 0.22256c-0.32682 0.41504-1.1268 2.3358-1.1609 2.416l-4e-3 0.014v0.014c-0.01 0.10627-0.0481 1.0827 0.0722 1.3474 0.17644 0.37093 1.3694-0.0822 1.3835-0.0882 0.34687-0.12832 0.62958-1.4155 0.66166-1.5659-4e-3 0.02 0.3208-0.47719 0.99649-0.96842 0.40502-0.29274 0.63158-0.82206 0.56742-1.3133-0.0581-0.41905-0.31679-0.73584-0.73384-0.88221-0.86616-0.30877-1.3213 0.3589-1.6241 0.80401"/>
		<path d="m113.46 11.76c-0.85815 0.76993-1.2531 1.614-1.205 2.5764 0.0642 1.4376 1.3213 2.9594 2.0632 3.7374l0.46316 0.4792c1.1549 1.189 3.0897 3.18 3.2622 4.1825 0.21053 1.211-0.0962 2.6306-0.41103 2.9955-0.16842 0.19448-1.0466 1.1449-2.0792 1.0005-0.95439-0.14035-3.1599-1.0045-3.2762-1.4737-0.0762-0.31078-0.0642-0.6416-0.0481-0.99649l8e-3 -0.67369c-0.0241-0.42105-0.23458-0.8802-0.52531-1.1409-0.20251-0.18245-0.43309-0.26466-0.66968-0.2406-0.68371 0.0722-1.6742 0.73183-1.6 1.5579 0.12631 1.4456 0.5193 3.2642 1.6622 3.7334l0.50125 0.20852c1.1288 0.46517 3.0797 1.0025 3.9238 1.0426 1.9569 0.0882 3.3544-0.58546 4.1604-1.997 1.3053-2.2877 1.4777-4.377 0.45113-5.58-0.52331-0.61754-0.798-1.1048-1.0386-1.5398-0.2787-0.48522-0.51729-0.91229-1.0386-1.4115l-0.77795-0.6817c-0.7218-0.60351-1.3414-1.1228-1.6602-2.013l-0.25865-0.67369c-0.26065-0.67369-0.34085-0.87419-0.1203-1.2331 0.31479-0.5213 0.7599-0.5213 0.9985-0.47719 0.39098 0.0722 1.3253 0.34887 1.7103 0.75388 0.4411 0.46316 1.3835 1.203 2.015 1.3313 0.6356 0.1223 1.7564-0.29073 1.8847-0.81404 0.12832-0.52933-0.5213-1.3293-1.187-1.6862-0.0822-0.0481-2.0511-1.219-3.2902-1.4637-1.1769-0.23458-3.3323-0.0321-3.9178 0.49725"/>
		<path d="m127.55 6.5003s-0.0261-2.0932 0.76793-2.5123c0.8-0.41905 0.30676-0.66166 1.5138 0.38095 1.201 1.0406 0.23859 2.7409 0.35488 3.1379 0.11429 0.401 0.50527 2.1033 0.72382 4.8722 0.21854 2.777 1.1348 5.0266 1.1348 5.0266l2.2958 7.7674s1.3373-3.1218 1.9408-5.1268c0.59951-2.013 0.68572-4.2627 1.0907-5.4577 0.401-1.197 1.1028-3.4887 1.2491-4.1965 0.14837-0.70577 0.3188-2.7008 0.3188-2.7008s0.63158-0.45715 1.2271-0.31078c0.59349 0.15238 1.6842 1.1048 1.8065 1.6281 0.11829 0.52531 0.0882 1.6281 0.0882 1.6281s1.4015 3.9178 2.2035 6.406c0.80402 2.4862 1.59 4.9584 1.977 5.4877 0.38898 0.53133 1.1028 1.3233 1.1028 1.3233s1.7344-3.3744 1.9469-5.977c0.21454-2.5985 0.44712-6.7208 0.57744-8.1745 0.10828-1.2271-4e-3 -3.8376 0.0642-4.7098 0.0401-0.54336 0.54737-2.0892 1.9028-1.3173 1.3594 0.77394 1.1709 1.195 1.0366 2.4602-0.13433 1.2632-0.20852 2.3679-0.39899 3.4326-0.19048 1.0606-0.16843 3.5128-0.51329 4.8441-0.34887 1.3374-0.48521 3.7213-0.52331 4.4552-0.0401 0.73384-0.69775 2.9474-0.94236 4.1905-0.2406 1.2351-0.53333 2.7409-0.68171 3.3805-0.14636 0.6396-0.7619 1.3093-1.1408 1.215-0.37695-0.0922-1.2211 0.31879-1.9469-0.97645-0.72581-1.2932-2.0311-3.2902-2.7048-4.6918-0.67369-1.4035-3.4146-9.3354-3.4146-9.3354s-0.77594 3.0998-1.2371 4.0341c-0.46517 0.93234-0.72983 3.0556-1.0727 4.387-0.35088 1.3333-1.1068 4.2486-1.4657 4.9604-0.3589 0.71179-0.57745 1.987-0.56542 2.5444 0.01 0.56342-0.12631 1.588-1.207 1.4356-1.0727-0.14837-1.4797-0.46717-1.606-1.4276-0.13032-0.9624-0.16441-0.27268-0.66968-1.4476-0.50927-1.179-2.1875-5.8727-2.382-7.4045-0.19248-1.5298-1.7123-7.4086-1.8386-8.2406-0.12431-0.8381-1.0125-4.9905-1.0125-4.9905"/>
		<path d="m159.26 5.2303c-0.35289-0.0341-1.8686 1.3034-1.8125 1.5801 0.0702 0.33684 0.0234 1.1406 0.0234 1.1406 0.99048 1.0486 1.663 0.82282 2.082 0.65039 0.42106-0.18245 0.80072-0.0834 1.2559-0.85937 0.45314-0.77795 0.36912-1.191-0.1582-1.7363-0.52932-0.54136-1.0398-0.74331-1.3906-0.77539zm-0.72266 5.5723c-1.4697 0.12833-1.584 2.127-1.584 2.127s0.35056 1.5202 0.23828 2.7754c-0.11629 1.2592-0.32489 2.3306-0.52539 4.1973-0.20251 1.8667 0.32314 4.3888 0.28906 4.9883-0.0361 0.59749-0.0288 1.6343-0.125 1.9551-0.10426 0.31078 0.58324 1.5905 2.3476 1.1875 1.181-0.27268 0.37731-1.6593 0.2129-2.373-0.16241-0.70978 0.0227-2.8318-0.17383-4.4258-0.19449-1.594 0.0599-2.9214 8e-3 -4.1465-0.0541-1.2271 0.10555-2.0068 0.4043-2.9531 0.30275-0.94838 0.39695-1.6961 0.3789-2.043-0.0221-0.34086 9.8e-4 -1.4174-1.4707-1.2891z"/>
		<path d="m166.26 8.8003c-0.65163 0.38296-1.6842 1.2311-2.0251 1.5619-0.37093 0.35288-1.0326 1.4757-1.1549 2.2456-0.19248 1.203-0.0782 2.2136 0.34085 2.9915 0.26467 0.49925 1.2491 2.1454 2.8491 2.5684 0.74186 0.20051 1.1268 0.48321 1.4657 0.73184 0.20651 0.15438 0.399 0.29874 0.63358 0.38897l1.1489 0.33484c0.5975 0.1604 1.5018 0.39699 1.6602 0.52732 0.15438 0.1223 0.38697 0.42306 0.59148 0.68772l0.50125 0.5975c0.14436 0.13834 0.19248 0.23258 0.26868 0.37894l0.19849 0.34687c0.19649 0.28672 0.38697 0.68973 0.37895 0.94036-4e-3 0.0782-0.0281 0.13634-0.0742 0.18646-0.42908 0.4391-1.3193 1.209-2.4441 1.4276l-0.21053 0.0461c-1.0887 0.21655-1.8727 0.37294-2.5805-0.20651-0.83409-0.68572-1.181-0.78597-1.217-0.79399l-0.0221-2e-3h-0.0221c-0.31479 4e-3 -1.0707 0.0421-1.2832 0.26066-0.25664 0.26666-0.53935 1.2411-0.26867 1.8045 0.17844 0.37093 0.39899 0.4772 0.8 0.66367l0.74787 0.37694c1.0145 0.5594 2.4401 0.49323 3.198 0.401 0.68772-0.0782 3.202-0.81203 4-1.7163l0.2386-0.25665c0.66366-0.72782 1.3474-1.4697 0.98446-2.9654-0.30676-1.2652-0.66967-1.8446-0.88621-2.1915l-0.1163-0.19248c-0.19047-0.34486-0.92631-1.2772-1.612-1.5118l-0.85414-0.35088c-0.69775-0.30276-1.5639-0.66767-2.2576-0.84612-1.0085-0.24862-2.5003-1.1629-2.8892-1.4958l-0.23258-0.19248c-0.36692-0.29474-0.77995-0.62757-0.94436-1.1408-0.20451-0.64161-0.22858-1.8526 0.37093-2.4261l0.1604-0.14837c0.56541-0.54536 1.205-1.1529 1.4897-1.1749 1.2652-0.0842 2.4341 0.62958 2.5905 0.78396l0.32883 0.38898c0.21253 0.27268 0.42707 0.54937 0.71779 0.50727 0.2366-0.0381 0.94236-0.29073 0.99449-0.73785l0.016-0.82607-4e-3 -0.012c-0.01-0.0521-0.2025-1.3033-0.86617-1.4436l-1.7323-0.399c-0.26467-0.0622-2.3018-0.5193-2.9775-0.1183"/>
		<path d="m178.91 1.8553c-0.43509 0.4411-0.4411 1.2612-0.40501 1.5559l4e-3 0.0441c0.0401 0.32081-0.0261 3.3544-0.0882 3.9699-0.0622 0.6396-0.14235 3.2842-0.10426 3.8476 0.0361 0.52131-0.14436 1.4897-0.18045 1.6722-0.11228 0.014-0.48321 0.0722-0.62356 0.14035-0.19649 0.10025-0.44311 0.43108-0.37694 0.96843l0.02 0.12631c0.11428 0.57143 0.75188 0.62356 0.94637 0.62356-0.01 0.11028-0.26667 3.6471-0.26667 3.6471-0.0301 0.30476-0.0361 1.3273-0.0421 2.41-6e-3 1.1749-0.01 2.388-0.0501 2.8832-0.0401 0.53734-0.17644 1.189-0.29875 1.7584l-0.21855 1.185c-8e-3 0.0842-8e-3 0.15839 0 0.23058 0.0742 0.58947 0.69173 0.85012 1.0466 0.91027 0.3589 0.0582 1.0186-0.39699 1.612-0.73383 0.46717-0.26066 0.41704-1.4196 0.36491-2.5424l-0.022-1.3674c0.0742-1.2311-8e-3 -4.9444-0.0802-5.9469-0.0662-0.90627 0.14636-2.9995 0.16441-3.188 0.17644-0.0682 2.0451-0.7579 2.4241-0.86417 0.38496-0.11228 2.1474-0.60952 2.5704-0.55138 0.40702 0.0501 1.3554 0.6376 1.7764 1.0988 0.42907 0.46918 1.0145 2.376 1.0847 3.1439 0.0561 0.58947-0.36893 5.2872-0.57143 7.0637l-0.12432 1.1669c-0.0301 0.40301-0.13834 0.85013-0.34085 1.3754-0.0602 0.15238 0.02 0.34686 0.22657 0.56541 0.38897 0.40903 1.4536 0.63158 1.7985 0.48722 0.51529-0.21253 0.62156-0.95439 0.65564-1.6541 0.0221-0.4411 0.14837-1.203 0.26266-1.8747l0.16842-1.1188c0.0421-0.49324 0.3569-6.2837 0.21855-7.2562-0.13634-0.92432-0.83208-2.7469-1.3153-3.4246-0.49925-0.69373-2.2436-1.0667-4.2506-1.2992-1.8847-0.21454-4.014 0.95038-4.5313 1.1669 0.0441-0.18245 0.34486-1.4176 0.34486-1.4176l0.11629-1.0767 4e-3 -0.0461 0.012-0.60351c4e-3 -0.85414 0.012-3.5328 0.1985-4.1845l0.23258-0.91028c0.0962-0.43309 0.17644-0.76793 0.30276-0.99048 0.0541-0.0982 0.16441-0.33685 0.13033-0.59549-6e-3 -0.0682-0.0241-0.13835-0.0541-0.21053-0.15839-0.36492-0.59749-0.62156-1.3073-0.76391-0.4772-0.09023-1.1669 0.31078-1.4336 0.57945"/>
	</g>
</svg>
