<svg width="198.73" height="35.664" version="1.1" viewBox="0 0 198.73 35.664" xmlns="http://www.w3.org/2000/svg">
	<g fill="#595954">
		<path d="m15.24 5.5972-0.53133-0.16241-0.19449-0.09023c-0.61554-0.29875-1.5479-0.75188-3.3364-0.78998-1.604-0.0401-6.0231 1.582-7.2 1.981-0.07619-0.75389 0.14236-3.2882-0.11629-3.7835-0.41704-0.78196-0.85815-1.1449-1.8045-0.84411-0.7198 0.21855-0.61755 0.93634-0.61755 1.6842 0 0.53334 0.09624 1.0807 0.16441 1.4917 0.06015 0.34286 0.0802 0.74787 0.0802 1.1529 0 0.85815 0.16241 1.9669 0.12832 2.2577l-0.25664 0.19649c-0.05815 0.06015-1.7223 0.91429-1.5419 2.5504 0.12431 1.1449 0.85815 1.2872 1.2952 1.3734 0.33684 0.06817 0.80602-0.39098 0.82406-0.31679 0.08622 0.38496 0.62557 3.1178 0.86617 5.1329 0.29073 2.4441 0.42506 5.3514 0.58948 6.2176 0.12231 0.62356 0.18045 1.6461 0.2406 2.7288 0.10025 1.7504 0.20251 3.5569 0.58346 4.4572 0.66767 1.582 1.2331 1.2351 1.9148 1.0707l0.17644-0.0421c0.24261-0.05013 0.17845-0.13434 0.31679-0.37494 0.17444-0.30075 0.05213-1.0266 0.05213-1.5078 0-1.0145-0.30677-1.8286-0.52732-2.6466-0.42506-1.5419-0.55138-3.0917-0.68572-4.7318l-0.21654-2.2897c-0.25664-2.1213-0.93634-9.8326-1.0446-11.162 0.4772-0.31278 2.9534-0.86617 3.3965-1.0887 0.2787-0.13434 1.6261-0.74587 2.4-0.73384 0.81003 0.01404 2.6506-0.25664 3.3323 0.01604 1.0486 0.42707 1.6501 2.2456 1.9409 3.2161 0.29474 0.97243 0.15639 2.5744-0.16241 3.0176-0.52532 0.72983-1.3915 1.2732-2.2055 1.5178-0.81604 0.24261-2.1895 1.0105-2.9995 1.2511-0.81604 0.24662-2.1815 0.79599-2.7649 0.9183-0.58146 0.1203-2.2857 0.37093-2.2857 0.37093s0.36291 1.6842 0.65564 1.8045c0.29073 0.12431 4.4672 1.7785 5.0547 2.1955 2.6186 1.8827 3.0015 3.3364 4.9785 5.0426 1.7263 1.4957 1.3153 0.79198 2.6526 2.9073 0.22857 0.35689 1.1188 1.3173 1.4677 1.3173 0.34486 0 1.5459 0.06617 1.604-0.96842 0.05414-1.0366-2.6807-3.4045-4.0862-5.1168-1.1649-1.4135-2.0211-1.7444-2.6607-2.7128-0.2386-0.3609-1.9168-1.582-2.801-2.2737-0.23459-0.17845-2.5684-1.0627-2.5684-1.0627s4.5374-1.185 5.1449-1.5679c1.4957-0.94236 2.6186-2.1935 2.9113-3.8697 0.17043-0.97845 0.64161-2.2797 0.2386-3.5509-0.41303-1.2732-1.7123-3.7995-2.402-4.1825"/>
		<path d="m28.014 4.6142-0.22857 0.51128-0.80401 1.0226-0.18246 0.41303c-0.02206 0.13434-0.05815 0.33283-0.54136 1.0186-0.81404 1.1549-1.1328 1.8647-1.1469 1.8967-0.04411 0.07419-0.30677 0.56341-0.30677 0.87419v0.04411c0.03007 0.39699 0.19048 0.62356 0.46316 0.68171l0.17845 0.12832c0.11629 0.10226 0.26065 0.2386 0.44512 0.19048 0.16441-0.03609 0.31479-0.20251 0.46316-0.36291l0.15038-0.15639c0.19649-0.13634 0.38296-0.45915 0.38296-0.90226l-2e-3 -0.03208c0.19649-0.34085 0.71579-1.2511 0.77394-1.4777l0.16842-0.18045 0.24662-0.28271 0.19449-0.2406 0.13835-0.1604c0.07018-0.01604 0.21053-0.06216 0.24862-0.25063l0.17845-0.35689 0.0401 0.05414 0.28872 0.33484c0.16642 0.15639 0.36892 0.3589 0.44912 0.53534 0.16241 0.3609 0.29674 0.47118 0.44712 0.58948l0.05213 0.0381c0.03008 0.03809 0.13835 0.27669 0.22456 0.46316 0.30877 0.67369 0.5574 1.1609 0.85414 1.2732 0.3208 0.1203 0.89624 0.2787 1.1308-4e-3 0.12632-0.16241 0.33885-0.54336 0.36291-0.75389l8e-3 -0.06817c0-0.22055-0.08221-0.75389-0.30476-0.89223-0.10827-0.07419-0.79399-0.72582-1.3795-1.4236l-1.2812-1.5479-0.03008-0.42506c-0.04411-0.22055-0.26867-0.43108-0.50126-0.62557-0.1604-0.12832-0.4391-0.08622-0.58747-0.05414-0.13835-0.03609-0.44311-0.09023-0.59348 0.12832m6.374 16.419s-0.68973 0.52331-1.7985 1.0747c-1.0767 0.53133-2.3699 0.57945-3.5549 0.4371-1.183-0.14637-3.4466-1.8627-3.4466-1.8627s-0.14035-1.199 0.2386-1.4476c0.37494-0.25263 1.3714-2.0812 1.8105-2.7369 0.4411-0.66166 0.8782-1.1308 1.6521-1.58 0.77594-0.45113 1.6261 0.68572 2.0792 0.94035 0.45915 0.26266 1.3053 0.88822 2.0511 2.2436 0.74587 1.3634 0.96842 2.9313 0.96842 2.9313m0.2005-4.8702c-0.77191-1.0907-2.6145-2.8351-3.1398-3.0396-0.53334-0.20852-1.7083-0.66767-2.4822-0.22055-0.77394 0.44912-1.199 0.3589-2.015 1.2692-0.81805 0.90226-1.8346 1.0266-1.8667 1.7263-0.03208 0.69775-0.8802 2.3038-0.97444 2.4301l-0.85213 0.37293s-0.40301-0.90426-0.80602-0.94436c-0.40902-0.04411-1.4877-0.06817-1.6481 0.78196-0.16842 0.84612 0.1183 1.2732 0.73985 1.9088 0.62557 0.64161 1.7323 1.3895 1.7323 1.3895s-0.26065 0.72983-0.02807 1.9308c0.2406 1.199 0.78998 2.8732 1.6481 3.8456 0.86617 0.97244 1.8105 2.4501 3.208 2.6326 1.3955 0.19248 2.5885 0.14436 3.3684 0.24662 0.77394 0.11028 2.1494 0.15439 2.6466 0.07218 0.49724-0.08421 1.0326-0.31078 1.1008-1.0366 0.07218-0.7198-0.61354-1.3815-1.5439-1.5118-0.92832-0.12431-3.2361 0.81203-4.2907 0.399-1.0546-0.41504-3.5248-2.7168-3.7233-3.2702-0.19449-0.54938-0.03409-1.8366-0.03409-1.8366s3.3103 2.4381 5.4376 1.5278c2.1293-0.91028 2.807-0.9183 3.3905-1.3654 0.57945-0.44912 1.4677-0.97244 1.6622-1.4035 0.1985-0.4411-0.01604-0.93434-0.37895-1.8667-0.3589-0.93233-0.37494-2.9434-1.1509-4.0381"/>
		<path d="m37.084 11.732s-0.1203-0.66968 0.08421-0.6777c0.20652-6e-3 0.61354-0.05013 0.82206 0.01203 0.20251 0.06817 0.62356 0.33885 0.72381 0.37494 0.10627 0.02807 0.58547-0.01604 0.59549 0.37494 6e-3 0.39098 0.14637 0.56542 0.36692 1.0967 0.21855 0.5213 0.79399 1.7223 0.80602 2.1133 0.01002 0.39098 0.11028 0.35088 0.39499 0.84211 0.28471 0.49324 0.65364 1.588 0.73985 2.404 0.09022 0.81805 0.57344 1.8366 0.82005 3.5389 0.24862 1.7063 0.9965 2.5945 0.9965 2.5945s0.20852 0.17243 0.21454 0.34687c2e-3 0.18246 0.1183 0.6396 0.1183 0.6396s0.28672-0.86015 0.70777-1.6541c0.43108-0.79399 1.2993-2.8531 1.616-3.8637 0.3168-1.0065 0.91028-4.1905 1.0366-4.6196 0.12832-0.43108 0.77394-1.979 0.83208-2.1975 0.0662-0.20852 0.11228-1.0687 0.41905-1.1469 0.30477-0.0782 0.65364 0.12632 0.93033 0.29674 0.2787 0.17043 0.65765 0.33885 0.66567 0.69374 0.01 0.35288-0.0782 0.89424-0.31078 1.187-0.23258 0.28672-0.73785 2.0832-0.98446 3.1238-0.25063 1.0426-0.52131 2.5444-0.93434 3.9399-0.40702 1.4015-1.3474 3.4988-1.3474 3.4988s-0.11629 0.86015-0.30877 1.2211c-0.19649 0.3589-0.50125 0.43509-0.63158 0.86817-0.12231 0.42907-0.24261 1.2872-0.47318 1.582-0.23258 0.28872-0.62757 0.94637-0.68973 1.1569-0.06416 0.21454 0.11228 0.45915-0.08822 0.68171-0.2005 0.21654-0.88221 0.27068-1.2952 0.06416-0.41504-0.19649-0.97043-0.399-1.1128-0.64161-0.14236-0.24862 0.01604-0.81805 0.18446-0.93033 0.17243-0.1183 0.1203-0.53935 0.07419-0.96441-0.03809-0.42908-0.67369-1.0867-0.76191-2.013-0.09223-0.92231-0.60552-2.0692-0.65364-2.6747-0.04812-0.60151-0.79198-2.9694-1.0907-3.9258-0.29674-0.95238-0.95238-2.6807-1.0025-3.2842-0.04612-0.60351-0.61153-1.3013-0.73384-1.979-0.11429-0.66767-0.72983-2.0792-0.72983-2.0792"/>
		<path d="m64.584 19.036s-1.0526 1.2772-1.9649 2.3379c-0.90827 1.0526-2.4983 0.82607-3.7374 0.94436-1.2351 0.10827-3.6852-1.215-3.6852-1.215s-0.21454-1.2531 0.16641-1.604c0.37895-0.35689 1.3133-2.5424 1.7323-3.3484 0.42306-0.80802 0.73384-1.5419 1.5178-2.2015 0.77795-0.65965 2.2576 0.21855 2.7409 0.38897 0.48522 0.17243 1.2231 1.2271 2.0732 2.5123 0.85013 1.2932 1.1569 2.1855 1.1569 2.1855m-0.27469-4.8261c-0.86617-0.99449-2.8752-2.4481-3.4346-2.5464-0.5614-0.10226-1.8105-0.32882-2.5905 0.33283-0.78196 0.65364-1.2291 0.65765-2.0271 1.8206-0.798 1.1549-1.8506 1.5138-1.8466 2.2717 4e-3 0.76191-0.93033 3.4667-1.0166 3.6211-0.0882 0.14837-0.72982-0.18847-0.72982-0.18847s-0.46717-0.88421-0.88823-0.83409c-0.42506 0.04411-1.5519 0.26466-1.6742 1.209-0.12632 0.94637 0.1985 1.3414 0.8782 1.8847 0.68171 0.53734 1.8787 1.0887 1.8787 1.0887s-0.23459 0.84211 0.0762 2.0752c0.31078 1.2351 0.97043 2.9073 1.9248 3.7494 0.95439 0.84211 2.011 2.2115 3.4767 2.0932 1.4637-0.11429 2.7008-0.43709 3.5108-0.50326 0.81604-0.06416 1.3514 0.2005 1.8647 0 0.5153-0.20852 1.0566-0.56942 1.0887-1.3614 0.0301-0.79599-0.70978-1.3474-1.6902-1.2692-0.97444 0.07619-2.4181 1.0747-3.5409 0.87619-1.1208-0.2005-3.4867-1.1168-3.7153-1.6582-0.23258-0.54536-1.1048-3.4266-1.1048-3.4266s4.2105 2.3258 6.372 0.86617c2.1654-1.4597 2.8652-1.6281 3.4466-2.2396 0.57945-0.60953 1.4737-1.3754 1.6521-1.8867 0.18246-0.5173 0.63159-1.1489 0.20853-2.0672-0.42707-0.91429-1.2592-2.9133-2.1193-3.9078"/>
		<path d="m73.384 11.471c-0.54737 0.09023-1.7684 0.68371-2.2697 1.2932-0.78396 0.94036-1.1629 1.8947-1.1348 2.8231 0.0241 0.60151 0.2005 2.6567 1.6 4.006 0.70576 0.68572 0.97444 1.0807 1.211 1.4276l0.40902 0.55539 1.0005 1.0065c0.5614 0.54536 1.3273 1.2892 1.4316 1.5078 0.10025 0.21454 0.18848 0.63359 0.26667 0.9985l0.20652 0.8381c0.0842 0.22256 0.0842 0.35288 0.0882 0.53334l0.0261 0.42707c0.0582 0.41303 0.0762 1.215-0.29473 1.2932-0.65765 0.13233-1.9509 0.27268-3.208-0.22256l-0.24461-0.08822c-1.213-0.47719-2.0892-0.82406-2.5203-1.7965-0.50326-1.1168-0.8-1.4135-0.83008-1.4436l-0.018-0.02005-0.0221-0.01403c-0.32281-0.18246-1.1128-0.60953-1.4276-0.54938-0.37093 0.07419-1.1248 0.7599-1.1328 1.3754 0 0.41303 0.15238 0.61755 0.46517 1.0326l0.57544 0.8c0.74587 1.1148 2.2236 1.9308 3.0356 2.3198 0.73985 0.35088 3.6572 1.2391 4.9203 0.92231l0.37494-0.08822c1.0627-0.24862 2.0692-0.48522 2.4361-1.995 0.31479-1.3113 0.2366-2.0391 0.18848-2.4802l-0.0241-0.24662c-0.016-0.41704-0.29875-1.6782-0.86216-2.2998l-0.70174-0.84612c-0.55739-0.69374-1.2471-1.5519-1.8607-2.1353-0.92431-0.87218-2.0271-2.3058-2.2456-2.8231l-0.13835-0.31078c-0.23057-0.50326-0.49524-1.0707-0.399-1.6722 0.1163-0.72181 0.7178-1.8627 1.6361-2.009l0.21053-0.03609c0.85414-0.14035 1.8246-0.30075 2.1293-0.13835 1.6842 0.89023 1.9529 1.3454 1.995 1.4637l0.14236 0.56341c0.0802 0.37494 0.15038 0.72582 0.45314 0.85815 0.29473 0.13033 1.0988 0.30075 1.3434-0.03208l0.41704-0.71178v-0.01002c0.0441-0.12431 0.42106-1.2371-0.13834-1.7303l-1.5639-1.4216c-0.2386-0.22456-1.8125-1.0206-2.6867-1.0767-0.8401-0.05814-2.3178 0.07619-2.8391 0.15238"/>
		<path d="m97.154 25.214c-0.12431 0.34687-1.977 2.394-3.184 2.6727-1.209 0.27469-3.1158-0.06015-3.8597-0.5975-2.382-1.7003-1.3494-5.7183-1.2672-6.6727 0.0822-0.95038 2.5123-3.3243 3.5589-3.9318 1.0386-0.60953 3.5489 0.70577 3.5489 0.70577l0.81604 0.4371s-0.0461 0.9203-0.0241 1.3434c0.10827 1.3293 0.0802 2.2757 0.24863 3.3544 0.12832 0.7599 0.2807 2.3278 0.1624 2.6887m2.8892 1.8005c-0.32883-0.65564-0.94838-5.9409-1.0306-7.1319-0.0682-1.197 0.0642-6.6246-0.3569-8.7279-0.42306-2.1093-0.49123-4.0922-0.49123-4.0922s0.71579-3.1559 0.61755-3.577c-0.0942-0.42105-0.78998-0.76993-1.5679-0.53133-0.78196 0.24461-0.70175 2.2115-1.0827 3.0256-0.38296 0.79599 0.20451 2.6025 0.29273 3.9619 0.0802 1.3714 0.16041 5.2451 0.16041 5.2451-2.6907-1.3835-5.2832-0.77795-7.6893 1.1449-2.402 1.9328-2.2677 7.579-2.2496 9.0386 0.0261 1.4536 3.3704 5.2712 5.6762 5.1609 2.3038-0.12632 4.9624-2.7749 4.9624-2.7749s0.0441 1.608 0.36692 2.2697c0.33484 0.65765 0.71779 1.5539 1.4617 1.7384 0.72982 0.18647 1.2592-0.46918 1.5098-1.179 0.2406-0.70777-0.25464-2.9173-0.57945-3.5709"/>
		<path d="m104.6 10.517s-0.12832 2.8191-0.29474 3.4887c-0.16641 0.66767-0.25263 1.999-1.2531 2.0191-1.0065 0.02205-1.2772-1.5459-0.80001-2.4842 0.48121-0.94236 0.61554-1.7083 0.61554-1.7083s-0.17243-1.8566 0.0842-2.1594c0.26066-0.30276 0.96843-0.9985 1.1569-0.74186 0.19248 0.25664 0.49123 1.586 0.49123 1.586"/>
		<path d="m107.84 21.759 0.0501-0.24662c0.17043-0.31479 0.35489-1.4316 0.51529-2.4221l0.18446-1.0486 0.0602-0.30276c0.13634-0.71579 0.25664-1.3313 0.68772-2.017 0.38497-0.61955 1.4356-0.54737 1.999-0.50928l0.32882 0.01604c0.43309-4e-3 1.3534 0.73183 2.2697 1.4797 0.85815 0.70777 1.3053 1.2792 1.4115 1.4236-0.0601 0.15439-1.0747 2.5444-1.0747 2.5444-0.39098 0.89424-1.3033 1.2692-2.1815 1.6361l-0.70377 0.30276c-0.93033 0.44712-3.0296 0.17043-3.2822 0.13634-0.12833-0.27669-0.26467-0.69173-0.26467-0.99248m2.777-8.9384c-0.53534 0.10226-1.6441 0.30677-2.1775 1.1609l-0.4391 0.61554c-0.31077 0.399-0.57945 0.74587-0.86817 1.6261-0.17043 0.52331-0.40902 0.93634-0.62557 1.3013-0.28872 0.49925-0.52732 0.89624-0.401 1.3313 0.16842 0.61554 6e-3 3.188-0.0261 3.3544-0.0361 6e-3 -0.28071 6e-3 -0.5193-0.02807-0.1183-0.11429-0.65164-0.61153-1.0246-0.42306-0.37694 0.19248-1.215 0.71579-1.211 1.5519l0.016 0.16441c0.13233 0.97444 0.6015 1.211 1.2572 1.4416 0.62957 0.22256 1.5338 0.3208 1.7684 0.33885 0.016 0.24662 0.0983 0.90827 0.5594 1.7123 0.28472 0.48922 1.2972 2.1273 2.5484 2.6567l0.57143 0.26667c0.89224 0.42106 1.9028 0.90025 2.9233 0.42908l1.8446-0.9985 1.0125-0.55539 0.76992-0.25263c0.3188-0.08421 0.58748-0.15238 0.82407-0.35689 0.57143-0.50326 0.78196-1.0406 0.64361-1.6582-0.0642-0.28471-0.22256-0.51128-0.45715-0.65965-0.36491-0.22657-0.88822-0.22055-1.4035 0.02005-0.33885 0.15639-0.70577 0.47118-1.0907 0.80401-0.54537 0.47519-1.1148 0.96442-1.6762 1.0707-1.0767 0.1985-3.1739 0.11228-3.4386-0.21053-0.25062-0.30677-1.189-1.7624-1.5639-2.3318 0.91429 0.10827 4.1123 0.3589 5.4256-1.3574l1.5459-1.8807c0.41504-0.4792 0.66567-0.76993 0.86216-1.1649l0.29273-0.56542c0.32281-0.60552 0.65364-1.2331 0.67971-1.6401l0.0301-0.27268c0.0241-0.17043 0.0501-0.3609 0.0461-0.5574-4e-3 -0.3589-0.0862-0.74787-0.41504-1.1168l-0.30878-0.35489c-0.63358-0.73785-1.592-1.8526-2.416-2.3499-0.94637-0.57143-3.0055-1.213-3.5589-1.1108"/>
		<path d="m123.28 12.183c-0.84211 0.02406-1.3113 0.81003-1.3293 0.8381l-0.02 0.03609v0.0381c-6e-3 0.06416-0.0501 1.598-0.014 2.1374 8e-3 0.21454-0.0742 0.9183-0.17444 1.7323-0.13634 1.1429-0.30476 2.5724-0.32882 3.611-0.0381 1.8145-0.42106 5.3634-0.58146 5.8065-0.18045 0.53935-0.0902 0.90025 0.17043 1.4556 0.28471 0.60351 0.44712 0.74988 1.3915 0.76391 0.26266 0 0.46316-0.09223 0.59349-0.27469 0.25865-0.38095 0.14837-1.0105 0.0822-1.3855l-0.018-0.12231c-0.0662-0.41303 4e-3 -1.9609 0.22256-3.0657 0.2426-1.187 0.26265-3.7795 0.2426-4.1123-0.02-0.3188 0.14035-1.0426 0.46517-1.2752 0.40301-0.28872 0.72983-0.66366 0.95439-1.1148 0.1604-0.31679 0.401-0.41303 0.89023-0.60351l0.58747-0.2406 0.91429-0.4371c0.41905-0.21253 0.75188-0.37494 1.0647-0.45514 0.46116-0.12431 1.0526 0.21454 1.6261 0.93434 0.20251 0.24461 0.26667 0.76191 0.26868 1.3353 6e-3 0.51128-0.0341 1.0687-0.0742 1.5419l-0.0521 1.0707-0.10226 6.2998-0.21453 0.34687c-0.10025 0.14837-0.14838 0.3208-0.14838 0.50727l0.0201 0.18246c0.0742 0.37694 0.34085 0.70777 0.55138 0.82807 0.32681 0.18246 0.7218 0.40301 1.0426 0.33083 0.3629-0.08421 0.97043-1.1068 1.0406-1.9108 0.0561-0.6797 0.14035-3.3303 0.0521-4.7038-0.0261-0.39499 0.0221-1.1228 0.0782-1.9649l0.1203-2.6867c6e-3 -1.4456-0.39299-2.0391-0.78196-2.6125l-0.25464-0.39098c-0.5193-0.85815-1.4576-1.2351-2.39-1.5138-0.79399-0.23459-1.2712-0.02807-1.9368 0.26466l-0.85614 0.34286c-0.86016 0.29474-1.6842 0.78597-2.1153 1.0566 0.1183-0.30276 0.25664-0.65965 0.25664-0.65965l0.0241-0.23258c0-0.43509-0.22857-1.1128-0.31077-1.2972l-0.0321-0.08221c-0.12833-0.30877-0.21855-0.34085-0.92432-0.3188"/>
		<path d="m141.81 3.9952-0.52131 0.12632c-0.87218 0.21454-1.4476 1.1629-1.9489 2.009-0.23258 0.38697-0.45113 0.75389-0.66968 0.98246-0.66967 0.70777-0.72782 2.2376-0.78596 3.7273l-0.016 0.41704-4e-3 0.35288c0.02 1.8787 0.52732 6.6346 0.58947 7.2121-0.48922 0.29073-1.602 0.95238-1.7865 1.0246-0.29674 0.11629-0.61554 0.78196-0.72181 1.3253-0.0301 0.14837-0.0481 0.33283-0.0441 0.52732 4e-3 0.5594 0.16642 1.213 0.64361 1.3614 0.52131 0.16241 1.8707-0.9584 2.3659-1.3915 0.0241 1.0065 0.14235 4.6256 0.401 5.6522 0.15038 0.56341 0.73584 2.7429 0.85414 3.8095 0.12832 1.1188 0.24662 2.1855 0.38897 2.5724 0.22657 0.6396 0.56141 0.96842 0.82407 1.2351l0.13834 0.13434 0.13233 0.16241c0.23259 0.30075 0.58146 0.7599 1.3173 0.06015 0.70577-0.65965 0.76191-0.71579 0.66166-1.2912l-0.0301-0.18647c-0.0682-0.401-0.30677-0.77795-0.57945-1.209-0.22857-0.36692-0.48922-0.77995-0.68772-1.2732-0.42306-1.0266-1.209-4.6316-1.2792-5.4416-0.0601-0.6797-0.13434-4.2787-0.13434-4.3168l0.24261-0.29273 0.28271-0.16642c0.41303-0.25263 1.3835-0.84211 1.7083-0.79599l0.23058 0.03409c0.89825 0.13033 1.3193 0.16441 1.4476 0.02807 0.19649-0.20251 0.33283-1.4516 0.29674-1.8687l-0.17043-0.33083c-0.36491-0.34286-1.2792-0.56542-1.9649-0.47318 0 0-2.0912 0.40702-2.6105 0.51328-0.0281-0.25464-0.49324-4.2186-0.49324-4.2186-0.018-0.25865-0.0281-0.5173-0.0361-0.77795-4e-3 -0.80802 0.0642-1.6201 0.1203-2.3078 0.0481-0.60351 0.44111-1.5038 0.78396-2.3038l0.48121-1.209c0.19449-0.67168 2.2516-0.92832 2.6927-0.85013 0.37093 0.06617 0.91429 0.23058 1.3494 0.8401 0.46717 0.64963 0.84411 1.4677 0.93634 2.0391l0.0662 0.59349c0.018 0.31278 0.0421 0.6376 0.18847 1.2231 0.20451 0.83409 0.53133 0.77594 0.8782 0.7198l0.29674-0.03609c0.46316 0 1.0947-0.11228 1.2511-1.0927 0.11829-0.74988-0.12031-1.7063-0.29875-2.412l-0.0782-0.33484c-0.16441-0.69173-1.3374-2.5103-1.8005-2.6647-0.2005-0.06817-0.61754-0.45714-1.0186-0.82607-0.35889-0.34085-0.73183-0.68371-1.0085-0.85815-0.53735-0.34486-1.7243-0.0401-2.8812 0.24662"/>
		<path d="m158.01 13.436c-0.18313 0.02405-0.35894 0.13094-0.50782 0.37305-0.18446 0.30877-0.22265 0.63666-0.22265 0.86523-0.96041-0.70376-4.0647-0.53214-5.2637-0.27148-0.68171 0.14637-3.0148 1.053-4.4805 6.625-0.88622 3.3845-0.0824 6.0824 2.3476 7.8047 1.5378 1.0847 3.1581 0.71457 3.6152 0.57422l2.6074-0.62695 0.4082 0.0098c0.0662 0.11228 0.29883 0.51664 0.29883 1.0059 4e-3 0.1604-0.0199 0.32783-0.082 0.49023l-0.0684 0.35938 0.0684 0.34766c0.23058 0.64361 1.0543 1.1144 1.4453 1.2207l0.26953-0.06445c0.20251-0.2005 0.23339-0.69979 0.27149-1.2812l0.10742-0.92969c0.20451-0.81404 0.2788-4.9833 0.22266-6.5352-0.0521-1.596 0.2207-6.2353 0.2207-6.2734 0 0.01203 0.49426-1.9434 0.64063-2.3184l0.0293-0.30274c-0.0622-0.20852-0.26036-0.30697-0.53906-0.44531l-0.50391-0.29102c-0.25313-0.18421-0.57955-0.37602-0.88476-0.33594zm-3.3457 3.2051c0.84612 0.06616 2.1934 1.4121 2.1934 1.4121l0.14063 1.9395s-0.0333 1.2836-0.10352 2.7012c-0.0622 1.4216-1.6082 3.753-1.8809 3.9375-0.27067 0.18847-3.5041 0.33748-4.8555-0.70312-1.3454-1.0446-1.1442-3.146-1.0078-4.373 0.13835-1.2351 1.7182-3.0368 2.041-3.4258 0.32882-0.39098 2.6285-1.5605 3.4726-1.4883z"/>
		<path d="m164.47 13.144-0.30275 0.03008c-0.37695-0.10025-0.90828 0.2005-1.3273 0.73785l-0.13233 0.41103c0.014 0.401 0.37494 0.78998 0.58547 1.0226l0.11629 0.12832c0.0622 0.10025 0.22456 0.84612 0.34085 1.4917l0.34487 4.788 0.11629 1.7023c0.0622 0.74587 0.11829 1.5158 0.1223 2.007v0.23659c-0.0341 0.57544-0.0481 1.0907-0.0441 1.5519 0.014 1.6 0.24462 2.5303 0.69775 2.8311 0.78998 0.53334 1.0486 0.26466 1.5258-0.22055l0.17043-0.17243c0.19248-0.19449 0.29674-0.42105 0.31278-0.68973 0.0301-0.56943-0.35288-1.0907-0.42907-1.191-0.0622-0.12832-0.0802-1.0927-0.0862-1.8005-0.01-0.90226-0.0221-1.8446-0.11429-2.2577-0.17243-0.77193 0.11629-4.0381 0.11629-4.0702 0.0742-0.48922-0.0221-1.1108-0.10426-1.6541-0.0902-0.55138-0.17844-1.1228-0.0341-1.3333l0.22256-0.09624 0.52932-0.03008c0.64562-0.03609 2.3659-0.38897 2.5524-0.24662 0.13835 0.10827 0.40101 0.16241 0.73584 0.23258 0.44512 0.09624 0.99249 0.21454 1.2832 0.46316 0.47519 0.39499 0.80802 2.3499 0.8802 4.2526 0.0582 1.8767-0.0722 5.2973-0.0722 5.3334-0.0301 0.59148-0.10827 1.2972-0.17845 1.4015-0.21052 0.2005-0.17644 0.96241-0.0962 1.3193 0.0902 0.37494 0.21855 0.7599 0.5193 0.81805l0.0802 0.01203c0.24061 0.04612 0.6396 0.11629 1.0326-0.18246 0.45714-0.35288 0.70977-1.4236 0.72181-1.9288l0.14436-6.1193c0.0261-1.4817-0.25665-2.8632-0.44712-3.7775l-0.14436-0.80401c-0.0682-0.7599-1.1308-2.4241-2.0331-2.9313-0.71981-0.40301-1.5078-0.43108-2.2035-0.45113l-0.89224-0.06416c-0.78195-0.13033-2.9193 0.74587-3.3464 0.83008-0.0601-0.17644-0.42507-1.207-0.42507-1.207-0.18045-0.51128-0.50526-0.42907-0.73785-0.37293"/>
		<path d="m182.63 0.03923c-0.33083 0.06015-0.57545 0.22857-0.72382 0.49123-0.13834 0.24662-0.18245 0.54536-0.18045 0.84812 8e-3 0.38296 0.0802 0.77193 0.13835 1.0747l0.0662 0.43509c2e-3 0.24862-0.0842 0.61755-0.17243 0.98046l-0.16842 0.81203-0.0582 0.93233c-0.0682 1.0747-0.17042 2.7028-0.26265 3.1639-0.12431 0.61354-0.40101 3.5489-0.45113 4.1083-0.46517 0.01805-1.4576 0.05414-1.6521 8e-3l-0.30677-0.13233c-0.42707-0.20652-1.0667-0.5213-1.6401-0.32682-0.6396 0.21654-0.66166 0.78998-0.68171 1.4516l-0.0321 0.59549c-0.018 0.20852 0.02 0.37293 0.11629 0.49123 0.19649 0.24862 0.59549 0.22256 1.0145 0.19248 0.32281-0.02406 0.65965-0.04411 0.89223 0.05614 0.58547 0.25263 1.5038 0.25263 1.8085 0.24662-0.02 0.26266-0.14436 2.4361-0.14436 2.4361l-0.3188 4.8481c-0.0541 0.26867-0.49724 2.4622-0.49123 3.5669 6e-3 0.20251 0.0221 0.36692 0.0521 0.4772l0.13434 0.52331c0.12431 0.55338 0.26065 1.1769 0.62958 1.4095 0.17042 0.10827 0.37092 0.1183 0.6015 0.02607 0.56742-0.23058 1.0005-0.87018 0.9965-1.5138 0-0.38697-0.0581-0.77995-0.10025-1.0867l-0.0321-0.25664-0.014-0.24862c-8e-3 -0.98446 0.26667-3.605 0.37895-4.6577l0.0421-0.37494c0.0802-0.79198 0.66968-4.6837 0.73384-5.1168l0.61755-0.22857 0.86817 0.21454c0.10827 0.17043 0.6396 0.94637 1.0627 1.0025 0.4792 0.07218 0.88021-0.40501 0.98246-0.66567 0.0341-0.09223 0.0401-0.25063 0.0401-0.4371-6e-3 -0.37494-0.0541-0.84411-0.0702-0.97043l-4e-3 -0.05815-1.0546-0.95639c-0.34086-0.34486-1.7364-0.49123-2.1654-0.52932 0.012-0.21654 0.0622-1.0025 0.0622-1.0025 4e-3 -0.24461 0.44511-5.177 0.65364-5.8687 0.21453-0.6777 0.36291-2.1614 0.35689-2.8391l-6e-3 -0.1985 0.0642-0.52932c0.0541-0.33283 0.1223-0.7579 0.1223-1.1609-6e-3 -0.36692-0.0682-0.71379-0.26266-0.95238-0.23458-0.28872-0.9203-0.38095-1.4416-0.2807"/>
		<path d="m190.44 14.344c-0.86015 0.77995-1.2531 1.6241-1.217 2.5805 0.0541 1.4296 1.2772 2.9193 2.001 3.6812l0.45313 0.47519c1.1088 1.1509 2.9554 3.0677 3.1118 4.0281 0.19248 1.1489-0.11629 2.5444-0.40501 2.8832-0.16241 0.18647-1.0085 1.1048-1.9709 0.97244-0.95639-0.13033-2.5865-0.8-2.6787-1.193-0.0722-0.30075-0.0521-0.61955-0.0341-0.9564l8e-3 -0.66767c-0.018-0.44912-0.2386-0.92431-0.55338-1.189-0.20652-0.17243-0.10226-0.3609-0.34086-0.33684-0.71178 0.08421-1.7002 0.74787-1.6341 1.608 0.11228 1.4296 0.48722 3.2341 1.6281 3.6953l0.46917 0.19649c1.1068 0.45113 2.2516 0.92231 3.0877 0.95238 1.9348 0.07018 3.3203-0.61354 4.1303-2.0271 1.3053-2.2697 0.92432-4.1103-0.0802-5.3133-0.49925-0.59549-0.7599-1.0647-0.99248-1.4837-0.26667-0.4812-0.49524-0.90226-1.0125-1.3895l-0.75388-0.66166c-0.68973-0.57745-1.2852-1.0827-1.578-1.9308l-0.24462-0.65364c-0.26265-0.68973-0.30677-0.84411-0.11228-1.1589 0.28672-0.47519 1.4657-1.2692 1.6762-1.2291 0.37895 0.06416 1.7163 0.21253 2.0712 0.59148 0.43108 0.45314 1.1389 1.7444 1.7644 1.8667 0.65965 0.1203 1.3434-0.20251 1.4797-0.75188 0.13634-0.54536-0.50928-1.3494-1.177-1.7083l4e-3 4e-3c-0.0782-0.04612-1.7764-1.7524-2.9935-1.9769-1.187-0.22857-3.5088 0.54938-4.1063 1.0927"/>
	</g>
</svg>
